<svg width="357" height="800" viewBox="0 0 357 800" fill="none" xmlns="http://www.w3.org/2000/svg">
<rect width="357" height="800" fill="white"/>
<g filter="url(#filter0_d_140_1273)">
<rect x="21" y="524" width="318" height="39" rx="8" fill="#C9AE39"/>
</g>
<path d="M125.69 549.154C124.038 549.163 122.741 548.921 121.798 548.426C120.856 547.931 120.342 547.231 120.258 546.326C120.249 546.251 120.244 546.139 120.244 545.99C120.244 545.598 120.296 545.183 120.398 544.744C120.501 544.296 120.632 543.885 120.79 543.512L122.008 544.114C121.728 544.963 121.607 545.593 121.644 546.004C121.719 546.405 122.102 546.732 122.792 546.984C123.483 547.227 124.449 547.348 125.69 547.348H125.76C126.88 547.339 127.786 547.255 128.476 547.096C129.167 546.937 129.662 546.681 129.96 546.326C129.811 546.345 129.592 546.354 129.302 546.354C128.649 546.354 128.07 546.247 127.566 546.032C127.062 545.817 126.698 545.491 126.474 545.052C126.306 544.725 126.222 544.333 126.222 543.876C126.222 543.372 126.33 542.877 126.544 542.392C126.768 541.907 127.072 541.51 127.454 541.202C127.846 540.894 128.271 540.74 128.728 540.74C129.288 540.74 129.788 540.973 130.226 541.44C130.665 541.897 130.996 542.49 131.22 543.218C131.454 543.946 131.547 544.693 131.5 545.458C131.454 546.597 130.945 547.497 129.974 548.16C129.013 548.813 127.599 549.145 125.732 549.154H125.69ZM127.608 544.044C127.748 544.24 128.005 544.399 128.378 544.52C128.752 544.632 129.172 544.688 129.638 544.688C129.9 544.688 130.096 544.679 130.226 544.66C130.114 544.016 129.914 543.47 129.624 543.022C129.335 542.565 128.994 542.336 128.602 542.336C128.406 542.336 128.22 542.406 128.042 542.546C127.874 542.677 127.739 542.845 127.636 543.05C127.534 543.246 127.482 543.437 127.482 543.624C127.482 543.792 127.524 543.932 127.608 544.044ZM128.56 537.436L129.358 538.234L129.75 538.626L128.56 539.83L127.37 538.626L128.56 537.436ZM136.529 549C136.23 549 135.946 548.939 135.675 548.818C135.656 549.686 135.288 550.493 134.569 551.24C133.85 551.996 132.912 552.603 131.755 553.06L131.027 551.534C131.634 551.301 132.189 551.016 132.693 550.68C133.197 550.344 133.594 550.003 133.883 549.658C134.172 549.313 134.317 549.005 134.317 548.734C134.317 548.529 134.261 548.188 134.149 547.712C134.037 547.227 133.888 546.62 133.701 545.892C133.626 545.631 133.575 545.435 133.547 545.304L134.947 544.758C135.068 545.159 135.19 545.589 135.311 546.046C135.432 546.466 135.586 546.765 135.773 546.942C135.96 547.11 136.212 547.194 136.529 547.194H136.641L136.739 548.09L136.641 549H136.529ZM148.986 549C148.08 549 147.404 548.991 146.956 548.972C146.517 548.953 146.144 548.897 145.836 548.804C144.996 549.131 144.016 549.294 142.896 549.294C141.094 549.294 139.951 548.725 139.466 547.586C139.195 548.043 138.854 548.393 138.444 548.636C138.042 548.879 137.524 549 136.89 549H136.694V547.194H136.904C137.352 547.194 137.711 547.096 137.982 546.9C138.262 546.704 138.486 546.396 138.654 545.976C138.822 545.556 138.957 544.991 139.06 544.282L140.362 544.548C140.306 544.912 140.278 545.234 140.278 545.514C140.278 546.149 140.427 546.62 140.726 546.928C141.435 545.668 142.224 544.688 143.092 543.988C143.969 543.288 144.837 542.938 145.696 542.938C146.218 542.938 146.69 543.05 147.11 543.274C147.53 543.498 147.856 543.806 148.09 544.198C148.323 544.59 148.44 545.033 148.44 545.528C148.44 546.135 148.267 546.709 147.922 547.25C148.23 547.213 148.584 547.194 148.986 547.194H149.056L149.154 548.09L149.056 549H148.986ZM141.944 547.46C142.168 547.497 142.462 547.516 142.826 547.516C143.656 547.516 144.398 547.423 145.052 547.236C145.705 547.04 146.209 546.793 146.564 546.494C146.928 546.186 147.11 545.878 147.11 545.57C147.11 545.309 146.998 545.094 146.774 544.926C146.55 544.749 146.242 544.66 145.85 544.66C145.196 544.66 144.529 544.903 143.848 545.388C143.166 545.873 142.532 546.564 141.944 547.46ZM149.145 547.194H149.411C150.148 547.194 150.755 546.755 151.231 545.878C151.66 545.038 152.094 544.394 152.533 543.946C152.971 543.489 153.457 543.26 153.989 543.26C154.474 543.26 154.899 543.414 155.263 543.722C155.627 544.03 155.907 544.427 156.103 544.912C156.299 545.397 156.397 545.906 156.397 546.438C156.397 546.97 156.294 547.455 156.089 547.894C155.893 548.333 155.603 548.669 155.221 548.902C155.015 549.014 154.782 549.07 154.521 549.07C153.811 549.07 152.859 548.692 151.665 547.936C151.385 548.291 151.049 548.557 150.657 548.734C150.265 548.911 149.835 549 149.369 549H149.117L149.145 547.194ZM152.449 546.48C152.915 546.769 153.335 546.998 153.709 547.166C154.082 547.325 154.367 547.404 154.563 547.404C154.647 547.404 154.707 547.39 154.745 547.362C154.987 547.213 155.109 546.923 155.109 546.494C155.109 546.093 155.001 545.724 154.787 545.388C154.572 545.052 154.297 544.884 153.961 544.884C153.503 544.884 152.999 545.416 152.449 546.48ZM159.54 551.534C160.147 551.301 160.702 551.016 161.206 550.68C161.71 550.344 162.107 550.003 162.396 549.658C162.685 549.313 162.83 549.005 162.83 548.734C162.83 548.529 162.774 548.188 162.662 547.712C162.55 547.227 162.401 546.62 162.214 545.892C162.139 545.631 162.088 545.435 162.06 545.304L163.46 544.758C163.675 545.411 163.847 546.107 163.978 546.844C164.118 547.572 164.188 548.202 164.188 548.734C164.188 549.621 163.824 550.447 163.096 551.212C162.377 551.977 161.435 552.593 160.268 553.06L159.54 551.534ZM168.827 549C167.809 549 167.091 548.725 166.671 548.174C166.251 547.623 166.041 546.76 166.041 545.584C166.041 544.511 166.008 543.353 165.943 542.112C165.887 540.861 165.807 539.886 165.705 539.186L167.231 538.836C167.324 539.499 167.399 540.502 167.455 541.846C167.511 543.181 167.534 544.333 167.525 545.304C167.515 545.817 167.539 546.205 167.595 546.466C167.651 546.718 167.772 546.905 167.959 547.026C168.145 547.138 168.435 547.194 168.827 547.194H168.897L168.981 548.09L168.897 549H168.827ZM168.962 547.194H169.06C169.881 547.185 170.45 547.077 170.768 546.872C171.094 546.667 171.258 546.326 171.258 545.85C171.258 545.635 171.22 545.285 171.146 544.8L171.09 544.422L172.406 544.17C172.527 544.795 172.588 545.556 172.588 546.452C172.634 546.667 172.751 546.844 172.938 546.984C173.124 547.124 173.381 547.194 173.708 547.194H173.806L173.904 548.09L173.806 549H173.708C173.334 549 172.984 548.907 172.658 548.72C172.34 548.533 172.079 548.286 171.874 547.978C171.631 548.333 171.276 548.594 170.81 548.762C170.343 548.921 169.76 549 169.06 549H168.962V547.194ZM169.844 550.19L170.642 550.988L171.034 551.38L169.844 552.584L168.654 551.38L169.844 550.19ZM181.201 549C180.725 549 180.281 548.865 179.871 548.594C179.46 548.314 179.031 547.88 178.583 547.292C178.303 547.861 177.789 548.291 177.043 548.58C176.296 548.86 175.381 549 174.299 549H173.865V547.194H174.299C175.148 547.194 175.834 547.124 176.357 546.984C176.889 546.844 177.239 546.648 177.407 546.396C177.416 545.939 177.173 545.379 176.679 544.716C176.184 544.044 175.451 543.311 174.481 542.518L174.649 540.922L179.815 538.71L180.319 540.166L176.161 541.958C176.525 542.275 176.912 542.672 177.323 543.148C177.733 543.615 178.069 544.105 178.331 544.618C178.788 545.309 179.166 545.836 179.465 546.2C179.773 546.555 180.057 546.811 180.319 546.97C180.589 547.119 180.883 547.194 181.201 547.194H181.411L181.495 548.09L181.411 549H181.201ZM181.475 547.194H182.105C183.057 547.194 183.729 547.11 184.121 546.942C184.513 546.765 184.709 546.494 184.709 546.13C184.7 545.897 184.597 545.495 184.401 544.926C184.214 544.347 184.065 543.937 183.953 543.694L185.269 542.98C185.456 543.4 185.642 543.923 185.829 544.548C186.016 545.173 186.109 545.724 186.109 546.2C186.1 547.115 185.782 547.81 185.157 548.286C184.532 548.762 183.603 549 182.371 549H181.475V547.194ZM184.107 552.458L182.987 551.338C182.987 551.338 183.234 551.091 183.729 550.596L184.107 550.218L184.485 550.596C184.98 551.091 185.227 551.338 185.227 551.338L184.107 552.458ZM180.509 551.338C180.509 551.338 180.756 551.091 181.251 550.596L181.629 550.218L182.007 550.596C182.502 551.091 182.749 551.338 182.749 551.338L181.629 552.458L180.509 551.338ZM198.43 549C198.01 549 197.637 548.925 197.31 548.776C196.983 548.617 196.689 548.379 196.428 548.062C195.719 548.734 194.86 549.07 193.852 549.07C193.161 549.07 192.569 548.963 192.074 548.748C191.589 548.524 191.15 548.272 190.758 547.992L191.444 546.704C191.771 546.881 192.107 547.035 192.452 547.166C192.807 547.287 193.222 547.348 193.698 547.348C194.445 547.348 195.112 547.161 195.7 546.788L193.754 542.294L195.056 541.608L196.974 546.144C197.142 546.545 197.329 546.821 197.534 546.97C197.749 547.119 198.047 547.194 198.43 547.194H198.584L198.682 548.09L198.584 549H198.43ZM198.645 547.194H199.079C199.929 547.194 200.615 547.124 201.137 546.984C201.669 546.844 202.019 546.648 202.187 546.396C202.197 545.939 201.954 545.379 201.459 544.716C200.965 544.044 200.232 543.311 199.261 542.518L199.429 540.922L204.595 538.71L205.099 540.166L200.941 541.958C201.557 542.481 202.155 543.153 202.733 543.974C203.312 544.786 203.601 545.561 203.601 546.298C203.601 546.503 203.573 546.704 203.517 546.9C203.321 547.6 202.831 548.127 202.047 548.482C201.273 548.827 200.283 549 199.079 549H198.645V547.194ZM212.703 552.598C211.966 552.598 211.289 552.449 210.673 552.15C210.067 551.851 209.581 551.427 209.217 550.876C208.863 550.325 208.685 549.681 208.685 548.944C208.685 548.412 208.779 547.824 208.965 547.18C209.152 546.536 209.376 545.948 209.637 545.416L210.855 545.99C210.613 546.513 210.426 546.984 210.295 547.404C210.165 547.824 210.099 548.244 210.099 548.664C210.099 549.299 210.337 549.812 210.813 550.204C211.289 550.596 211.919 550.792 212.703 550.792C214.701 550.792 215.667 549.761 215.601 547.698C215.545 545.915 215.466 544.249 215.363 542.7C215.261 541.151 215.158 539.979 215.055 539.186L216.581 538.836C216.731 540.087 216.871 543.017 217.001 547.628C217.039 549.187 216.679 550.405 215.923 551.282C215.167 552.159 214.094 552.598 212.703 552.598ZM221.65 549C220.633 549 219.914 548.725 219.494 548.174C219.074 547.623 218.864 546.76 218.864 545.584C218.864 544.511 218.832 543.353 218.766 542.112C218.71 540.861 218.631 539.886 218.528 539.186L220.054 538.836C220.148 539.499 220.222 540.502 220.278 541.846C220.334 543.181 220.358 544.333 220.348 545.304C220.339 545.817 220.362 546.205 220.418 546.466C220.474 546.718 220.596 546.905 220.782 547.026C220.969 547.138 221.258 547.194 221.65 547.194H221.72L221.804 548.09L221.72 549H221.65ZM229.583 549C229.135 548.991 228.757 548.879 228.449 548.664C228.141 548.44 227.912 548.127 227.763 547.726C227.52 548.118 227.236 548.431 226.909 548.664C226.592 548.888 226.246 549 225.873 549H225.817C225.406 549 225.052 548.888 224.753 548.664C224.464 548.431 224.272 548.123 224.179 547.74C223.88 548.151 223.535 548.463 223.143 548.678C222.751 548.893 222.326 549 221.869 549H221.827L221.729 548.09L221.827 547.194H221.883C222.191 547.194 222.49 547.124 222.779 546.984C223.068 546.844 223.288 546.671 223.437 546.466C223.633 546.223 223.782 545.957 223.885 545.668C223.997 545.379 224.09 545.075 224.165 544.758L225.481 544.898C225.481 544.907 225.458 545.015 225.411 545.22C225.271 545.761 225.201 546.163 225.201 546.424C225.201 546.685 225.252 546.881 225.355 547.012C225.458 547.133 225.621 547.194 225.845 547.194H225.873C226.368 547.194 226.764 546.914 227.063 546.354C227.25 545.99 227.408 545.425 227.539 544.66L228.855 544.716C228.743 545.276 228.687 545.729 228.687 546.074C228.687 546.821 228.995 547.194 229.611 547.194C229.91 547.194 230.138 547.11 230.297 546.942C230.465 546.765 230.549 546.531 230.549 546.242C230.549 545.962 230.46 545.561 230.283 545.038C230.106 544.506 229.942 544.063 229.793 543.708L231.081 542.994C231.268 543.395 231.454 543.923 231.641 544.576C231.837 545.22 231.935 545.789 231.935 546.284C231.935 546.779 231.837 547.231 231.641 547.642C231.445 548.053 231.174 548.379 230.829 548.622C230.484 548.865 230.092 548.991 229.653 549H229.611H229.583ZM231.489 551.534C232.095 551.301 232.651 551.016 233.155 550.68C233.659 550.344 234.055 550.003 234.345 549.658C234.634 549.313 234.779 549.005 234.779 548.734C234.779 548.529 234.723 548.188 234.611 547.712C234.499 547.227 234.349 546.62 234.163 545.892C234.088 545.631 234.037 545.435 234.009 545.304L235.409 544.758C235.623 545.411 235.796 546.107 235.927 546.844C236.067 547.572 236.137 548.202 236.137 548.734C236.137 549.621 235.773 550.447 235.045 551.212C234.326 551.977 233.383 552.593 232.217 553.06L231.489 551.534ZM237.878 548.916C237.952 548.356 237.99 547.409 237.99 546.074C237.99 544.795 237.952 543.456 237.878 542.056C237.812 540.656 237.738 539.699 237.654 539.186L239.194 538.836C239.268 539.34 239.338 540.273 239.404 541.636C239.469 542.989 239.502 544.315 239.502 545.612C239.502 547.152 239.45 548.309 239.348 549.084L237.878 548.916Z" fill="white"/>
<path d="M264.272 455.549C263.579 455.549 263.013 455.357 262.576 454.973C262.427 456.467 261.915 457.629 261.04 458.461C260.176 459.304 259.029 459.725 257.6 459.725C256.747 459.725 255.963 459.555 255.248 459.213C254.533 458.872 253.963 458.376 253.536 457.725C253.12 457.085 252.912 456.339 252.912 455.485C252.912 454.867 253.024 454.179 253.248 453.421C253.472 452.653 253.728 451.96 254.016 451.341L255.568 452.045C255.28 452.675 255.061 453.224 254.912 453.693C254.773 454.152 254.704 454.621 254.704 455.101C254.704 455.763 254.971 456.301 255.504 456.717C256.037 457.133 256.736 457.341 257.6 457.341C258.688 457.341 259.509 457.064 260.064 456.509C260.619 455.955 260.88 455.117 260.848 453.997C260.795 452.152 260.699 450.307 260.56 448.461C260.421 446.605 260.283 445.165 260.144 444.141L262.144 443.709C262.315 445.011 262.448 447.619 262.544 451.533H262.56C262.592 452.003 262.651 452.349 262.736 452.573C262.832 452.797 262.992 452.952 263.216 453.037C263.451 453.123 263.803 453.165 264.272 453.165H264.448L264.576 454.365L264.448 455.549H264.272ZM264.285 453.165H265.053C266.109 453.165 266.856 453.075 267.293 452.893C267.73 452.712 267.949 452.435 267.949 452.061C267.938 451.827 267.816 451.379 267.581 450.717C267.346 450.045 267.176 449.597 267.069 449.373L268.765 448.445C268.978 448.893 269.192 449.491 269.405 450.237C269.618 450.973 269.725 451.619 269.725 452.173C269.714 453.261 269.346 454.099 268.621 454.685C267.896 455.261 266.824 455.549 265.405 455.549H264.285V453.165ZM267.261 459.613L265.917 458.269L267.261 456.909L267.709 457.357L268.621 458.269L267.261 459.613ZM264.445 456.909L264.893 457.357L265.805 458.269L264.445 459.613L263.101 458.269L264.445 456.909ZM274.845 455.549C273.671 455.549 272.823 455.213 272.301 454.541C271.789 453.869 271.533 452.845 271.533 451.469C271.522 450.157 271.479 448.829 271.405 447.485C271.341 446.131 271.245 445.016 271.117 444.141L273.101 443.709C273.207 444.488 273.293 445.544 273.357 446.877C273.421 448.2 273.453 449.427 273.453 450.557V451.165C273.442 451.709 273.469 452.12 273.533 452.397C273.597 452.675 273.725 452.872 273.917 452.989C274.119 453.107 274.429 453.165 274.845 453.165H274.925L275.053 454.365L274.925 455.549H274.845ZM274.77 453.165H275.618C276.386 453.165 276.935 453.08 277.266 452.909C277.607 452.739 277.778 452.483 277.778 452.141C277.778 451.917 277.666 451.48 277.442 450.829C277.218 450.168 277.042 449.683 276.914 449.373L278.594 448.445C278.796 448.893 279.004 449.496 279.218 450.253C279.442 451 279.554 451.656 279.554 452.221C279.554 453.309 279.212 454.136 278.53 454.701C277.858 455.267 276.887 455.549 275.618 455.549H274.77V453.165ZM276.018 456.813C276.348 457.133 276.674 457.459 276.994 457.789L277.49 458.285L276.018 459.757L274.53 458.285L276.018 456.813ZM280.565 458.157C282.026 457.837 283.162 457.469 283.973 457.053C284.784 456.648 285.317 456.152 285.573 455.565C284.4 455.544 283.45 455.427 282.725 455.213C282 454.989 281.493 454.568 281.205 453.949C281.013 453.533 280.917 453.075 280.917 452.573C280.917 451.944 281.05 451.32 281.317 450.701C281.584 450.072 281.952 449.56 282.421 449.165C282.89 448.76 283.402 448.557 283.957 448.557C284.512 448.557 285.024 448.765 285.493 449.181C285.962 449.597 286.352 450.157 286.661 450.861C286.981 451.565 287.194 452.333 287.301 453.165H287.973L288.101 454.365L287.973 455.549H287.253C286.986 456.733 286.336 457.731 285.301 458.541C284.277 459.352 282.944 459.912 281.301 460.221L280.565 458.157ZM282.677 452.605C282.826 452.808 283.152 452.952 283.653 453.037C284.154 453.112 284.805 453.155 285.605 453.165C285.456 452.461 285.216 451.875 284.885 451.405C284.554 450.925 284.181 450.685 283.765 450.685C283.552 450.685 283.349 450.765 283.157 450.925C282.976 451.075 282.832 451.267 282.725 451.501C282.618 451.736 282.565 451.96 282.565 452.173C282.565 452.355 282.602 452.499 282.677 452.605ZM287.818 453.165H288.106C288.938 453.165 289.62 452.664 290.154 451.661C290.687 450.669 291.199 449.928 291.69 449.437C292.18 448.936 292.73 448.685 293.338 448.685C293.914 448.685 294.42 448.872 294.858 449.245C295.295 449.608 295.626 450.083 295.85 450.669C296.084 451.245 296.202 451.853 296.202 452.493C296.202 453.112 296.084 453.688 295.85 454.221C295.615 454.744 295.274 455.139 294.826 455.405C294.591 455.555 294.303 455.629 293.962 455.629C293.14 455.629 292.052 455.203 290.698 454.349C290.036 455.149 289.162 455.549 288.074 455.549H287.77L287.818 453.165ZM291.722 452.461C292.223 452.771 292.676 453.016 293.082 453.197C293.487 453.368 293.796 453.453 294.01 453.453C294.116 453.453 294.191 453.437 294.234 453.405C294.34 453.331 294.42 453.224 294.474 453.085C294.538 452.936 294.57 452.765 294.57 452.573C294.57 452.147 294.452 451.752 294.218 451.389C293.983 451.016 293.674 450.829 293.29 450.829C292.81 450.829 292.287 451.373 291.722 452.461ZM303.908 455.613C302.916 455.613 302.142 455.347 301.588 454.813C301.044 454.28 300.772 453.592 300.772 452.749C300.772 452.419 300.82 452.072 300.916 451.709C301.129 450.835 301.598 449.971 302.324 449.117L301.78 448.781L302.996 446.973C304.404 447.827 305.465 448.691 306.18 449.565C306.894 450.429 307.252 451.347 307.252 452.317C307.252 452.968 307.102 453.544 306.804 454.045C306.516 454.536 306.116 454.92 305.604 455.197C305.102 455.475 304.537 455.613 303.908 455.613ZM302.452 452.141C302.43 452.504 302.553 452.787 302.82 452.989C303.086 453.192 303.486 453.293 304.02 453.293C304.446 453.293 304.798 453.213 305.076 453.053C305.364 452.893 305.534 452.685 305.588 452.429C305.513 452.077 305.321 451.715 305.012 451.341C304.713 450.957 304.286 450.547 303.732 450.109C302.889 450.899 302.462 451.576 302.452 452.141ZM306.303 458.205C307.007 457.917 307.652 457.581 308.239 457.197C308.825 456.824 309.284 456.451 309.615 456.077C309.956 455.704 310.127 455.384 310.127 455.117C310.127 454.68 309.844 453.491 309.279 451.549L309.199 451.229L310.991 450.525C311.247 451.261 311.449 452.051 311.599 452.893C311.748 453.725 311.823 454.467 311.823 455.117C311.823 456.163 311.412 457.128 310.591 458.013C309.769 458.909 308.665 459.645 307.279 460.221L306.303 458.205ZM316.939 455.549C315.765 455.549 314.917 455.213 314.395 454.541C313.883 453.869 313.627 452.845 313.627 451.469C313.616 450.157 313.573 448.829 313.499 447.485C313.435 446.131 313.339 445.016 313.211 444.141L315.195 443.709C315.301 444.488 315.387 445.544 315.451 446.877C315.515 448.2 315.547 449.427 315.547 450.557V451.165C315.536 451.709 315.563 452.12 315.627 452.397C315.691 452.675 315.819 452.872 316.011 452.989C316.213 453.107 316.523 453.165 316.939 453.165H317.019L317.147 454.365L317.019 455.549H316.939ZM316.863 453.165H317.199C318.021 453.165 318.703 452.664 319.247 451.661C319.791 450.68 320.314 449.939 320.815 449.437C321.317 448.936 321.866 448.685 322.463 448.685C323.114 448.685 323.647 448.899 324.063 449.325C324.479 449.752 324.826 450.376 325.103 451.197C325.349 451.944 325.551 452.461 325.711 452.749C325.882 453.027 326.085 453.165 326.319 453.165H326.511L326.639 454.365L326.511 455.549H326.319C325.989 455.549 325.685 455.464 325.407 455.293C325.13 455.112 324.895 454.861 324.703 454.541C324.629 454.723 324.522 454.888 324.383 455.037C324.245 455.187 324.09 455.309 323.919 455.405C323.695 455.555 323.407 455.629 323.055 455.629C322.245 455.629 321.162 455.203 319.807 454.349C319.477 454.755 319.087 455.059 318.639 455.261C318.191 455.453 317.701 455.549 317.167 455.549H316.863V453.165ZM320.815 452.461C321.349 452.845 321.866 453.128 322.367 453.309C322.879 453.491 323.29 453.581 323.599 453.581C323.695 453.581 323.759 453.576 323.791 453.565C323.802 453.512 323.807 453.421 323.807 453.293C323.807 452.963 323.749 452.605 323.631 452.221C323.525 451.837 323.359 451.512 323.135 451.245C322.922 450.968 322.671 450.829 322.383 450.829C321.903 450.829 321.381 451.373 320.815 452.461ZM335.26 455.549C334.769 455.539 334.342 455.416 333.98 455.181C333.628 454.947 333.356 454.611 333.164 454.173C332.588 455.08 331.878 455.539 331.036 455.549H330.956C330.497 455.549 330.097 455.427 329.756 455.181C329.414 454.936 329.174 454.611 329.036 454.205C328.694 454.643 328.3 454.979 327.852 455.213C327.414 455.437 326.945 455.549 326.444 455.549H326.396L326.268 454.365L326.396 453.165H326.476C326.806 453.165 327.132 453.096 327.452 452.957C327.772 452.808 328.012 452.627 328.172 452.413C328.396 452.157 328.566 451.869 328.684 451.549C328.801 451.229 328.908 450.888 329.004 450.525L330.668 450.701C330.657 450.755 330.598 450.968 330.492 451.341C330.385 451.704 330.332 452.035 330.332 452.333C330.332 452.888 330.556 453.165 331.004 453.165H331.052C331.596 453.165 332.017 452.872 332.316 452.285C332.518 451.88 332.7 451.256 332.86 450.413L334.508 450.493C334.39 451.197 334.332 451.699 334.332 451.997C334.332 452.776 334.657 453.165 335.308 453.165C335.617 453.165 335.862 453.075 336.044 452.893C336.225 452.712 336.316 452.477 336.316 452.189C336.316 451.901 336.204 451.443 335.98 450.813C335.766 450.184 335.585 449.704 335.436 449.373L337.068 448.477C337.27 448.893 337.484 449.491 337.708 450.269C337.932 451.037 338.044 451.709 338.044 452.285C338.044 452.872 337.926 453.416 337.692 453.917C337.468 454.408 337.148 454.803 336.732 455.101C336.326 455.4 335.862 455.549 335.34 455.549H335.308H335.26ZM332.108 445.597L333.388 446.861L332.108 448.157C332.012 448.04 331.692 447.715 331.148 447.181C331.148 447.181 331.041 447.075 330.828 446.861L332.108 445.597ZM333.612 443.853L334.732 444.973L333.612 446.109C333.612 446.109 333.361 445.859 332.86 445.357L332.476 444.973L333.612 443.853ZM335.132 445.597L336.396 446.861C336.396 446.861 336.225 447.032 335.884 447.373L335.132 448.157C335.132 448.157 334.844 447.869 334.268 447.293L333.836 446.861L335.132 445.597Z" fill="#7B7B7B"/>
<rect x="21.5" y="466.19" width="317" height="33.3099" rx="7.5" fill="#FCFDFE" stroke="#F0F1F7"/>
<path d="M146.567 488.859C145.607 488.859 144.844 488.507 144.279 487.803C143.884 488.123 143.441 488.39 142.951 488.603C142.471 488.816 141.9 488.923 141.239 488.923C140.513 488.923 139.889 488.811 139.367 488.587C138.844 488.363 138.364 488.091 137.927 487.771L138.551 486.715C138.967 486.96 139.367 487.163 139.751 487.323C140.135 487.472 140.593 487.547 141.127 487.547C142.033 487.547 142.876 487.286 143.655 486.763L143.623 486.683L141.383 481.451L142.535 480.843L144.727 486.027C144.94 486.55 145.18 486.912 145.447 487.115C145.724 487.318 146.097 487.419 146.567 487.419H146.743L146.823 488.139L146.743 488.859H146.567ZM146.585 487.419H146.729C147.551 487.419 148.191 487.387 148.649 487.323C149.108 487.248 149.444 487.136 149.657 486.987C149.871 486.838 150.025 486.635 150.121 486.379C150.185 486.187 150.217 485.958 150.217 485.691C150.217 485.35 150.153 484.763 150.025 483.931L151.209 483.707C151.337 484.379 151.407 485.232 151.417 486.267C151.567 487.035 152.052 487.419 152.873 487.419H152.985L153.065 488.139L152.985 488.859H152.873C152.425 488.859 152.02 488.747 151.657 488.523C151.295 488.288 151.012 487.979 150.809 487.595C150.553 488.064 150.116 488.395 149.497 488.587C148.879 488.768 147.956 488.859 146.729 488.859H146.585V487.419ZM149.737 492.587L148.601 491.451L149.737 490.315L150.873 491.451L149.737 492.587ZM146.873 490.315L148.009 491.451L146.873 492.587L145.737 491.451L146.873 490.315ZM152.82 487.419H152.948C153.716 487.419 154.302 487.339 154.708 487.179C155.113 487.008 155.385 486.742 155.524 486.379C155.577 486.23 155.604 486.022 155.604 485.755C155.604 485.488 155.561 485.035 155.476 484.395L155.412 483.931L156.58 483.707C156.718 484.379 156.788 485.232 156.788 486.267C156.862 486.64 157.028 486.928 157.284 487.131C157.54 487.323 157.86 487.419 158.244 487.419H158.372L158.452 488.139L158.372 488.859H158.244C157.796 488.859 157.39 488.747 157.028 488.523C156.665 488.288 156.382 487.979 156.18 487.595C155.945 488.054 155.561 488.379 155.028 488.571C154.505 488.763 153.812 488.859 152.948 488.859H152.82V487.419ZM154.884 480.123L156.02 481.259L154.884 482.395L153.748 481.259L154.884 480.123ZM158.21 487.419H158.61C161.16 487.419 162.434 486.891 162.434 485.835C162.434 485.291 162.13 484.624 161.522 483.835C160.925 483.046 160.088 482.214 159.01 481.339L159.186 479.979L165.026 477.451L165.442 478.635L160.434 480.811C161.288 481.536 162.04 482.374 162.69 483.323C163.352 484.262 163.682 485.136 163.682 485.947C163.682 486.224 163.634 486.491 163.538 486.747C163.282 487.462 162.733 487.995 161.89 488.347C161.048 488.688 159.954 488.859 158.61 488.859H158.21V487.419ZM173.511 488.907C172.668 488.907 171.948 488.795 171.351 488.571C170.753 488.336 170.279 488.07 169.927 487.771L170.551 486.715C170.593 486.736 170.748 486.827 171.015 486.987C171.292 487.136 171.639 487.264 172.055 487.371C172.481 487.478 172.929 487.531 173.399 487.531C173.975 487.531 174.444 487.451 174.807 487.291C175.18 487.12 175.42 486.934 175.527 486.731C175.58 486.603 175.607 486.47 175.607 486.331C175.607 485.83 175.329 485.211 174.775 484.475C174.231 483.728 173.399 482.944 172.279 482.123L172.999 480.875C174.183 481.771 175.105 482.699 175.767 483.659C176.439 484.608 176.775 485.499 176.775 486.331C176.775 486.715 176.705 487.062 176.567 487.371C176.353 487.862 175.969 488.24 175.415 488.507C174.86 488.774 174.225 488.907 173.511 488.907ZM176.306 492.203C176.989 491.968 177.607 491.659 178.162 491.275C178.717 490.891 179.149 490.48 179.458 490.043C179.778 489.606 179.938 489.195 179.938 488.811C179.938 488.267 179.666 486.934 179.122 484.811L180.354 484.347C180.589 485.104 180.781 485.904 180.93 486.747C181.09 487.59 181.17 488.278 181.17 488.811C181.17 489.44 180.983 490.054 180.61 490.651C180.237 491.259 179.719 491.803 179.058 492.283C178.407 492.774 177.671 493.163 176.85 493.451L176.306 492.203ZM183.102 488.763C183.177 488.123 183.214 487.04 183.214 485.515C183.214 484.064 183.182 482.566 183.118 481.019C183.065 479.462 183.001 478.454 182.926 477.995L184.206 477.723C184.27 478.214 184.334 479.286 184.398 480.939C184.473 482.582 184.51 484.144 184.51 485.627C184.51 487.12 184.473 488.219 184.398 488.923L183.102 488.763ZM186.114 492.171C187.661 491.83 188.839 491.382 189.65 490.827C190.471 490.283 190.951 489.606 191.09 488.795C190.749 488.87 190.338 488.907 189.858 488.907C189.165 488.907 188.535 488.8 187.97 488.587C187.405 488.363 186.999 488.011 186.754 487.531C186.583 487.19 186.498 486.79 186.498 486.331C186.498 485.776 186.615 485.222 186.85 484.667C187.095 484.112 187.415 483.654 187.81 483.291C188.215 482.928 188.647 482.747 189.106 482.747C189.735 482.747 190.29 483.024 190.77 483.579C191.25 484.134 191.618 484.832 191.874 485.675C192.13 486.507 192.258 487.328 192.258 488.139C192.258 489.462 191.751 490.587 190.738 491.515C189.735 492.443 188.333 493.088 186.53 493.451L186.114 492.171ZM187.778 486.731C187.938 486.987 188.221 487.179 188.626 487.307C189.042 487.435 189.517 487.499 190.05 487.499C190.359 487.499 190.701 487.472 191.074 487.419C190.967 486.555 190.738 485.803 190.386 485.163C190.045 484.523 189.607 484.187 189.074 484.155C188.839 484.144 188.61 484.24 188.386 484.443C188.162 484.646 187.981 484.907 187.842 485.227C187.703 485.547 187.634 485.851 187.634 486.139C187.634 486.374 187.682 486.571 187.778 486.731ZM198.993 488.763C199.067 488.123 199.105 487.04 199.105 485.515C199.105 484.064 199.073 482.566 199.009 481.019C198.955 479.462 198.891 478.454 198.817 477.995L200.097 477.723C200.161 478.214 200.225 479.286 200.289 480.939C200.363 482.582 200.401 484.144 200.401 485.627C200.401 487.12 200.363 488.219 200.289 488.923L198.993 488.763ZM200.4 492.203C201.082 491.968 201.701 491.659 202.256 491.275C202.81 490.891 203.242 490.48 203.552 490.043C203.872 489.606 204.032 489.195 204.032 488.811C204.032 488.267 203.76 486.934 203.216 484.811L204.448 484.347C204.682 485.104 204.874 485.904 205.024 486.747C205.184 487.59 205.264 488.278 205.264 488.811C205.264 489.44 205.077 490.054 204.704 490.651C204.33 491.259 203.813 491.803 203.152 492.283C202.501 492.774 201.765 493.163 200.944 493.451L200.4 492.203ZM214.761 488.907C213.918 488.907 213.198 488.795 212.601 488.571C212.003 488.336 211.529 488.07 211.177 487.771L211.801 486.715C211.843 486.736 211.998 486.827 212.265 486.987C212.542 487.136 212.889 487.264 213.305 487.371C213.731 487.478 214.179 487.531 214.649 487.531C215.225 487.531 215.694 487.451 216.057 487.291C216.43 487.12 216.67 486.934 216.777 486.731C216.83 486.603 216.857 486.47 216.857 486.331C216.857 485.83 216.579 485.211 216.025 484.475C215.481 483.728 214.649 482.944 213.529 482.123L214.249 480.875C215.433 481.771 216.355 482.699 217.017 483.659C217.689 484.608 218.025 485.499 218.025 486.331C218.025 486.715 217.955 487.062 217.817 487.371C217.603 487.862 217.219 488.24 216.665 488.507C216.11 488.774 215.475 488.907 214.761 488.907ZM219.161 492.171C220.676 491.84 221.838 491.403 222.649 490.859C223.47 490.326 223.961 489.664 224.121 488.875C222.969 488.886 222.03 488.806 221.305 488.635C220.58 488.454 220.078 488.086 219.801 487.531C219.63 487.19 219.545 486.79 219.545 486.331C219.545 485.776 219.662 485.222 219.897 484.667C220.142 484.112 220.462 483.654 220.857 483.291C221.262 482.928 221.694 482.747 222.153 482.747C222.729 482.747 223.236 482.976 223.673 483.435C224.121 483.894 224.478 484.48 224.745 485.195C225.022 485.91 225.198 486.651 225.273 487.419H225.865L225.945 488.139L225.865 488.859H225.257C225.076 490.011 224.489 490.982 223.497 491.771C222.516 492.56 221.209 493.12 219.577 493.451L219.161 492.171ZM220.825 486.731C220.996 486.998 221.369 487.179 221.945 487.275C222.532 487.371 223.262 487.419 224.137 487.419C224.03 486.555 223.801 485.803 223.449 485.163C223.097 484.523 222.654 484.187 222.121 484.155C221.886 484.144 221.657 484.24 221.433 484.443C221.209 484.646 221.028 484.907 220.889 485.227C220.75 485.547 220.681 485.851 220.681 486.139C220.681 486.374 220.729 486.571 220.825 486.731ZM225.648 487.419H227.12C228.453 487.419 229.696 487.259 230.848 486.939C232.01 486.608 233.173 486.134 234.336 485.515C234.56 485.387 234.784 485.275 235.008 485.179C234.346 485.062 233.632 484.811 232.864 484.427C232.352 484.16 231.893 483.958 231.488 483.819C231.082 483.68 230.682 483.611 230.288 483.611C229.84 483.611 229.434 483.744 229.072 484.011C228.709 484.278 228.437 484.592 228.256 484.955L227.392 484.363C227.733 483.67 228.154 483.147 228.656 482.795C229.157 482.432 229.717 482.251 230.336 482.251C230.784 482.251 231.2 482.326 231.584 482.475C231.978 482.624 232.56 482.891 233.328 483.275C234.042 483.638 234.602 483.91 235.008 484.091C235.424 484.262 235.893 484.4 236.416 484.507L236.464 485.771C236.25 485.835 236.026 485.92 235.792 486.027C235.568 486.134 235.242 486.304 234.816 486.539C233.376 487.296 232.069 487.872 230.896 488.267C229.733 488.662 228.474 488.859 227.12 488.859H225.648V487.419ZM230.208 478.635L231.344 479.771L230.208 480.907L229.072 479.771L230.208 478.635ZM253.04 488.859C252.41 488.859 251.888 488.64 251.472 488.203C251.408 489.686 250.97 490.832 250.16 491.643C249.349 492.464 248.229 492.875 246.8 492.875C245.978 492.875 245.232 492.704 244.56 492.363C243.898 492.032 243.37 491.563 242.976 490.955C242.592 490.347 242.4 489.643 242.4 488.843C242.4 488.278 242.501 487.643 242.704 486.939C242.906 486.235 243.152 485.59 243.44 485.003L244.528 485.531C243.941 486.726 243.648 487.766 243.648 488.651C243.648 489.483 243.93 490.155 244.496 490.667C245.072 491.179 245.84 491.435 246.8 491.435C248.005 491.435 248.89 491.11 249.456 490.459C250.021 489.808 250.277 488.832 250.224 487.531C250.032 482.699 249.861 479.52 249.712 477.995L250.976 477.723C251.061 478.576 251.2 481.179 251.392 485.531C251.424 486.032 251.493 486.416 251.6 486.683C251.706 486.95 251.866 487.142 252.08 487.259C252.304 487.366 252.624 487.419 253.04 487.419H253.216L253.296 488.139L253.216 488.859H253.04ZM253.054 487.419H253.694C254.835 487.419 255.641 487.312 256.11 487.099C256.579 486.875 256.814 486.512 256.814 486.011C256.803 485.68 256.691 485.179 256.478 484.507C256.275 483.824 256.099 483.334 255.95 483.035L257.102 482.427C257.315 482.843 257.523 483.408 257.726 484.123C257.939 484.827 258.046 485.44 258.046 485.963C258.046 486.912 257.699 487.632 257.006 488.123C256.313 488.614 255.267 488.859 253.87 488.859H253.054V487.419ZM256.094 492.619L254.958 491.483L256.094 490.347L257.23 491.483L256.094 492.619ZM253.23 490.347L254.366 491.483L253.23 492.619L252.094 491.483L253.23 490.347ZM263.049 488.859C262.291 488.859 261.699 488.736 261.273 488.491C260.846 488.235 260.542 487.856 260.361 487.355C260.19 486.854 260.105 486.192 260.105 485.371C260.105 484.155 260.078 482.779 260.025 481.243C259.982 479.696 259.913 478.614 259.817 477.995L261.097 477.723C261.182 478.267 261.246 479.222 261.289 480.587C261.342 481.942 261.369 483.174 261.369 484.283V484.955L261.353 485.515C261.353 486.016 261.395 486.4 261.481 486.667C261.566 486.923 261.726 487.115 261.961 487.243C262.206 487.36 262.569 487.419 263.049 487.419H263.129L263.209 488.139L263.129 488.859H263.049ZM262.976 487.419H263.808C264.661 487.419 265.275 487.307 265.648 487.083C266.032 486.859 266.224 486.512 266.224 486.043C266.224 485.712 266.117 485.206 265.904 484.523C265.691 483.84 265.515 483.344 265.376 483.035L266.528 482.427C266.731 482.875 266.939 483.467 267.152 484.203C267.365 484.928 267.472 485.547 267.472 486.059C267.461 486.976 267.141 487.675 266.512 488.155C265.883 488.624 264.981 488.859 263.808 488.859H262.976V487.419ZM264.176 490.363L265.312 491.499L264.176 492.635L263.04 491.499L264.176 490.363ZM268.614 492.171C270.129 491.84 271.291 491.403 272.102 490.859C272.923 490.326 273.414 489.664 273.574 488.875C272.422 488.886 271.483 488.806 270.758 488.635C270.033 488.454 269.531 488.086 269.254 487.531C269.083 487.19 268.998 486.79 268.998 486.331C268.998 485.776 269.115 485.222 269.35 484.667C269.595 484.112 269.915 483.654 270.31 483.291C270.715 482.928 271.147 482.747 271.606 482.747C272.182 482.747 272.689 482.976 273.126 483.435C273.574 483.894 273.931 484.48 274.198 485.195C274.475 485.91 274.651 486.651 274.726 487.419H275.318L275.398 488.139L275.318 488.859H274.71C274.529 490.011 273.942 490.982 272.95 491.771C271.969 492.56 270.662 493.12 269.03 493.451L268.614 492.171ZM270.278 486.731C270.449 486.998 270.822 487.179 271.398 487.275C271.985 487.371 272.715 487.419 273.59 487.419C273.483 486.555 273.254 485.803 272.902 485.163C272.55 484.523 272.107 484.187 271.574 484.155C271.339 484.144 271.11 484.24 270.886 484.443C270.662 484.646 270.481 484.907 270.342 485.227C270.203 485.547 270.134 485.851 270.134 486.139C270.134 486.374 270.182 486.571 270.278 486.731ZM275.133 487.419H275.437C275.874 487.419 276.274 487.296 276.637 487.051C277.01 486.795 277.319 486.422 277.565 485.931C278.013 485.024 278.477 484.299 278.957 483.755C279.437 483.211 279.965 482.923 280.541 482.891C281.074 482.859 281.543 483.003 281.949 483.323C282.365 483.632 282.679 484.048 282.893 484.571C283.117 485.083 283.229 485.622 283.229 486.187C283.229 486.752 283.117 487.27 282.893 487.739C282.669 488.198 282.338 488.544 281.901 488.779C281.687 488.886 281.463 488.939 281.229 488.939C280.471 488.939 279.383 488.486 277.965 487.579C277.303 488.432 276.45 488.859 275.405 488.859H275.117L275.133 487.419ZM278.621 486.443C279.837 487.2 280.706 487.579 281.229 487.579C281.357 487.579 281.447 487.558 281.501 487.515C281.693 487.419 281.837 487.259 281.933 487.035C282.029 486.811 282.077 486.555 282.077 486.267C282.077 485.744 281.943 485.27 281.677 484.843C281.421 484.416 281.079 484.203 280.653 484.203C280.354 484.203 280.039 484.395 279.709 484.779C279.378 485.152 279.015 485.707 278.621 486.443ZM292.106 488.907C291.53 488.907 291.028 488.795 290.602 488.571C290.186 488.336 289.866 488.022 289.642 487.627C289.418 487.232 289.306 486.795 289.306 486.315C289.306 486.07 289.338 485.819 289.402 485.563C289.647 484.614 290.196 483.686 291.05 482.779L290.474 482.427L291.194 481.275C292.527 482.054 293.514 482.827 294.154 483.595C294.794 484.363 295.114 485.179 295.114 486.043C295.114 486.598 294.98 487.094 294.714 487.531C294.447 487.968 294.084 488.31 293.626 488.555C293.167 488.79 292.66 488.907 292.106 488.907ZM290.522 486.123C290.522 486.539 290.66 486.87 290.938 487.115C291.215 487.36 291.62 487.483 292.154 487.483C292.655 487.483 293.071 487.371 293.402 487.147C293.732 486.923 293.903 486.624 293.914 486.251C293.935 485.782 293.796 485.328 293.498 484.891C293.199 484.443 292.719 483.974 292.058 483.483C291.034 484.39 290.522 485.27 290.522 486.123ZM294.447 492.203C295.129 491.968 295.748 491.659 296.303 491.275C296.857 490.891 297.289 490.48 297.599 490.043C297.919 489.606 298.079 489.195 298.079 488.811C298.079 488.267 297.807 486.934 297.263 484.811L298.495 484.347C298.729 485.104 298.921 485.904 299.071 486.747C299.231 487.59 299.311 488.278 299.311 488.811C299.311 489.44 299.124 490.054 298.751 490.651C298.377 491.259 297.86 491.803 297.199 492.283C296.548 492.774 295.812 493.163 294.991 493.451L294.447 492.203ZM304.299 488.859C303.541 488.859 302.949 488.736 302.523 488.491C302.096 488.235 301.792 487.856 301.611 487.355C301.44 486.854 301.355 486.192 301.355 485.371C301.355 484.155 301.328 482.779 301.275 481.243C301.232 479.696 301.163 478.614 301.067 477.995L302.347 477.723C302.432 478.267 302.496 479.222 302.539 480.587C302.592 481.942 302.619 483.174 302.619 484.283V484.955L302.603 485.515C302.603 486.016 302.645 486.4 302.731 486.667C302.816 486.923 302.976 487.115 303.211 487.243C303.456 487.36 303.819 487.419 304.299 487.419H304.379L304.459 488.139L304.379 488.859H304.299ZM304.226 487.419H304.546C305.442 487.419 306.151 486.923 306.674 485.931C307.197 484.971 307.682 484.235 308.13 483.723C308.578 483.2 309.085 482.923 309.65 482.891C310.877 482.827 311.709 483.67 312.146 485.419C312.317 486.134 312.498 486.646 312.69 486.955C312.882 487.264 313.149 487.419 313.49 487.419H313.634L313.714 488.139L313.634 488.859H313.49C312.701 488.859 312.189 488.422 311.954 487.547C311.922 487.803 311.81 488.043 311.618 488.267C311.437 488.491 311.234 488.662 311.01 488.779C310.829 488.886 310.605 488.939 310.338 488.939C309.57 488.939 308.487 488.486 307.09 487.579C306.77 487.995 306.386 488.315 305.938 488.539C305.501 488.752 305.026 488.859 304.514 488.859H304.226V487.419ZM307.73 486.427C308.327 486.843 308.877 487.158 309.378 487.371C309.89 487.574 310.295 487.675 310.594 487.675C310.701 487.675 310.786 487.659 310.85 487.627C311.085 487.403 311.202 487.04 311.202 486.539C311.202 486.187 311.138 485.83 311.01 485.467C310.893 485.104 310.722 484.806 310.498 484.571C310.285 484.326 310.039 484.203 309.762 484.203C309.442 484.203 309.111 484.4 308.77 484.795C308.439 485.19 308.093 485.734 307.73 486.427ZM322.404 488.859C321.86 488.848 321.412 488.699 321.06 488.411C320.719 488.123 320.484 487.712 320.356 487.179C320.111 487.67 319.791 488.07 319.396 488.379C319.012 488.688 318.591 488.848 318.132 488.859H318.084C317.593 488.859 317.183 488.715 316.852 488.427C316.532 488.128 316.34 487.728 316.276 487.227C315.945 487.76 315.551 488.166 315.092 488.443C314.633 488.72 314.127 488.859 313.572 488.859H313.508L313.428 488.139L313.508 487.419H313.588C313.983 487.419 314.356 487.328 314.708 487.147C315.06 486.966 315.332 486.726 315.524 486.427C315.727 486.139 315.881 485.835 315.988 485.515C316.105 485.195 316.223 484.816 316.34 484.379L317.54 484.507C317.519 484.571 317.476 484.731 317.412 484.987C317.348 485.243 317.295 485.483 317.252 485.707C317.22 485.931 317.204 486.134 317.204 486.315C317.204 487.051 317.503 487.419 318.1 487.419H318.132C318.729 487.419 319.241 487.046 319.668 486.299C319.807 486.043 319.913 485.739 319.988 485.387C320.073 485.035 320.153 484.646 320.228 484.219L321.412 484.283C321.401 484.326 321.364 484.523 321.3 484.875C321.236 485.227 321.204 485.568 321.204 485.899C321.204 486.411 321.3 486.795 321.492 487.051C321.695 487.296 322.009 487.419 322.436 487.419C323.236 487.419 323.636 486.976 323.636 486.091C323.636 485.728 323.529 485.222 323.316 484.571C323.113 483.91 322.932 483.408 322.772 483.067L323.908 482.443C324.121 482.891 324.335 483.478 324.548 484.203C324.761 484.918 324.868 485.547 324.868 486.091C324.868 486.603 324.767 487.072 324.564 487.499C324.361 487.915 324.073 488.246 323.7 488.491C323.337 488.736 322.927 488.859 322.468 488.859H322.436H322.404ZM319.38 479.739L320.468 480.811L319.38 481.899L318.308 480.811L319.38 479.739ZM320.852 478.107L321.812 479.067L320.852 480.043L319.876 479.067L320.852 478.107ZM322.324 479.739L323.396 480.811L322.324 481.899L321.236 480.811L322.324 479.739Z" fill="#7B7B7B"/>
<path d="M79.7827 352.308C133.571 379.808 220.781 379.808 274.563 352.308C328.346 324.808 328.352 280.194 274.563 252.724C220.775 225.254 133.571 225.224 79.7827 252.724C25.9941 280.224 26.0002 324.814 79.7827 352.308Z" fill="#F5F5F5"/>
<path d="M255.692 308.379C258.644 310.082 264.437 309.494 268.63 307.07L292.822 293.017C297.022 290.593 298.028 287.248 295.076 285.539C292.125 283.83 286.338 284.436 282.138 286.86L257.959 300.925C253.759 303.331 252.747 306.676 255.692 308.379Z" fill="#EBEBEB"/>
<path d="M109.998 321.341L85.3821 307.131L109.998 292.92V321.341Z" fill="#EBEBEB"/>
<path d="M179.573 329.844L139.898 306.925L179.579 284.048L179.573 329.844Z" fill="#EBEBEB"/>
<path d="M76.6982 288.114C76.7709 282.357 72.747 270.377 66.8628 262.832C60.9785 255.287 51.634 249.706 44.968 251.906C38.7262 253.96 39.3019 262.117 46.786 267.613C54.2701 273.11 65.5114 280.03 68.7171 289.429L75.5346 300.943L76.6982 288.114Z" fill="#4822CC"/>
<path opacity="0.1" d="M76.6982 288.114C76.7709 282.357 72.747 270.377 66.8628 262.832C60.9785 255.287 51.634 249.706 44.968 251.906C38.7262 253.96 39.3019 262.117 46.786 267.613C54.2701 273.11 65.5114 280.03 68.7171 289.429L75.5346 300.943L76.6982 288.114Z" fill="black"/>
<path d="M77.0315 295.998C76.9395 295.99 76.8528 295.952 76.7848 295.89C76.7168 295.827 76.6714 295.744 76.6557 295.653C73.0197 275.952 57.3243 259.784 47.8526 256.142C47.7953 256.126 47.742 256.099 47.696 256.061C47.65 256.024 47.6124 255.977 47.5856 255.924C47.5588 255.871 47.5434 255.813 47.5404 255.754C47.5374 255.695 47.5469 255.636 47.5681 255.58C47.5894 255.525 47.6221 255.475 47.664 255.433C47.706 255.391 47.7563 255.358 47.8116 255.337C47.867 255.315 47.9262 255.306 47.9854 255.309C48.0447 255.312 48.1026 255.327 48.1556 255.354C57.8091 259.069 73.8075 275.504 77.4799 295.502C77.4904 295.556 77.4902 295.611 77.4791 295.665C77.468 295.719 77.4464 295.771 77.4154 295.816C77.3844 295.862 77.3447 295.901 77.2986 295.931C77.2525 295.961 77.2008 295.982 77.1466 295.992L77.0315 295.998Z" fill="white"/>
<path d="M73.9469 308.543C73.0622 305.295 69.1716 299.907 62.8329 295.417C55.8154 290.454 46.8951 288.102 44.8771 284.278C42.4531 279.685 46.3497 275.419 53.6035 276.4C60.8573 277.382 73.5106 287.466 75.3771 302.41L73.9469 308.543Z" fill="#4822CC"/>
<path d="M75.3953 305.161C75.3143 305.154 75.237 305.125 75.1726 305.075C75.1081 305.026 75.0592 304.959 75.0317 304.882C69.208 287.969 56.4335 281.903 50.4947 281.061C50.3846 281.045 50.2851 280.987 50.2181 280.898C50.151 280.81 50.1219 280.698 50.1372 280.588C50.1525 280.478 50.2108 280.378 50.2995 280.311C50.3881 280.244 50.4998 280.215 50.6099 280.23C57.1789 281.164 69.8867 287.345 75.8316 304.604C75.8667 304.71 75.8592 304.825 75.8106 304.926C75.7619 305.027 75.676 305.105 75.571 305.143C75.5142 305.161 75.4545 305.167 75.3953 305.161Z" fill="white"/>
<path d="M291.568 271.71C291.568 271.71 292.374 259.59 299.524 250.561C306.675 241.531 306.239 237.835 301.306 236.017C296.373 234.199 284.944 245.076 287.465 259.59C289.986 274.104 291.568 271.71 291.568 271.71Z" fill="#4822CC"/>
<path opacity="0.1" d="M291.568 271.71C291.568 271.71 292.374 259.59 299.524 250.561C306.675 241.531 306.239 237.835 301.306 236.017C296.373 234.199 284.944 245.076 287.465 259.59C289.986 274.104 291.568 271.71 291.568 271.71Z" fill="black"/>
<path d="M289.38 264.789C289.308 264.79 289.239 264.763 289.187 264.715C289.134 264.666 289.101 264.6 289.095 264.529C288.265 251.161 297.7 240.192 301.215 237.707C301.245 237.685 301.278 237.67 301.314 237.661C301.35 237.653 301.387 237.652 301.423 237.658C301.459 237.664 301.494 237.678 301.525 237.698C301.556 237.718 301.582 237.744 301.603 237.774C301.646 237.835 301.663 237.911 301.65 237.985C301.638 238.058 301.597 238.124 301.536 238.168C298.07 240.592 288.81 251.36 289.634 264.493C289.638 264.566 289.613 264.638 289.564 264.693C289.515 264.749 289.447 264.783 289.374 264.789H289.38Z" fill="white"/>
<path d="M289.622 281.745C292.843 282.798 296.142 283.592 299.488 284.121C305.027 284.994 307.475 282.345 307.475 282.345C307.475 282.345 305.293 277.152 302.148 275.679C305.551 276.444 308.801 277.778 311.759 279.624C311.759 279.624 315.141 279.679 316.486 274.516C316.486 274.516 314.486 271.407 307.76 269.728C307.76 269.728 311.85 268.698 317.747 270.201C318.189 270.377 320.074 263.705 320.643 260.626C321.213 257.548 319.977 257.596 317.577 256.936C315.177 256.275 307.221 254.512 305.718 255.827C304.215 257.142 303.451 261.663 303.451 261.663C302.856 259.812 302.778 257.833 303.227 255.942C303.227 255.942 301.07 255.1 297.712 256.075C294.973 256.869 294.84 258.736 294.961 260.844C295.123 262.676 295.531 264.478 296.173 266.201C296.173 266.201 294.034 263.462 293.967 257.517C293.967 257.517 288.356 260.305 287.398 265.88C286.841 268.904 286.101 277.77 289.622 281.745Z" fill="#4822CC"/>
<path d="M290.677 280.667C290.736 280.666 290.794 280.65 290.844 280.619C290.894 280.588 290.935 280.544 290.962 280.491C295.428 271.201 312.05 260.408 318.001 259.251C318.042 259.243 318.08 259.228 318.115 259.206C318.149 259.184 318.179 259.155 318.202 259.121C318.225 259.087 318.241 259.049 318.249 259.009C318.257 258.969 318.258 258.927 318.25 258.887C318.232 258.806 318.184 258.735 318.115 258.688C318.046 258.642 317.962 258.624 317.88 258.639C311.82 259.82 294.937 270.759 290.398 280.218C290.362 280.293 290.358 280.379 290.385 280.457C290.412 280.535 290.469 280.6 290.543 280.636C290.586 280.655 290.631 280.665 290.677 280.667Z" fill="white"/>
<path d="M74.5287 312.833C73.8439 312.833 73.4318 312.27 73.4318 311.318V209.383L198.286 137.311V238.834C198.243 239.682 198.001 240.508 197.58 241.245C197.159 241.981 196.57 242.609 195.862 243.076L75.5225 312.524C75.224 312.712 74.8813 312.819 74.5287 312.833Z" fill="#FAFAFA"/>
<path d="M197.91 137.923V238.835C197.86 239.621 197.628 240.385 197.234 241.067C196.84 241.749 196.294 242.331 195.638 242.767L75.3468 312.215C75.1019 312.373 74.8199 312.465 74.5287 312.482C73.856 312.482 73.7833 311.664 73.7833 311.318V209.589L197.91 137.923ZM198.619 136.711L73.0743 209.177V311.318C73.0743 312.53 73.6803 313.191 74.5287 313.191C74.9431 313.176 75.3463 313.052 75.6983 312.833L195.995 243.38C196.759 242.881 197.394 242.21 197.85 241.42C198.306 240.631 198.57 239.745 198.619 238.835V136.693V136.711Z" fill="#E0E0E0"/>
<path d="M73.0803 209.177V226.236L198.619 153.752V136.693L73.0803 209.177Z" fill="#4822CC"/>
<path d="M82.9218 210.086V212.51C82.9218 213.007 83.2793 213.213 83.7096 212.964L122.306 190.682V186.44L83.7096 208.722C83.4816 208.873 83.2917 209.075 83.155 209.311C83.0183 209.548 82.9385 209.813 82.9218 210.086Z" fill="#FAFAFA"/>
<path d="M126.445 184.052C126.881 183.798 127.233 184.004 127.233 184.507V186.931C127.217 187.204 127.137 187.469 127 187.706C126.864 187.943 126.673 188.144 126.445 188.294L122.306 190.682V186.44L126.445 184.052Z" fill="#455A64"/>
<path d="M73.0743 203.68C73.124 202.77 73.3875 201.884 73.8434 201.095C74.2993 200.305 74.9347 199.634 75.6983 199.135L195.995 129.682C197.444 128.845 198.619 129.524 198.619 131.197V136.693L73.0743 209.177V203.68Z" fill="#455A64"/>
<path d="M184.663 139.081C184.308 139.315 184.014 139.63 183.803 140C183.593 140.369 183.472 140.783 183.451 141.208C183.451 141.996 184.003 142.311 184.663 141.923C185.018 141.687 185.313 141.371 185.523 141.001C185.734 140.63 185.854 140.215 185.875 139.79C185.899 138.996 185.348 138.687 184.663 139.081Z" fill="#4822CC"/>
<path d="M188.59 136.827C188.235 137.061 187.941 137.376 187.73 137.745C187.519 138.115 187.399 138.529 187.378 138.954C187.378 139.741 187.929 140.056 188.59 139.669C188.944 139.432 189.238 139.116 189.449 138.746C189.659 138.375 189.78 137.961 189.802 137.536C189.802 136.748 189.244 136.433 188.59 136.827Z" fill="#4822CC"/>
<path d="M192.462 134.572C192.108 134.807 191.813 135.121 191.602 135.491C191.392 135.861 191.271 136.274 191.25 136.699C191.25 137.487 191.802 137.802 192.462 137.414C192.817 137.178 193.111 136.862 193.321 136.491C193.532 136.121 193.653 135.707 193.674 135.281C193.693 134.493 193.141 134.178 192.462 134.572Z" fill="#4822CC"/>
<g opacity="0.1">
<path d="M159.229 164.854C158.447 165.366 157.796 166.055 157.329 166.866C156.863 167.677 156.594 168.586 156.545 169.52C156.545 171.235 157.757 171.944 159.229 171.072C160.013 170.561 160.665 169.874 161.133 169.064C161.6 168.254 161.87 167.345 161.92 166.411C161.926 164.696 160.714 164 159.229 164.854Z" fill="black"/>
<path d="M146.927 171.962C146.144 172.472 145.492 173.16 145.024 173.97C144.557 174.78 144.287 175.689 144.237 176.623C144.237 178.338 145.449 179.047 146.927 178.18C147.71 177.668 148.361 176.979 148.828 176.168C149.294 175.357 149.563 174.448 149.612 173.514C149.612 171.799 148.412 171.114 146.927 171.962Z" fill="black"/>
<path d="M171.537 157.782C170.755 158.293 170.104 158.981 169.637 159.791C169.171 160.601 168.902 161.509 168.853 162.442C168.853 164.157 170.065 164.866 171.537 163.993C172.321 163.484 172.974 162.796 173.441 161.986C173.909 161.176 174.178 160.267 174.228 159.333C174.228 157.588 173.028 156.891 171.537 157.782Z" fill="black"/>
<path d="M183.851 150.631C183.067 151.141 182.415 151.829 181.948 152.639C181.48 153.449 181.21 154.358 181.16 155.291C181.16 157.006 182.372 157.715 183.851 156.843C184.635 156.333 185.287 155.645 185.754 154.835C186.222 154.025 186.492 153.116 186.542 152.183C186.542 150.468 185.336 149.771 183.851 150.631Z" fill="black"/>
</g>
<path d="M85.57 227.563L114.785 210.692C116.234 209.856 117.409 210.534 117.409 212.207V240.259C117.359 241.169 117.096 242.055 116.64 242.845C116.184 243.634 115.549 244.305 114.785 244.804L85.57 261.669C84.1217 262.505 82.946 261.826 82.946 260.154V232.108C82.9958 231.197 83.2593 230.312 83.7151 229.522C84.171 228.732 84.8064 228.061 85.57 227.563Z" fill="#E0E0E0"/>
<path d="M127.384 203.402L188.59 168.084C190.038 167.242 191.214 167.92 191.214 169.599V197.645C191.164 198.555 190.901 199.441 190.445 200.231C189.989 201.02 189.354 201.691 188.59 202.19L127.384 237.507C125.936 238.344 124.76 237.665 124.76 235.992V207.947C124.81 207.036 125.073 206.15 125.529 205.361C125.985 204.571 126.62 203.9 127.384 203.402Z" fill="#E0E0E0"/>
<path d="M85.57 270.195L132.014 243.379C133.468 242.543 134.644 243.137 134.644 244.707C134.579 245.588 134.308 246.441 133.852 247.198C133.396 247.955 132.769 248.594 132.02 249.064L85.57 275.879C84.1217 276.716 82.946 276.122 82.946 274.552C83.0108 273.671 83.2821 272.817 83.7379 272.06C84.1938 271.303 84.8214 270.664 85.57 270.195Z" fill="#E0E0E0"/>
<path d="M85.57 280.146L132.014 253.33C133.468 252.494 134.644 253.088 134.644 254.657C134.579 255.538 134.308 256.392 133.852 257.149C133.396 257.906 132.769 258.545 132.02 259.014L85.57 285.83C84.1217 286.666 82.946 286.072 82.946 284.503C83.0108 283.621 83.2821 282.768 83.7379 282.011C84.1938 281.254 84.8214 280.615 85.57 280.146Z" fill="#E0E0E0"/>
<path d="M85.57 290.09L132.014 263.274C133.468 262.438 134.644 263.032 134.644 264.602C134.579 265.483 134.308 266.336 133.852 267.093C133.396 267.85 132.769 268.489 132.02 268.959L85.57 295.774C84.1217 296.611 82.946 296.017 82.946 294.447C83.0108 293.566 83.2821 292.712 83.7379 291.955C84.1938 291.198 84.8214 290.559 85.57 290.09Z" fill="#E0E0E0"/>
<path d="M107.537 256.36C107.569 255.814 107.727 255.283 108.001 254.809C108.275 254.335 108.655 253.933 109.113 253.633L189.657 207.135C190.145 206.887 190.685 206.757 191.232 206.757C191.78 206.757 192.32 206.887 192.808 207.135L194.583 208.159C195.041 208.458 195.421 208.861 195.694 209.335C195.967 209.808 196.124 210.34 196.153 210.886V272.625C196.123 273.171 195.965 273.702 195.693 274.175C195.42 274.649 195.04 275.052 194.583 275.352L114.052 321.85C113.564 322.098 113.024 322.228 112.476 322.228C111.929 322.228 111.389 322.098 110.901 321.85L109.125 320.826C108.667 320.527 108.286 320.124 108.012 319.651C107.739 319.177 107.58 318.646 107.55 318.099L107.537 256.36Z" fill="#4822CC"/>
<path opacity="0.4" d="M107.992 254.809L112.464 257.39L195.686 209.334C195.42 208.855 195.039 208.449 194.577 208.153L192.832 207.135C192.346 206.887 191.808 206.757 191.262 206.757C190.717 206.757 190.179 206.887 189.693 207.135L109.113 253.633C108.646 253.924 108.261 254.328 107.992 254.809Z" fill="white"/>
<path opacity="0.1" d="M107.537 256.36V318.099C107.568 318.645 107.727 319.177 108 319.651C108.274 320.124 108.655 320.527 109.113 320.826L110.889 321.85C111.025 321.929 111.169 321.994 111.319 322.044C111.53 322.115 111.747 322.166 111.967 322.196C112.381 322.247 112.801 322.23 113.21 322.147C113.314 322.128 113.418 322.102 113.519 322.069L113.707 321.996C113.587 322.047 113.458 322.074 113.328 322.074C113.198 322.074 113.069 322.047 112.949 321.996C112.781 321.884 112.648 321.728 112.563 321.545C112.479 321.362 112.447 321.16 112.47 320.96V259.208C112.454 258.927 112.524 258.649 112.67 258.408C112.816 258.168 113.032 257.978 113.288 257.863L112.47 257.39L107.992 254.809C107.711 255.279 107.555 255.813 107.537 256.36Z" fill="black"/>
<path opacity="0.2" d="M112.47 257.39L149.77 271.328C151.059 271.809 152.475 271.836 153.782 271.406C155.089 270.975 156.211 270.112 156.963 268.959L162.95 259.784L195.989 209.165L164.144 260.129L196.153 272.655C196.126 273.212 195.957 273.752 195.662 274.225L164.059 260.287L157.078 271.407C156.305 272.642 155.112 273.558 153.718 273.985C152.325 274.413 150.824 274.323 149.491 273.734L144.534 271.546L112.949 322.008C112.781 321.896 112.648 321.74 112.563 321.557C112.479 321.375 112.447 321.172 112.47 320.972V319.948L144.394 271.51L112.47 257.39Z" fill="black"/>
<path d="M178.924 186.512V328.256C178.924 329.928 180.1 330.607 181.548 329.771L245.227 293.005C245.99 292.507 246.626 291.835 247.082 291.046C247.538 290.256 247.801 289.37 247.851 288.46V146.716C247.851 145.044 246.675 144.365 245.227 145.201L181.548 181.967C180.784 182.465 180.148 183.136 179.692 183.926C179.236 184.716 178.973 185.602 178.924 186.512Z" fill="#FAFAFA" stroke="#E0E0E0" stroke-width="1.16981" stroke-miterlimit="10"/>
<path d="M182.615 189.149C182.635 188.924 182.708 188.708 182.827 188.516C182.946 188.325 183.108 188.163 183.3 188.046L190.572 183.858C190.947 183.64 191.25 183.785 191.25 184.179C191.231 184.403 191.16 184.62 191.042 184.811C190.924 185.003 190.763 185.164 190.572 185.282L183.3 189.47C182.924 189.688 182.615 189.542 182.615 189.149Z" fill="#455A64"/>
<path d="M182.615 191.973C182.635 191.748 182.707 191.531 182.826 191.34C182.945 191.148 183.107 190.987 183.3 190.87L190.572 186.682C190.947 186.464 191.25 186.609 191.25 186.997C191.232 187.222 191.161 187.44 191.043 187.633C190.925 187.825 190.764 187.987 190.572 188.106L183.3 192.288C182.924 192.506 182.615 192.366 182.615 191.973Z" fill="#455A64"/>
<path d="M182.615 194.796C182.635 194.572 182.707 194.355 182.826 194.164C182.945 193.972 183.107 193.811 183.3 193.694L190.572 189.506C190.947 189.288 191.25 189.427 191.25 189.821C191.232 190.045 191.161 190.262 191.043 190.454C190.925 190.646 190.764 190.807 190.572 190.924L183.3 195.112C182.924 195.354 182.615 195.19 182.615 194.796Z" fill="#455A64"/>
<path d="M242.93 158.449V157.315C242.931 157.302 242.927 157.288 242.921 157.276C242.915 157.264 242.905 157.253 242.893 157.246C242.882 157.239 242.868 157.234 242.855 157.234C242.841 157.233 242.827 157.236 242.815 157.243L241.942 157.637C241.929 157.643 241.913 157.647 241.898 157.647C241.883 157.647 241.868 157.644 241.854 157.638C241.84 157.631 241.827 157.622 241.818 157.61C241.808 157.599 241.801 157.585 241.797 157.57C241.751 157.419 241.686 157.274 241.603 157.14C241.586 157.107 241.578 157.07 241.578 157.034C241.578 156.997 241.586 156.96 241.603 156.928L242.209 155.752C242.224 155.722 242.226 155.688 242.216 155.656C242.206 155.624 242.184 155.598 242.154 155.582L241.548 155.219C241.52 155.204 241.487 155.2 241.456 155.208C241.424 155.216 241.397 155.235 241.379 155.261L240.651 156.352C240.63 156.381 240.601 156.405 240.569 156.42C240.536 156.436 240.5 156.444 240.464 156.443C240.305 156.441 240.146 156.458 239.991 156.491C239.976 156.496 239.96 156.497 239.945 156.495C239.93 156.492 239.915 156.487 239.902 156.478C239.89 156.469 239.879 156.458 239.871 156.444C239.863 156.431 239.859 156.416 239.858 156.4L239.761 155.449C239.761 155.382 239.7 155.352 239.645 155.388L238.664 155.952C238.633 155.972 238.606 155.999 238.587 156.03C238.567 156.062 238.554 156.097 238.549 156.134L238.452 157.224C238.439 157.302 238.403 157.374 238.349 157.431C238.152 157.619 237.97 157.821 237.803 158.037C237.78 158.064 237.749 158.083 237.715 158.093C237.68 158.103 237.643 158.102 237.609 158.091L237.003 157.873C236.971 157.863 236.936 157.864 236.904 157.876C236.872 157.888 236.845 157.91 236.828 157.94L236.106 159.188C236.092 159.218 236.087 159.251 236.092 159.284C236.098 159.316 236.113 159.346 236.137 159.37L236.646 159.806C236.671 159.831 236.688 159.862 236.697 159.896C236.705 159.93 236.705 159.966 236.694 160C236.601 160.249 236.524 160.504 236.464 160.764C236.444 160.837 236.401 160.903 236.343 160.951L235.446 161.557C235.416 161.581 235.391 161.61 235.374 161.643C235.356 161.677 235.345 161.714 235.343 161.751V162.878C235.34 162.893 235.341 162.908 235.347 162.922C235.353 162.935 235.363 162.947 235.375 162.955C235.388 162.963 235.402 162.967 235.417 162.966C235.432 162.965 235.446 162.96 235.458 162.951L236.331 162.557C236.345 162.552 236.36 162.549 236.376 162.55C236.391 162.55 236.406 162.554 236.42 162.561C236.433 162.568 236.446 162.578 236.455 162.59C236.465 162.601 236.472 162.615 236.476 162.63C236.522 162.781 236.587 162.926 236.67 163.06C236.687 163.093 236.695 163.129 236.695 163.166C236.695 163.203 236.687 163.239 236.67 163.272L236.064 164.442C236.05 164.473 236.048 164.508 236.058 164.54C236.068 164.572 236.09 164.6 236.119 164.618L236.725 164.981C236.753 164.996 236.786 165 236.817 164.992C236.849 164.984 236.876 164.965 236.894 164.939L237.621 163.848C237.643 163.819 237.671 163.795 237.704 163.779C237.737 163.764 237.773 163.756 237.809 163.757C237.968 163.758 238.127 163.742 238.282 163.709C238.297 163.704 238.312 163.703 238.328 163.705C238.343 163.707 238.358 163.713 238.371 163.722C238.383 163.731 238.394 163.742 238.402 163.756C238.41 163.769 238.414 163.784 238.415 163.8L238.512 164.751C238.512 164.818 238.567 164.848 238.627 164.812L239.609 164.248C239.64 164.226 239.666 164.198 239.686 164.166C239.706 164.134 239.719 164.098 239.724 164.06L239.821 162.969C239.833 162.893 239.869 162.823 239.924 162.769C240.121 162.581 240.303 162.379 240.47 162.163C240.493 162.136 240.524 162.116 240.558 162.107C240.593 162.097 240.629 162.098 240.664 162.109L241.27 162.327C241.302 162.337 241.337 162.336 241.369 162.324C241.401 162.312 241.428 162.29 241.445 162.26L242.166 161.012C242.182 160.981 242.187 160.946 242.18 160.912C242.173 160.878 242.156 160.847 242.13 160.824L241.627 160.394C241.602 160.369 241.585 160.338 241.576 160.304C241.567 160.269 241.568 160.234 241.579 160.2C241.672 159.951 241.749 159.696 241.809 159.436C241.826 159.361 241.869 159.295 241.93 159.249L242.827 158.643C242.856 158.619 242.881 158.589 242.898 158.556C242.916 158.523 242.927 158.486 242.93 158.449ZM239.094 162.024C238.179 162.557 237.44 162.127 237.44 161.073C237.468 160.497 237.633 159.936 237.92 159.437C238.208 158.937 238.61 158.514 239.094 158.2C240.009 157.673 240.748 158.103 240.748 159.158C240.719 159.732 240.554 160.292 240.266 160.79C239.979 161.288 239.577 161.711 239.094 162.024Z" fill="#37474F"/>
<path d="M213.388 186.385C220.829 182.089 226.859 185.573 226.859 194.166C226.859 202.759 220.829 213.201 213.388 217.497C205.946 221.794 199.916 218.309 199.916 209.722C199.916 201.135 205.946 190.682 213.388 186.385Z" fill="#455A64"/>
<path d="M213.297 193.148C215.721 191.754 217.666 192.882 217.666 195.669C217.583 197.184 217.144 198.659 216.385 199.973C215.626 201.287 214.568 202.403 213.297 203.232C210.873 204.626 208.921 203.499 208.921 200.711C209.005 199.195 209.444 197.72 210.204 196.406C210.965 195.092 212.024 193.976 213.297 193.148Z" fill="#4822CC"/>
<path d="M221.92 208.007C221.92 203.432 218.702 201.572 214.739 203.862L212.224 205.292C208.261 207.583 205.043 213.17 205.043 217.734V218.988C205.791 219.227 206.572 219.348 207.358 219.346C209.484 219.273 211.554 218.647 213.363 217.528C216.825 215.401 219.752 212.509 221.92 209.074V208.007Z" fill="#4822CC"/>
<path d="M201.231 230.278L225.556 216.237C226.277 215.819 226.865 216.116 226.865 216.903C226.832 217.343 226.697 217.769 226.469 218.147C226.242 218.525 225.929 218.844 225.556 219.079L201.237 233.12C200.51 233.544 199.922 233.241 199.922 232.459C199.954 232.018 200.088 231.591 200.316 231.212C200.543 230.833 200.857 230.513 201.231 230.278Z" fill="#4822CC"/>
<path d="M198.619 240.325L228.156 223.23C228.883 222.812 229.471 223.109 229.471 223.897C229.438 224.337 229.302 224.763 229.073 225.141C228.845 225.519 228.53 225.838 228.156 226.072L198.619 243.167C197.892 243.586 197.304 243.289 197.304 242.501C197.337 242.06 197.473 241.634 197.702 241.256C197.93 240.878 198.245 240.559 198.619 240.325Z" fill="#455A64"/>
<path d="M228.944 237.01L237.215 232.235C237.652 231.987 238.003 232.102 238.003 232.496C237.97 232.737 237.882 232.968 237.746 233.17C237.609 233.372 237.428 233.539 237.215 233.659L228.944 238.435C228.513 238.683 228.156 238.568 228.156 238.18C228.189 237.938 228.277 237.706 228.414 237.504C228.55 237.301 228.732 237.132 228.944 237.01Z" fill="#37474F"/>
<path d="M187.62 258.033L199.771 251.021C200.492 250.603 201.08 250.942 201.08 251.779V260.117C201.055 260.572 200.923 261.015 200.696 261.409C200.468 261.804 200.152 262.14 199.771 262.39L187.62 269.401C186.899 269.819 186.311 269.48 186.311 268.644V260.305C186.336 259.85 186.468 259.408 186.695 259.013C186.923 258.618 187.24 258.282 187.62 258.033Z" fill="#4822CC"/>
<path d="M189.56 259.196L197.831 254.421C198.268 254.172 198.619 254.287 198.619 254.675C198.587 254.918 198.5 255.15 198.363 255.353C198.226 255.556 198.044 255.724 197.831 255.845L189.56 260.62C189.123 260.869 188.772 260.753 188.772 260.366C188.804 260.123 188.891 259.891 189.028 259.688C189.165 259.485 189.347 259.317 189.56 259.196Z" fill="#FAFAFA"/>
<path d="M188.772 263.402V265.826C188.772 266.329 189.123 266.529 189.56 266.28L197.831 261.505C198.061 261.356 198.252 261.154 198.389 260.917C198.525 260.681 198.604 260.415 198.619 260.141V257.717C198.619 257.214 198.268 257.014 197.831 257.263L189.56 262.014C189.328 262.166 189.135 262.372 188.998 262.613C188.862 262.854 188.784 263.125 188.772 263.402Z" fill="#FAFAFA"/>
<path d="M207.315 246.664L219.435 239.653C220.163 239.234 220.75 239.574 220.75 240.41V248.749C220.726 249.204 220.594 249.648 220.365 250.042C220.137 250.437 219.818 250.773 219.435 251.021L207.315 258.033C206.588 258.451 206.006 258.111 206.006 257.275V248.937C206.03 248.481 206.161 248.038 206.388 247.643C206.616 247.248 206.934 246.913 207.315 246.664Z" fill="#4822CC"/>
<path d="M209.255 247.828L217.527 243.052C217.957 242.804 218.308 242.919 218.308 243.307C218.276 243.549 218.189 243.78 218.053 243.982C217.918 244.185 217.738 244.354 217.527 244.476L209.255 249.252C208.818 249.5 208.467 249.385 208.467 248.991C208.5 248.749 208.588 248.519 208.724 248.317C208.861 248.115 209.043 247.948 209.255 247.828Z" fill="#FAFAFA"/>
<path d="M208.467 252.033V254.457C208.467 254.96 208.818 255.16 209.255 254.912L217.527 250.136C217.754 249.986 217.943 249.784 218.079 249.547C218.215 249.311 218.293 249.045 218.308 248.773V246.349C218.308 245.846 217.951 245.646 217.52 245.894L209.249 250.67C209.02 250.82 208.831 251.021 208.695 251.258C208.559 251.495 208.481 251.76 208.467 252.033Z" fill="#FAFAFA"/>
<path d="M227.01 235.295L239.13 228.278C239.852 227.86 240.439 228.199 240.439 229.035V237.38C240.414 237.835 240.283 238.277 240.056 238.672C239.828 239.067 239.511 239.403 239.13 239.653L227.01 246.664C226.283 247.082 225.695 246.743 225.695 245.906V237.568C225.72 237.112 225.852 236.669 226.081 236.274C226.309 235.879 226.628 235.544 227.01 235.295Z" fill="#4822CC"/>
<path d="M228.944 236.459L237.215 231.714C237.652 231.459 238.003 231.575 238.003 231.969C237.972 232.21 237.884 232.442 237.747 232.644C237.611 232.846 237.428 233.013 237.215 233.132L228.944 237.907C228.513 238.162 228.156 238.047 228.156 237.653C228.184 237.406 228.27 237.169 228.407 236.962C228.544 236.754 228.728 236.582 228.944 236.459Z" fill="#FAFAFA"/>
<path d="M228.156 240.665V243.089C228.156 243.586 228.513 243.792 228.944 243.543L237.215 238.762C237.445 238.613 237.636 238.412 237.773 238.175C237.91 237.938 237.989 237.672 238.003 237.398V234.974C238.003 234.471 237.652 234.265 237.215 234.52L228.944 239.295C228.714 239.445 228.523 239.648 228.386 239.886C228.249 240.124 228.17 240.39 228.156 240.665Z" fill="#FAFAFA"/>
<path d="M188.935 277.164L237.84 248.93C239.294 248.094 240.464 248.688 240.464 250.258C240.4 251.139 240.13 251.993 239.674 252.751C239.218 253.508 238.589 254.146 237.84 254.615L188.935 282.848C187.487 283.685 186.311 283.091 186.311 281.521C186.376 280.64 186.647 279.786 187.103 279.029C187.559 278.272 188.187 277.633 188.935 277.164Z" fill="#E0E0E0"/>
<path d="M188.935 288.539L237.84 260.305C239.294 259.469 240.464 260.063 240.464 261.632C240.4 262.514 240.13 263.368 239.674 264.125C239.218 264.882 238.589 265.521 237.84 265.989L188.935 294.229C187.487 295.065 186.311 294.471 186.311 292.896C186.376 292.015 186.647 291.161 187.103 290.404C187.559 289.647 188.187 289.008 188.935 288.539Z" fill="#E0E0E0"/>
<path d="M204.855 293.562L221.92 283.709C222.647 283.291 223.235 283.63 223.235 284.466V289.963C223.21 290.418 223.078 290.862 222.85 291.257C222.621 291.651 222.303 291.987 221.92 292.235L204.855 302.089C204.128 302.507 203.54 302.168 203.54 301.331V295.835C203.565 295.379 203.697 294.936 203.925 294.541C204.154 294.146 204.472 293.811 204.855 293.562Z" fill="#4822CC"/>
<path d="M190.002 278.006C189.647 278.242 189.352 278.558 189.142 278.929C188.931 279.299 188.811 279.714 188.79 280.139C188.79 280.921 189.341 281.242 190.002 280.848C190.357 280.613 190.652 280.297 190.862 279.926C191.073 279.556 191.193 279.141 191.214 278.715C191.232 277.934 190.681 277.612 190.002 278.006Z" fill="#FAFAFA"/>
<path d="M193.905 275.752C193.549 275.987 193.254 276.303 193.043 276.673C192.833 277.044 192.713 277.459 192.693 277.885C192.693 278.667 193.238 278.988 193.905 278.594C194.26 278.358 194.554 278.042 194.765 277.672C194.975 277.301 195.096 276.887 195.117 276.461C195.135 275.679 194.583 275.346 193.905 275.752Z" fill="#FAFAFA"/>
<path d="M197.801 273.528C197.446 273.764 197.152 274.08 196.941 274.45C196.731 274.821 196.61 275.235 196.589 275.661C196.589 276.443 197.141 276.764 197.801 276.37C198.156 276.134 198.451 275.818 198.661 275.448C198.872 275.077 198.992 274.663 199.013 274.237C199.031 273.425 198.48 273.104 197.801 273.528Z" fill="#FAFAFA"/>
<path d="M201.704 271.243C201.349 271.479 201.054 271.795 200.843 272.165C200.633 272.536 200.512 272.951 200.492 273.376C200.492 274.158 201.043 274.479 201.704 274.086C202.059 273.85 202.353 273.534 202.564 273.163C202.774 272.793 202.895 272.378 202.916 271.952C202.934 271.171 202.383 270.849 201.704 271.243Z" fill="#FAFAFA"/>
<path d="M205.6 268.989C205.245 269.225 204.951 269.541 204.74 269.911C204.53 270.282 204.409 270.697 204.388 271.122C204.388 271.904 204.94 272.225 205.6 271.831C205.955 271.595 206.25 271.279 206.46 270.909C206.671 270.538 206.792 270.124 206.812 269.698C206.831 268.916 206.279 268.595 205.6 268.989Z" fill="#FAFAFA"/>
<path d="M209.497 266.735C209.142 266.971 208.847 267.286 208.637 267.657C208.426 268.027 208.306 268.442 208.285 268.868C208.285 269.65 208.836 269.971 209.497 269.577C209.853 269.342 210.148 269.026 210.358 268.655C210.569 268.285 210.689 267.87 210.709 267.444C210.727 266.662 210.182 266.341 209.497 266.735Z" fill="#FAFAFA"/>
<path d="M213.4 264.48C213.045 264.716 212.75 265.032 212.54 265.403C212.329 265.773 212.209 266.188 212.188 266.614C212.188 267.395 212.739 267.716 213.4 267.323C213.755 267.087 214.049 266.771 214.26 266.4C214.47 266.03 214.591 265.615 214.612 265.189C214.648 264.438 214.078 264.086 213.4 264.48Z" fill="#FAFAFA"/>
<path d="M190.002 289.387C189.648 289.624 189.354 289.94 189.143 290.31C188.933 290.68 188.812 291.095 188.79 291.52C188.79 292.308 189.341 292.623 190.002 292.229C190.357 291.995 190.651 291.68 190.862 291.31C191.073 290.941 191.193 290.527 191.214 290.102C191.232 289.314 190.681 288.999 190.002 289.387Z" fill="#FAFAFA"/>
<path d="M193.905 287.133C193.549 287.368 193.254 287.684 193.044 288.055C192.833 288.425 192.713 288.84 192.693 289.266C192.693 290.054 193.238 290.369 193.905 289.975C194.259 289.74 194.554 289.426 194.765 289.056C194.975 288.686 195.096 288.273 195.117 287.848C195.135 287.06 194.583 286.745 193.905 287.133Z" fill="#FAFAFA"/>
<path d="M197.801 284.878C197.447 285.115 197.153 285.431 196.942 285.801C196.732 286.172 196.611 286.586 196.589 287.011C196.589 287.799 197.141 288.114 197.801 287.721C198.156 287.486 198.451 287.171 198.661 286.802C198.872 286.432 198.992 286.018 199.013 285.593C199.031 284.806 198.48 284.484 197.801 284.878Z" fill="#FAFAFA"/>
<path d="M201.704 282.618C201.349 282.854 201.054 283.17 200.844 283.54C200.633 283.911 200.513 284.325 200.492 284.751C200.492 285.539 201.043 285.854 201.704 285.46C202.059 285.226 202.353 284.911 202.564 284.541C202.774 284.172 202.895 283.758 202.916 283.333C202.934 282.551 202.383 282.23 201.704 282.618Z" fill="#FAFAFA"/>
<path d="M205.6 280.37C205.245 280.606 204.951 280.921 204.74 281.292C204.53 281.662 204.409 282.077 204.388 282.503C204.388 283.291 204.94 283.606 205.6 283.212C205.955 282.977 206.25 282.663 206.46 282.293C206.671 281.924 206.792 281.51 206.812 281.085C206.831 280.297 206.279 279.976 205.6 280.37Z" fill="#FAFAFA"/>
<path d="M209.497 278.115C209.142 278.351 208.847 278.667 208.637 279.038C208.426 279.408 208.306 279.823 208.285 280.249C208.285 281.036 208.836 281.351 209.497 280.958C209.853 280.723 210.149 280.408 210.36 280.037C210.57 279.666 210.69 279.25 210.709 278.824C210.727 278.043 210.182 277.721 209.497 278.115Z" fill="#FAFAFA"/>
<path d="M213.4 275.861C213.045 276.097 212.75 276.413 212.54 276.783C212.329 277.154 212.209 277.569 212.188 277.994C212.188 278.782 212.739 279.097 213.4 278.703C213.755 278.468 214.05 278.152 214.26 277.781C214.471 277.411 214.591 276.996 214.612 276.57C214.648 275.788 214.078 275.467 213.4 275.861Z" fill="#FAFAFA"/>
<path d="M268.091 301.483C265.997 301.497 263.936 300.953 262.122 299.907C257.753 297.38 255.25 292.108 255.25 285.424C255.25 273.68 262.716 260.172 272.218 254.669C277.351 251.706 282.447 251.385 286.574 253.766C290.937 256.287 293.446 261.566 293.446 268.244C293.446 279.988 285.98 293.502 276.448 299.004C273.927 300.547 271.045 301.401 268.091 301.483ZM280.611 260.651C279.136 260.755 277.71 261.223 276.46 262.014C269.552 265.983 263.734 276.716 263.734 285.424C263.734 288.951 264.722 291.629 266.376 292.581C268.261 293.671 270.885 292.484 272.273 291.678C279.199 287.684 285.041 276.952 285.041 268.244C285.041 264.717 284.053 262.044 282.399 261.087C281.854 260.782 281.236 260.631 280.611 260.651Z" fill="#455A64"/>
<path d="M286.526 270.122C286.526 263.523 282.368 261.087 282.368 261.087C284.023 262.044 285.011 264.723 285.011 268.244C285.011 276.952 279.169 287.684 272.242 291.678C270.855 292.484 268.237 293.671 266.346 292.581C266.346 292.581 269.855 294.762 274.703 292.114C281.72 288.29 286.526 278.831 286.526 270.122Z" fill="#37474F"/>
<path d="M279.86 187.652C279.818 186.52 279.338 185.449 278.523 184.664C277.708 183.878 276.62 183.439 275.487 183.439C274.355 183.439 273.267 183.878 272.452 184.664C271.636 185.449 271.157 186.52 271.115 187.652V257.166C271.146 257.556 271.281 257.93 271.506 258.25C271.731 258.569 272.038 258.823 272.394 258.984C273.352 259.468 274.411 259.72 275.484 259.72C276.558 259.72 277.617 259.468 278.575 258.984C278.933 258.824 279.241 258.571 279.467 258.251C279.693 257.931 279.828 257.556 279.86 257.166V187.664V187.652Z" fill="#37474F"/>
<path d="M276.369 203.19C276.321 202.313 276.067 201.46 275.628 200.7C275.189 199.94 274.577 199.294 273.842 198.814C273.583 198.624 273.276 198.509 272.955 198.481C272.635 198.453 272.312 198.514 272.024 198.657L261.249 204.868L260.989 205.02C260.949 205.036 260.912 205.059 260.88 205.086C260.696 205.21 260.524 205.35 260.365 205.505C259.757 206.11 259.387 206.914 259.323 207.77C259.259 208.626 259.505 209.476 260.016 210.165C260.527 210.855 261.269 211.337 262.106 211.525C262.943 211.713 263.82 211.594 264.576 211.189L264.782 211.068L275.636 204.82C275.891 204.637 276.094 204.39 276.223 204.104C276.351 203.817 276.402 203.502 276.369 203.19Z" fill="#455A64"/>
<path d="M276.369 220.594C276.32 219.718 276.066 218.867 275.627 218.108C275.188 217.349 274.577 216.704 273.842 216.225C273.584 216.032 273.277 215.915 272.956 215.886C272.635 215.857 272.313 215.918 272.024 216.061L259.383 223.333L259.122 223.485C259.083 223.502 259.046 223.524 259.013 223.551C258.829 223.674 258.656 223.814 258.498 223.969C258.103 224.362 257.806 224.842 257.628 225.37C257.451 225.898 257.399 226.46 257.477 227.011C257.555 227.563 257.76 228.089 258.076 228.548C258.392 229.006 258.81 229.385 259.298 229.654C259.824 229.933 260.411 230.079 261.007 230.078C261.601 230.081 262.186 229.935 262.71 229.654C262.783 229.617 262.849 229.569 262.916 229.532L275.642 222.26C275.902 222.074 276.107 221.821 276.235 221.527C276.363 221.234 276.409 220.911 276.369 220.594Z" fill="#455A64"/>
<path d="M46.2064 60.72L37.9596 49.9561C37.9321 49.9202 37.9321 49.8704 37.9596 49.8345L46.2064 39.0706" stroke="#626262" stroke-width="2" stroke-linecap="round"/>
<path d="M95.1 61.258C93.7067 61.258 92.4747 60.9867 91.404 60.444C90.3334 59.9013 89.5047 59.0947 88.918 58.024C88.346 56.968 88.1114 55.6993 88.214 54.218C88.302 52.81 88.8007 51.1013 89.71 49.092L91.844 50.06C91.448 50.9547 91.1474 51.732 90.942 52.392C90.7514 53.0373 90.656 53.6973 90.656 54.372C90.656 55.5893 91.03 56.4987 91.778 57.1C92.5407 57.7013 93.648 58.002 95.1 58.002C96.288 58.002 97.3514 57.7893 98.29 57.364C99.2287 56.9533 99.9034 56.4327 100.314 55.802C100.329 55.758 99.8667 55.6187 98.928 55.384L97.762 55.054C96.6034 54.7167 95.782 54.3133 95.298 53.844C94.814 53.3747 94.572 52.7147 94.572 51.864C94.572 50.676 94.8727 49.5393 95.474 48.454C96.0754 47.3687 96.8674 46.4887 97.85 45.814C98.8327 45.1393 99.874 44.802 100.974 44.802C101.414 44.802 101.861 44.868 102.316 45C102.771 45.1173 103.086 45.264 103.262 45.44L102.338 48.278C102.191 48.2193 101.979 48.168 101.7 48.124C101.421 48.08 101.172 48.058 100.952 48.058C100.351 48.058 99.7714 48.19 99.214 48.454C98.6714 48.7033 98.2094 49.0407 97.828 49.466C97.4467 49.8767 97.19 50.324 97.058 50.808C97.0434 50.8667 97.036 50.94 97.036 51.028C97.036 51.2773 97.2047 51.4973 97.542 51.688C97.894 51.864 98.5467 52.062 99.5 52.282C100.835 52.59 101.737 52.9787 102.206 53.448C102.69 53.9027 102.932 54.438 102.932 55.054C102.932 56.1247 102.587 57.1367 101.898 58.09C101.209 59.0433 100.263 59.806 99.06 60.378C97.872 60.9647 96.552 61.258 95.1 61.258ZM112.377 56C111.907 56 111.475 55.912 111.079 55.736C110.991 57.1147 110.389 58.3833 109.275 59.542C108.16 60.7153 106.686 61.676 104.853 62.424L103.511 59.652C104.479 59.256 105.366 58.794 106.173 58.266C106.979 57.7527 107.61 57.2393 108.065 56.726C108.534 56.2127 108.769 55.7727 108.769 55.406C108.769 54.8047 108.38 53.1693 107.603 50.5L107.493 50.06L109.957 49.092C110.118 49.5467 110.309 50.1993 110.529 51.05C110.719 51.6513 110.954 52.084 111.233 52.348C111.526 52.5973 111.907 52.722 112.377 52.722H112.575L112.751 54.372L112.575 56H112.377ZM112.381 52.722H113.547C114.603 52.722 115.359 52.6047 115.813 52.37C116.283 52.1353 116.517 51.7833 116.517 51.314C116.517 51.006 116.363 50.4047 116.055 49.51C115.747 48.6007 115.505 47.9333 115.329 47.508L117.639 46.232C117.918 46.848 118.204 47.6767 118.497 48.718C118.805 49.7447 118.959 50.6467 118.959 51.424C118.959 52.92 118.49 54.0567 117.551 54.834C116.627 55.6113 115.293 56 113.547 56H112.381V52.722ZM115.197 57.716C115.652 58.156 116.099 58.6033 116.539 59.058L117.221 59.74L115.197 61.764L113.151 59.74L115.197 57.716ZM118.335 59.652C119.303 59.256 120.19 58.794 120.997 58.266C121.804 57.7527 122.434 57.2393 122.889 56.726C123.358 56.2127 123.593 55.7727 123.593 55.406C123.593 54.8047 123.204 53.1693 122.427 50.5L122.317 50.06L124.781 49.092C125.133 50.104 125.412 51.1893 125.617 52.348C125.822 53.492 125.925 54.5113 125.925 55.406C125.925 56.8433 125.36 58.1707 124.231 59.388C123.102 60.62 121.584 61.632 119.677 62.424L118.335 59.652ZM132.959 56C131.346 56 130.18 55.538 129.461 54.614C128.757 53.69 128.405 52.282 128.405 50.39C128.391 48.586 128.332 46.76 128.229 44.912C128.141 43.0493 128.009 41.5167 127.833 40.314L130.561 39.72C130.708 40.7907 130.825 42.2427 130.913 44.076C131.001 45.8947 131.045 47.5813 131.045 49.136V49.972C131.031 50.72 131.067 51.2847 131.155 51.666C131.243 52.0473 131.419 52.3187 131.683 52.48C131.962 52.6413 132.387 52.722 132.959 52.722H133.069L133.245 54.372L133.069 56H132.959ZM132.748 52.722H133.496C134.743 52.722 135.777 52.6267 136.598 52.436C137.42 52.2307 137.962 51.9593 138.226 51.622C138.109 50.918 137.676 50.082 136.928 49.114C136.18 48.146 135.08 47.0753 133.628 45.902L133.936 43.042L142.098 39.61L142.978 42.228L136.62 44.934C137.104 45.3447 137.654 45.9093 138.27 46.628C138.901 47.332 139.458 48.1313 139.942 49.026C140.441 49.9207 140.69 50.786 140.69 51.622C140.69 51.8713 140.654 52.1573 140.58 52.48C140.287 53.668 139.51 54.5553 138.248 55.142C136.987 55.714 135.403 56 133.496 56H132.748V52.722ZM155.722 56.264C153.17 56.2493 151.16 55.8387 149.694 55.032C148.227 54.2253 147.428 53.1107 147.296 51.688C147.281 51.5707 147.274 51.3947 147.274 51.16C147.274 50.5293 147.362 49.8473 147.538 49.114C147.714 48.3807 147.926 47.728 148.176 47.156L150.288 48.168C149.862 49.5027 149.672 50.4633 149.716 51.05C149.818 51.6073 150.398 52.0693 151.454 52.436C152.524 52.788 153.984 52.9713 155.832 52.986C157.166 52.986 158.296 52.9127 159.22 52.766C160.158 52.6193 160.862 52.4507 161.332 52.26C161.801 52.0693 162.05 51.9153 162.08 51.798C161.962 51.1087 161.757 50.346 161.464 49.51C161.185 48.6593 160.943 47.992 160.738 47.508L163.048 46.232C163.4 47.024 163.708 47.926 163.972 48.938C164.236 49.9353 164.368 50.8153 164.368 51.578C164.368 53.1033 163.598 54.262 162.058 55.054C160.518 55.8313 158.479 56.2347 155.942 56.264H155.744H155.722ZM155.766 57.914C156.22 58.354 156.668 58.8013 157.108 59.256L157.79 59.938L155.766 61.962L153.72 59.938L155.766 57.914ZM171.395 56C169.782 56 168.616 55.538 167.897 54.614C167.193 53.69 166.841 52.282 166.841 50.39C166.826 48.586 166.768 46.76 166.665 44.912C166.577 43.0493 166.445 41.5167 166.269 40.314L168.997 39.72C169.144 40.7907 169.261 42.2427 169.349 44.076C169.437 45.8947 169.481 47.5813 169.481 49.136V49.972C169.466 50.72 169.503 51.2847 169.591 51.666C169.679 52.0473 169.855 52.3187 170.119 52.48C170.398 52.6413 170.823 52.722 171.395 52.722H171.505L171.681 54.372L171.505 56H171.395ZM189.331 56C188.143 56 187.175 55.516 186.427 54.548C186.061 55.0027 185.643 55.3547 185.173 55.604C184.704 55.8533 184.198 55.9853 183.655 56H183.589H183.523C182.849 55.9853 182.269 55.8167 181.785 55.494C181.301 55.1713 180.927 54.7093 180.663 54.108C179.871 55.3547 178.896 55.9853 177.737 56H177.627C176.997 56 176.447 55.8313 175.977 55.494C175.508 55.1567 175.178 54.7093 174.987 54.152C174.518 54.7533 173.975 55.2153 173.359 55.538C172.758 55.846 172.113 56 171.423 56H171.357L171.181 54.372L171.357 52.722H171.467C171.922 52.722 172.369 52.6267 172.809 52.436C173.249 52.2307 173.579 51.9813 173.799 51.688C174.107 51.336 174.342 50.94 174.503 50.5C174.665 50.06 174.811 49.5907 174.943 49.092L177.231 49.334C177.217 49.4073 177.136 49.7007 176.989 50.214C176.843 50.7127 176.769 51.1673 176.769 51.578C176.769 52.3407 177.077 52.722 177.693 52.722H177.759C178.507 52.722 179.087 52.3187 179.497 51.512C179.776 50.9547 180.025 50.0967 180.245 48.938L182.511 49.048C182.35 50.016 182.269 50.7053 182.269 51.116C182.269 52.1867 182.717 52.722 183.611 52.722C183.949 52.722 184.271 52.656 184.579 52.524C184.902 52.392 185.151 52.2233 185.327 52.018C185.195 51.4753 184.997 50.4853 184.733 49.048L186.999 48.432C187.161 49.3707 187.293 50.082 187.395 50.566C187.513 51.05 187.615 51.4313 187.703 51.71C187.821 52.0473 188.004 52.304 188.253 52.48C188.517 52.6413 188.877 52.722 189.331 52.722H189.463L189.617 54.372L189.441 56H189.331ZM189.209 52.722H190.859C192.516 52.722 194.071 52.5533 195.523 52.216C196.975 51.864 198.507 51.2773 200.121 50.456C199.725 50.2947 199.204 50.0527 198.559 49.73C197.268 49.07 196.146 48.74 195.193 48.74C194.635 48.74 194.137 48.894 193.697 49.202C193.271 49.4953 192.941 49.8327 192.707 50.214L190.859 48.872C191.973 46.6867 193.447 45.594 195.281 45.594C195.897 45.594 196.491 45.6967 197.063 45.902C197.635 46.1073 198.471 46.4887 199.571 47.046C200.421 47.486 201.14 47.8233 201.727 48.058C202.328 48.2927 202.988 48.4833 203.707 48.63L203.817 51.578C203.421 51.6953 202.643 52.0693 201.485 52.7C201.397 52.7587 201.316 52.81 201.243 52.854C201.169 52.8833 201.103 52.9127 201.045 52.942C199.593 53.7047 198.331 54.2987 197.261 54.724C196.19 55.1493 195.097 55.472 193.983 55.692C192.868 55.8973 191.607 56 190.199 56H189.209V52.722ZM220.132 56C219.413 56 218.79 55.8827 218.262 55.648C217.748 55.4133 217.316 55.0467 216.964 54.548C216.084 54.812 215.233 54.944 214.412 54.944C213.092 54.944 212.006 54.6287 211.156 53.998C210.32 53.3527 209.902 52.48 209.902 51.38C209.902 50.104 210.371 49.026 211.31 48.146C212.248 47.266 213.51 46.5033 215.094 45.858L214.94 44.538L217.492 43.988C217.829 47.1267 218.064 49.1947 218.196 50.192C218.284 50.9253 218.386 51.468 218.504 51.82C218.636 52.172 218.819 52.414 219.054 52.546C219.303 52.6633 219.662 52.722 220.132 52.722H220.506L220.682 54.372L220.506 56H220.132ZM212.322 50.764C212.278 51.072 212.432 51.336 212.784 51.556C213.15 51.776 213.634 51.886 214.236 51.886C214.72 51.886 215.27 51.798 215.886 51.622C215.842 51.402 215.79 51.072 215.732 50.632L215.468 48.718C214.632 48.982 213.906 49.312 213.29 49.708C212.674 50.0893 212.351 50.4413 212.322 50.764ZM220.254 52.722H221.42C222.476 52.722 223.232 52.6047 223.686 52.37C224.156 52.1353 224.39 51.7833 224.39 51.314C224.39 51.006 224.236 50.4047 223.928 49.51C223.62 48.6007 223.378 47.9333 223.202 47.508L225.512 46.232C225.791 46.848 226.077 47.6767 226.37 48.718C226.678 49.7447 226.832 50.6467 226.832 51.424C226.832 52.92 226.363 54.0567 225.424 54.834C224.5 55.6113 223.166 56 221.42 56H220.254V52.722ZM221.97 57.738C222.425 58.178 222.872 58.6253 223.312 59.08L223.994 59.762L221.97 61.786L219.924 59.762L221.97 57.738ZM237.943 56.11C236.667 56.11 235.604 55.9193 234.753 55.538C233.902 55.142 233.242 54.746 232.773 54.35L233.961 52.04C234.489 52.304 235.032 52.5313 235.589 52.722C236.146 52.9127 236.828 53.008 237.635 53.008C238.427 52.9933 239.072 52.9053 239.571 52.744C240.084 52.568 240.422 52.3773 240.583 52.172C240.598 52.1427 240.605 52.084 240.605 51.996C240.605 51.688 240.466 51.2847 240.187 50.786C239.923 50.2727 239.446 49.6713 238.757 48.982C238.082 48.278 237.173 47.5373 236.029 46.76L237.613 43.878C239.314 45.0807 240.656 46.3933 241.639 47.816C242.636 49.2387 243.135 50.5953 243.135 51.886C243.135 52.502 243.018 53.0667 242.783 53.58C242.431 54.4013 241.808 55.032 240.913 55.472C240.018 55.8973 239.028 56.11 237.943 56.11ZM244.616 59.586C246.669 59.146 248.246 58.6327 249.346 58.046C250.46 57.474 251.186 56.7773 251.524 55.956C251.128 56.0147 250.688 56.044 250.204 56.044C249.133 56.044 248.165 55.8607 247.3 55.494C246.449 55.1127 245.848 54.548 245.496 53.8C245.232 53.228 245.1 52.5973 245.1 51.908C245.1 51.0427 245.283 50.1847 245.65 49.334C246.016 48.4687 246.522 47.7647 247.168 47.222C247.813 46.6647 248.517 46.386 249.28 46.386C250.16 46.386 250.959 46.7673 251.678 47.53C252.396 48.2927 252.961 49.29 253.372 50.522C253.782 51.754 253.988 53.0373 253.988 54.372C253.988 56.4253 253.247 58.156 251.766 59.564C250.284 60.972 248.238 61.9253 245.628 62.424L244.616 59.586ZM247.52 51.952C247.74 52.2453 248.15 52.4727 248.752 52.634C249.353 52.7807 250.028 52.854 250.776 52.854C251.128 52.854 251.392 52.8467 251.568 52.832C251.362 51.8347 251.025 50.9987 250.556 50.324C250.101 49.6493 249.588 49.312 249.016 49.312C248.722 49.312 248.444 49.422 248.18 49.642C247.93 49.862 247.725 50.1333 247.564 50.456C247.417 50.7787 247.344 51.0793 247.344 51.358C247.344 51.5927 247.402 51.7907 247.52 51.952ZM254.224 59.652C255.192 59.256 256.079 58.794 256.886 58.266C257.692 57.7527 258.323 57.2393 258.778 56.726C259.247 56.2127 259.482 55.7727 259.482 55.406C259.482 54.8047 259.093 53.1693 258.316 50.5L258.206 50.06L260.67 49.092C261.022 50.104 261.3 51.1893 261.506 52.348C261.711 53.492 261.814 54.5113 261.814 55.406C261.814 56.8433 261.249 58.1707 260.12 59.388C258.99 60.62 257.472 61.632 255.566 62.424L254.224 59.652ZM263.436 59.586C265.489 59.146 267.066 58.6327 268.166 58.046C269.281 57.474 270.007 56.7773 270.344 55.956C269.948 56.0147 269.508 56.044 269.024 56.044C267.953 56.044 266.985 55.8607 266.12 55.494C265.269 55.1127 264.668 54.548 264.316 53.8C264.052 53.228 263.92 52.5973 263.92 51.908C263.92 51.0427 264.103 50.1847 264.47 49.334C264.837 48.4687 265.343 47.7647 265.988 47.222C266.633 46.6647 267.337 46.386 268.1 46.386C268.98 46.386 269.779 46.7673 270.498 47.53C271.217 48.2927 271.781 49.29 272.192 50.522C272.603 51.754 272.808 53.0373 272.808 54.372C272.808 56.4253 272.067 58.156 270.586 59.564C269.105 60.972 267.059 61.9253 264.448 62.424L263.436 59.586ZM266.34 51.952C266.56 52.2453 266.971 52.4727 267.572 52.634C268.173 52.7807 268.848 52.854 269.596 52.854C269.948 52.854 270.212 52.8467 270.388 52.832C270.183 51.8347 269.845 50.9987 269.376 50.324C268.921 49.6493 268.408 49.312 267.836 49.312C267.543 49.312 267.264 49.422 267 49.642C266.751 49.862 266.545 50.1333 266.384 50.456C266.237 50.7787 266.164 51.0793 266.164 51.358C266.164 51.5927 266.223 51.7907 266.34 51.952Z" fill="#7B7B7B"/>
<defs>
<filter id="filter0_d_140_1273" x="9" y="516" width="342" height="63" filterUnits="userSpaceOnUse" color-interpolation-filters="sRGB">
<feFlood flood-opacity="0" result="BackgroundImageFix"/>
<feColorMatrix in="SourceAlpha" type="matrix" values="0 0 0 0 0 0 0 0 0 0 0 0 0 0 0 0 0 0 127 0" result="hardAlpha"/>
<feOffset dy="4"/>
<feGaussianBlur stdDeviation="6"/>
<feColorMatrix type="matrix" values="0 0 0 0 0.101961 0 0 0 0 0.101961 0 0 0 0 0.101961 0 0 0 0.24 0"/>
<feBlend mode="normal" in2="BackgroundImageFix" result="effect1_dropShadow_140_1273"/>
<feBlend mode="normal" in="SourceGraphic" in2="effect1_dropShadow_140_1273" result="shape"/>
</filter>
</defs>
</svg>
