<svg width="1440" height="900" viewBox="0 0 1440 900" fill="none" xmlns="http://www.w3.org/2000/svg">
<g clip-path="url(#clip0_22_418)">
<rect width="1440" height="900" fill="white"/>
<g clip-path="url(#clip1_22_418)">
<path d="M1519 -91H39V933H1519V-91Z" fill="#D6DCFF"/>
<path d="M924.225 421L537.575 933H1330.3L924.225 421Z" fill="#C9AE39"/>
<path d="M924.225 421L846.433 933H1330.3L924.225 421Z" fill="#A07800"/>
<path d="M-16.5 933L407.15 662.209L793.8 933H-16.5Z" fill="#B8A675"/>
<path d="M350.725 933L407.15 662.209L793.8 933H350.725Z" fill="#907262"/>
<path d="M1151.78 530.227L1474.6 933H849.3L1151.78 530.227Z" fill="#A69E9B"/>
<path d="M1151.78 530.227L1474.6 933H1113.85L1151.78 530.227Z" fill="#7D6C8B"/>
<path d="M631.925 699.756L858.55 933H378.475L631.925 699.756Z" fill="#9195BA"/>
<path d="M581.975 933L631.925 699.756L858.55 933H581.975Z" fill="#6866AA"/>
<path d="M1620.75 933L1334.93 628.076L1052.8 933H1620.75Z" fill="#798CD4"/>
<path d="M1620.75 933L1334.92 628.076L1301.62 933H1620.75Z" fill="#4D5FC4"/>
<path d="M1158.25 933L937.175 690.653L709.625 933H1158.25Z" fill="#5B82EB"/>
<path d="M911.275 933H1158.25L937.175 690.653L911.275 933Z" fill="#1F58DB"/>
</g>
<g clip-path="url(#clip2_22_418)" filter="url(#filter0_d_22_418)">
<rect x="0.5" y="0.5" width="453" height="899" rx="7.5" fill="white" stroke="#DFE0EB"/>
<g filter="url(#filter1_d_22_418)">
<rect x="32" y="565" width="390" height="48" rx="8" fill="#C9AE39"/>
</g>
<path d="M165.189 594.176C163.301 594.187 161.818 593.909 160.741 593.344C159.664 592.779 159.077 591.979 158.981 590.944C158.97 590.859 158.965 590.731 158.965 590.56C158.965 590.112 159.024 589.637 159.141 589.136C159.258 588.624 159.408 588.155 159.589 587.728L160.981 588.416C160.661 589.387 160.522 590.107 160.565 590.576C160.65 591.035 161.088 591.408 161.877 591.696C162.666 591.973 163.77 592.112 165.189 592.112H165.269C166.549 592.101 167.584 592.005 168.373 591.824C169.162 591.643 169.728 591.349 170.069 590.944C169.898 590.965 169.648 590.976 169.317 590.976C168.57 590.976 167.909 590.853 167.333 590.608C166.757 590.363 166.341 589.989 166.085 589.488C165.893 589.115 165.797 588.667 165.797 588.144C165.797 587.568 165.92 587.003 166.165 586.448C166.421 585.893 166.768 585.44 167.205 585.088C167.653 584.736 168.138 584.56 168.661 584.56C169.301 584.56 169.872 584.827 170.373 585.36C170.874 585.883 171.253 586.56 171.509 587.392C171.776 588.224 171.882 589.077 171.829 589.952C171.776 591.253 171.194 592.283 170.085 593.04C168.986 593.787 167.37 594.165 165.237 594.176H165.189ZM167.381 588.336C167.541 588.56 167.834 588.741 168.261 588.88C168.688 589.008 169.168 589.072 169.701 589.072C170 589.072 170.224 589.061 170.373 589.04C170.245 588.304 170.016 587.68 169.685 587.168C169.354 586.645 168.965 586.384 168.517 586.384C168.293 586.384 168.08 586.464 167.877 586.624C167.685 586.773 167.53 586.965 167.413 587.2C167.296 587.424 167.237 587.643 167.237 587.856C167.237 588.048 167.285 588.208 167.381 588.336ZM168.469 580.784L169.381 581.696L169.829 582.144L168.469 583.52L167.109 582.144L168.469 580.784ZM177.547 594C177.206 594 176.881 593.931 176.571 593.792C176.55 594.784 176.129 595.707 175.307 596.56C174.486 597.424 173.414 598.117 172.091 598.64L171.259 596.896C171.953 596.629 172.587 596.304 173.163 595.92C173.739 595.536 174.193 595.147 174.523 594.752C174.854 594.357 175.019 594.005 175.019 593.696C175.019 593.461 174.955 593.072 174.827 592.528C174.699 591.973 174.529 591.28 174.315 590.448C174.23 590.149 174.171 589.925 174.139 589.776L175.739 589.152C175.878 589.611 176.017 590.101 176.155 590.624C176.294 591.104 176.47 591.445 176.683 591.648C176.897 591.84 177.185 591.936 177.547 591.936H177.675L177.787 592.96L177.675 594H177.547ZM191.755 594C190.72 594 189.947 593.989 189.435 593.968C188.934 593.947 188.507 593.883 188.155 593.776C187.195 594.149 186.075 594.336 184.795 594.336C182.736 594.336 181.43 593.685 180.875 592.384C180.566 592.907 180.176 593.307 179.707 593.584C179.248 593.861 178.656 594 177.931 594H177.707V591.936H177.947C178.459 591.936 178.87 591.824 179.179 591.6C179.499 591.376 179.755 591.024 179.947 590.544C180.139 590.064 180.294 589.419 180.411 588.608L181.899 588.912C181.835 589.328 181.803 589.696 181.803 590.016C181.803 590.741 181.974 591.28 182.315 591.632C183.126 590.192 184.027 589.072 185.019 588.272C186.022 587.472 187.014 587.072 187.995 587.072C188.592 587.072 189.131 587.2 189.611 587.456C190.091 587.712 190.464 588.064 190.731 588.512C190.998 588.96 191.131 589.467 191.131 590.032C191.131 590.725 190.934 591.381 190.539 592C190.891 591.957 191.296 591.936 191.755 591.936H191.835L191.947 592.96L191.835 594H191.755ZM183.707 592.24C183.963 592.283 184.299 592.304 184.715 592.304C185.664 592.304 186.512 592.197 187.259 591.984C188.006 591.76 188.582 591.477 188.987 591.136C189.403 590.784 189.611 590.432 189.611 590.08C189.611 589.781 189.483 589.536 189.227 589.344C188.971 589.141 188.619 589.04 188.171 589.04C187.424 589.04 186.662 589.317 185.883 589.872C185.104 590.427 184.379 591.216 183.707 592.24ZM191.908 591.936H192.212C193.055 591.936 193.748 591.435 194.292 590.432C194.783 589.472 195.279 588.736 195.78 588.224C196.282 587.701 196.836 587.44 197.444 587.44C197.999 587.44 198.484 587.616 198.9 587.968C199.316 588.32 199.636 588.773 199.86 589.328C200.084 589.883 200.196 590.464 200.196 591.072C200.196 591.68 200.079 592.235 199.844 592.736C199.62 593.237 199.29 593.621 198.852 593.888C198.618 594.016 198.351 594.08 198.052 594.08C197.242 594.08 196.154 593.648 194.788 592.784C194.468 593.189 194.084 593.493 193.636 593.696C193.188 593.899 192.698 594 192.164 594H191.876L191.908 591.936ZM195.684 591.12C196.218 591.451 196.698 591.712 197.124 591.904C197.551 592.085 197.876 592.176 198.1 592.176C198.196 592.176 198.266 592.16 198.308 592.128C198.586 591.957 198.724 591.627 198.724 591.136C198.724 590.677 198.602 590.256 198.356 589.872C198.111 589.488 197.796 589.296 197.412 589.296C196.89 589.296 196.314 589.904 195.684 591.12ZM203.731 596.896C204.425 596.629 205.059 596.304 205.635 595.92C206.211 595.536 206.665 595.147 206.995 594.752C207.326 594.357 207.491 594.005 207.491 593.696C207.491 593.461 207.427 593.072 207.299 592.528C207.171 591.973 207.001 591.28 206.787 590.448C206.702 590.149 206.643 589.925 206.611 589.776L208.211 589.152C208.457 589.899 208.654 590.693 208.803 591.536C208.963 592.368 209.043 593.088 209.043 593.696C209.043 594.709 208.627 595.653 207.795 596.528C206.974 597.403 205.897 598.107 204.563 598.64L203.731 596.896ZM214.316 594C213.154 594 212.332 593.685 211.852 593.056C211.372 592.427 211.132 591.44 211.132 590.096C211.132 588.869 211.095 587.547 211.02 586.128C210.956 584.699 210.866 583.584 210.748 582.784L212.492 582.384C212.599 583.141 212.684 584.288 212.748 585.824C212.812 587.349 212.839 588.667 212.828 589.776C212.818 590.363 212.844 590.805 212.908 591.104C212.972 591.392 213.111 591.605 213.324 591.744C213.538 591.872 213.868 591.936 214.316 591.936H214.396L214.492 592.96L214.396 594H214.316ZM214.442 591.936H214.554C215.493 591.925 216.143 591.803 216.506 591.568C216.879 591.333 217.066 590.944 217.066 590.4C217.066 590.155 217.023 589.755 216.938 589.2L216.874 588.768L218.378 588.48C218.517 589.195 218.586 590.064 218.586 591.088C218.639 591.333 218.773 591.536 218.986 591.696C219.199 591.856 219.493 591.936 219.866 591.936H219.978L220.09 592.96L219.978 594H219.866C219.439 594 219.039 593.893 218.666 593.68C218.303 593.467 218.005 593.184 217.77 592.832C217.493 593.237 217.087 593.536 216.554 593.728C216.021 593.909 215.354 594 214.554 594H214.442V591.936ZM215.45 595.36L216.362 596.272L216.81 596.72L215.45 598.096L214.09 596.72L215.45 595.36ZM228.401 594C227.857 594 227.35 593.845 226.881 593.536C226.412 593.216 225.921 592.72 225.409 592.048C225.089 592.699 224.502 593.189 223.649 593.52C222.796 593.84 221.75 594 220.513 594H220.017V591.936H220.513C221.484 591.936 222.268 591.856 222.865 591.696C223.473 591.536 223.873 591.312 224.065 591.024C224.076 590.501 223.798 589.861 223.233 589.104C222.668 588.336 221.83 587.499 220.721 586.592L220.913 584.768L226.817 582.24L227.393 583.904L222.641 585.952C223.057 586.315 223.5 586.768 223.969 587.312C224.438 587.845 224.822 588.405 225.121 588.992C225.644 589.781 226.076 590.384 226.417 590.8C226.769 591.205 227.094 591.499 227.393 591.68C227.702 591.851 228.038 591.936 228.401 591.936H228.641L228.737 592.96L228.641 594H228.401ZM228.686 591.936H229.406C230.494 591.936 231.262 591.84 231.71 591.648C232.158 591.445 232.382 591.136 232.382 590.72C232.371 590.453 232.254 589.995 232.03 589.344C231.816 588.683 231.646 588.213 231.518 587.936L233.022 587.12C233.235 587.6 233.448 588.197 233.662 588.912C233.875 589.627 233.982 590.256 233.982 590.8C233.971 591.845 233.608 592.64 232.894 593.184C232.179 593.728 231.118 594 229.71 594H228.686V591.936ZM231.694 597.952L230.414 596.672C230.414 596.672 230.696 596.389 231.262 595.824L231.694 595.392L232.126 595.824C232.691 596.389 232.974 596.672 232.974 596.672L231.694 597.952ZM227.582 596.672C227.582 596.672 227.864 596.389 228.43 595.824L228.862 595.392L229.294 595.824C229.859 596.389 230.142 596.672 230.142 596.672L228.862 597.952L227.582 596.672ZM248.006 594C247.526 594 247.099 593.915 246.726 593.744C246.353 593.563 246.017 593.291 245.718 592.928C244.907 593.696 243.926 594.08 242.774 594.08C241.985 594.08 241.307 593.957 240.742 593.712C240.187 593.456 239.686 593.168 239.238 592.848L240.022 591.376C240.395 591.579 240.779 591.755 241.174 591.904C241.579 592.043 242.054 592.112 242.598 592.112C243.451 592.112 244.214 591.899 244.886 591.472L242.662 586.336L244.15 585.552L246.342 590.736C246.534 591.195 246.747 591.509 246.982 591.68C247.227 591.851 247.569 591.936 248.006 591.936H248.182L248.294 592.96L248.182 594H248.006ZM248.223 591.936H248.719C249.69 591.936 250.474 591.856 251.071 591.696C251.679 591.536 252.079 591.312 252.271 591.024C252.282 590.501 252.004 589.861 251.439 589.104C250.874 588.336 250.036 587.499 248.927 586.592L249.119 584.768L255.023 582.24L255.599 583.904L250.847 585.952C251.551 586.549 252.234 587.317 252.895 588.256C253.556 589.184 253.887 590.069 253.887 590.912C253.887 591.147 253.855 591.376 253.791 591.6C253.567 592.4 253.007 593.003 252.111 593.408C251.226 593.803 250.095 594 248.719 594H248.223V591.936ZM264.232 598.112C263.39 598.112 262.616 597.941 261.912 597.6C261.219 597.259 260.664 596.773 260.248 596.144C259.843 595.515 259.64 594.779 259.64 593.936C259.64 593.328 259.747 592.656 259.96 591.92C260.174 591.184 260.43 590.512 260.728 589.904L262.12 590.56C261.843 591.157 261.63 591.696 261.48 592.176C261.331 592.656 261.256 593.136 261.256 593.616C261.256 594.341 261.528 594.928 262.072 595.376C262.616 595.824 263.336 596.048 264.232 596.048C266.515 596.048 267.619 594.869 267.544 592.512C267.48 590.475 267.39 588.571 267.272 586.8C267.155 585.029 267.038 583.691 266.92 582.784L268.664 582.384C268.835 583.813 268.995 587.163 269.144 592.432C269.187 594.213 268.776 595.605 267.912 596.608C267.048 597.611 265.822 598.112 264.232 598.112ZM274.429 594C273.266 594 272.445 593.685 271.965 593.056C271.485 592.427 271.245 591.44 271.245 590.096C271.245 588.869 271.208 587.547 271.133 586.128C271.069 584.699 270.978 583.584 270.861 582.784L272.605 582.384C272.712 583.141 272.797 584.288 272.861 585.824C272.925 587.349 272.952 588.667 272.941 589.776C272.93 590.363 272.957 590.805 273.021 591.104C273.085 591.392 273.224 591.605 273.437 591.744C273.65 591.872 273.981 591.936 274.429 591.936H274.509L274.605 592.96L274.509 594H274.429ZM283.466 594C282.954 593.989 282.522 593.861 282.17 593.616C281.818 593.36 281.557 593.003 281.386 592.544C281.109 592.992 280.784 593.349 280.41 593.616C280.048 593.872 279.653 594 279.226 594H279.162C278.693 594 278.288 593.872 277.946 593.616C277.616 593.349 277.397 592.997 277.29 592.56C276.949 593.029 276.554 593.387 276.106 593.632C275.658 593.877 275.173 594 274.65 594H274.602L274.49 592.96L274.602 591.936H274.666C275.018 591.936 275.36 591.856 275.69 591.696C276.021 591.536 276.272 591.339 276.442 591.104C276.666 590.827 276.837 590.523 276.954 590.192C277.082 589.861 277.189 589.515 277.274 589.152L278.778 589.312C278.778 589.323 278.752 589.445 278.698 589.68C278.538 590.299 278.458 590.757 278.458 591.056C278.458 591.355 278.517 591.579 278.634 591.728C278.752 591.867 278.938 591.936 279.194 591.936H279.226C279.792 591.936 280.245 591.616 280.586 590.976C280.8 590.56 280.981 589.915 281.13 589.04L282.634 589.104C282.506 589.744 282.442 590.261 282.442 590.656C282.442 591.509 282.794 591.936 283.498 591.936C283.84 591.936 284.101 591.84 284.282 591.648C284.474 591.445 284.57 591.179 284.57 590.848C284.57 590.528 284.469 590.069 284.266 589.472C284.064 588.864 283.877 588.357 283.706 587.952L285.178 587.136C285.392 587.595 285.605 588.197 285.818 588.944C286.042 589.68 286.154 590.331 286.154 590.896C286.154 591.461 286.042 591.979 285.818 592.448C285.594 592.917 285.285 593.291 284.89 593.568C284.496 593.845 284.048 593.989 283.546 594H283.498H283.466ZM285.616 596.896C286.309 596.629 286.944 596.304 287.52 595.92C288.096 595.536 288.549 595.147 288.88 594.752C289.21 594.357 289.376 594.005 289.376 593.696C289.376 593.461 289.312 593.072 289.184 592.528C289.056 591.973 288.885 591.28 288.672 590.448C288.586 590.149 288.528 589.925 288.496 589.776L290.096 589.152C290.341 589.899 290.538 590.693 290.688 591.536C290.848 592.368 290.928 593.088 290.928 593.696C290.928 594.709 290.512 595.653 289.68 596.528C288.858 597.403 287.781 598.107 286.448 598.64L285.616 596.896ZM292.889 593.904C292.974 593.264 293.017 592.181 293.017 590.656C293.017 589.195 292.974 587.664 292.889 586.064C292.814 584.464 292.729 583.371 292.633 582.784L294.393 582.384C294.478 582.96 294.558 584.027 294.633 585.584C294.707 587.131 294.745 588.645 294.745 590.128C294.745 591.888 294.686 593.211 294.569 594.096L292.889 593.904Z" fill="white"/>
<path d="M46.5948 66.72L38.2789 55.9564C38.2511 55.9204 38.2511 55.8702 38.2789 55.8342L46.5948 45.0706" stroke="#626262" stroke-width="2" stroke-linecap="round"/>
<path d="M347.641 475C346.948 475 346.383 474.808 345.945 474.424C345.796 475.917 345.284 477.08 344.409 477.912C343.545 478.755 342.399 479.176 340.969 479.176C340.116 479.176 339.332 479.005 338.617 478.664C337.903 478.323 337.332 477.827 336.905 477.176C336.489 476.536 336.281 475.789 336.281 474.936C336.281 474.317 336.393 473.629 336.617 472.872C336.841 472.104 337.097 471.411 337.385 470.792L338.937 471.496C338.649 472.125 338.431 472.675 338.281 473.144C338.143 473.603 338.073 474.072 338.073 474.552C338.073 475.213 338.34 475.752 338.873 476.168C339.407 476.584 340.105 476.792 340.969 476.792C342.057 476.792 342.879 476.515 343.433 475.96C343.988 475.405 344.249 474.568 344.217 473.448C344.164 471.603 344.068 469.757 343.929 467.912C343.791 466.056 343.652 464.616 343.513 463.592L345.513 463.16C345.684 464.461 345.817 467.069 345.913 470.984H345.929C345.961 471.453 346.02 471.8 346.105 472.024C346.201 472.248 346.361 472.403 346.585 472.488C346.82 472.573 347.172 472.616 347.641 472.616H347.817L347.945 473.816L347.817 475H347.641ZM347.654 472.616H348.422C349.478 472.616 350.225 472.525 350.662 472.344C351.1 472.163 351.318 471.885 351.318 471.512C351.308 471.277 351.185 470.829 350.95 470.168C350.716 469.496 350.545 469.048 350.438 468.824L352.134 467.896C352.348 468.344 352.561 468.941 352.774 469.688C352.988 470.424 353.094 471.069 353.094 471.624C353.084 472.712 352.716 473.549 351.99 474.136C351.265 474.712 350.193 475 348.774 475H347.654V472.616ZM350.63 479.064L349.286 477.72L350.63 476.36L351.078 476.808L351.99 477.72L350.63 479.064ZM347.814 476.36L348.262 476.808L349.174 477.72L347.814 479.064L346.47 477.72L347.814 476.36ZM358.214 475C357.041 475 356.193 474.664 355.67 473.992C355.158 473.32 354.902 472.296 354.902 470.92C354.891 469.608 354.849 468.28 354.774 466.936C354.71 465.581 354.614 464.467 354.486 463.592L356.47 463.16C356.577 463.939 356.662 464.995 356.726 466.328C356.79 467.651 356.822 468.877 356.822 470.008V470.616C356.811 471.16 356.838 471.571 356.902 471.848C356.966 472.125 357.094 472.323 357.286 472.44C357.489 472.557 357.798 472.616 358.214 472.616H358.294L358.422 473.816L358.294 475H358.214ZM358.139 472.616H358.987C359.755 472.616 360.304 472.531 360.635 472.36C360.976 472.189 361.147 471.933 361.147 471.592C361.147 471.368 361.035 470.931 360.811 470.28C360.587 469.619 360.411 469.133 360.283 468.824L361.963 467.896C362.165 468.344 362.373 468.947 362.587 469.704C362.811 470.451 362.923 471.107 362.923 471.672C362.923 472.76 362.581 473.587 361.899 474.152C361.227 474.717 360.256 475 358.987 475H358.139V472.616ZM359.387 476.264C359.717 476.584 360.043 476.909 360.363 477.24L360.859 477.736L359.387 479.208L357.899 477.736L359.387 476.264ZM363.934 477.608C365.396 477.288 366.532 476.92 367.342 476.504C368.153 476.099 368.686 475.603 368.942 475.016C367.769 474.995 366.82 474.877 366.094 474.664C365.369 474.44 364.862 474.019 364.574 473.4C364.382 472.984 364.286 472.525 364.286 472.024C364.286 471.395 364.42 470.771 364.686 470.152C364.953 469.523 365.321 469.011 365.79 468.616C366.26 468.211 366.772 468.008 367.326 468.008C367.881 468.008 368.393 468.216 368.862 468.632C369.332 469.048 369.721 469.608 370.03 470.312C370.35 471.016 370.564 471.784 370.67 472.616H371.342L371.47 473.816L371.342 475H370.622C370.356 476.184 369.705 477.181 368.67 477.992C367.646 478.803 366.313 479.363 364.67 479.672L363.934 477.608ZM366.046 472.056C366.196 472.259 366.521 472.403 367.022 472.488C367.524 472.563 368.174 472.605 368.974 472.616C368.825 471.912 368.585 471.325 368.254 470.856C367.924 470.376 367.55 470.136 367.134 470.136C366.921 470.136 366.718 470.216 366.526 470.376C366.345 470.525 366.201 470.717 366.094 470.952C365.988 471.187 365.934 471.411 365.934 471.624C365.934 471.805 365.972 471.949 366.046 472.056ZM371.187 472.616H371.475C372.307 472.616 372.989 472.115 373.523 471.112C374.056 470.12 374.568 469.379 375.059 468.888C375.549 468.387 376.099 468.136 376.707 468.136C377.283 468.136 377.789 468.323 378.227 468.696C378.664 469.059 378.995 469.533 379.219 470.12C379.453 470.696 379.571 471.304 379.571 471.944C379.571 472.563 379.453 473.139 379.219 473.672C378.984 474.195 378.643 474.589 378.195 474.856C377.96 475.005 377.672 475.08 377.331 475.08C376.509 475.08 375.421 474.653 374.067 473.8C373.405 474.6 372.531 475 371.443 475H371.139L371.187 472.616ZM375.091 471.912C375.592 472.221 376.045 472.467 376.451 472.648C376.856 472.819 377.165 472.904 377.379 472.904C377.485 472.904 377.56 472.888 377.603 472.856C377.709 472.781 377.789 472.675 377.843 472.536C377.907 472.387 377.939 472.216 377.939 472.024C377.939 471.597 377.821 471.203 377.587 470.84C377.352 470.467 377.043 470.28 376.659 470.28C376.179 470.28 375.656 470.824 375.091 471.912ZM387.277 475.064C386.285 475.064 385.511 474.797 384.957 474.264C384.413 473.731 384.141 473.043 384.141 472.2C384.141 471.869 384.189 471.523 384.285 471.16C384.498 470.285 384.967 469.421 385.693 468.568L385.149 468.232L386.365 466.424C387.773 467.277 388.834 468.141 389.549 469.016C390.263 469.88 390.621 470.797 390.621 471.768C390.621 472.419 390.471 472.995 390.173 473.496C389.885 473.987 389.485 474.371 388.973 474.648C388.471 474.925 387.906 475.064 387.277 475.064ZM385.821 471.592C385.799 471.955 385.922 472.237 386.189 472.44C386.455 472.643 386.855 472.744 387.389 472.744C387.815 472.744 388.167 472.664 388.445 472.504C388.733 472.344 388.903 472.136 388.957 471.88C388.882 471.528 388.69 471.165 388.381 470.792C388.082 470.408 387.655 469.997 387.101 469.56C386.258 470.349 385.831 471.027 385.821 471.592ZM389.672 477.656C390.376 477.368 391.021 477.032 391.608 476.648C392.195 476.275 392.653 475.901 392.984 475.528C393.325 475.155 393.496 474.835 393.496 474.568C393.496 474.131 393.213 472.941 392.648 471L392.568 470.68L394.36 469.976C394.616 470.712 394.819 471.501 394.968 472.344C395.117 473.176 395.192 473.917 395.192 474.568C395.192 475.613 394.781 476.579 393.96 477.464C393.139 478.36 392.035 479.096 390.648 479.672L389.672 477.656ZM400.308 475C399.134 475 398.286 474.664 397.764 473.992C397.252 473.32 396.996 472.296 396.996 470.92C396.985 469.608 396.942 468.28 396.868 466.936C396.804 465.581 396.708 464.467 396.58 463.592L398.564 463.16C398.67 463.939 398.756 464.995 398.82 466.328C398.884 467.651 398.916 468.877 398.916 470.008V470.616C398.905 471.16 398.932 471.571 398.996 471.848C399.06 472.125 399.188 472.323 399.38 472.44C399.582 472.557 399.892 472.616 400.308 472.616H400.388L400.516 473.816L400.388 475H400.308ZM400.232 472.616H400.569C401.39 472.616 402.073 472.115 402.617 471.112C403.161 470.131 403.683 469.389 404.185 468.888C404.686 468.387 405.235 468.136 405.833 468.136C406.483 468.136 407.017 468.349 407.433 468.776C407.849 469.203 408.195 469.827 408.473 470.648C408.718 471.395 408.921 471.912 409.081 472.2C409.251 472.477 409.454 472.616 409.689 472.616H409.881L410.009 473.816L409.881 475H409.689C409.358 475 409.054 474.915 408.777 474.744C408.499 474.563 408.265 474.312 408.073 473.992C407.998 474.173 407.891 474.339 407.753 474.488C407.614 474.637 407.459 474.76 407.289 474.856C407.065 475.005 406.777 475.08 406.425 475.08C405.614 475.08 404.531 474.653 403.177 473.8C402.846 474.205 402.457 474.509 402.009 474.712C401.561 474.904 401.07 475 400.537 475H400.232V472.616ZM404.185 471.912C404.718 472.296 405.235 472.579 405.737 472.76C406.249 472.941 406.659 473.032 406.969 473.032C407.065 473.032 407.129 473.027 407.161 473.016C407.171 472.963 407.177 472.872 407.177 472.744C407.177 472.413 407.118 472.056 407.001 471.672C406.894 471.288 406.729 470.963 406.505 470.696C406.291 470.419 406.041 470.28 405.753 470.28C405.273 470.28 404.75 470.824 404.185 471.912ZM418.629 475C418.138 474.989 417.712 474.867 417.349 474.632C416.997 474.397 416.725 474.061 416.533 473.624C415.957 474.531 415.248 474.989 414.405 475H414.325C413.866 475 413.466 474.877 413.125 474.632C412.784 474.387 412.544 474.061 412.405 473.656C412.064 474.093 411.669 474.429 411.221 474.664C410.784 474.888 410.314 475 409.813 475H409.765L409.637 473.816L409.765 472.616H409.845C410.176 472.616 410.501 472.547 410.821 472.408C411.141 472.259 411.381 472.077 411.541 471.864C411.765 471.608 411.936 471.32 412.053 471C412.17 470.68 412.277 470.339 412.373 469.976L414.037 470.152C414.026 470.205 413.968 470.419 413.861 470.792C413.754 471.155 413.701 471.485 413.701 471.784C413.701 472.339 413.925 472.616 414.373 472.616H414.421C414.965 472.616 415.386 472.323 415.685 471.736C415.888 471.331 416.069 470.707 416.229 469.864L417.877 469.944C417.76 470.648 417.701 471.149 417.701 471.448C417.701 472.227 418.026 472.616 418.677 472.616C418.986 472.616 419.232 472.525 419.413 472.344C419.594 472.163 419.685 471.928 419.685 471.64C419.685 471.352 419.573 470.893 419.349 470.264C419.136 469.635 418.954 469.155 418.805 468.824L420.437 467.928C420.64 468.344 420.853 468.941 421.077 469.72C421.301 470.488 421.413 471.16 421.413 471.736C421.413 472.323 421.296 472.867 421.061 473.368C420.837 473.859 420.517 474.253 420.101 474.552C419.696 474.851 419.232 475 418.709 475H418.677H418.629ZM415.477 465.048L416.757 466.312L415.477 467.608C415.381 467.491 415.061 467.165 414.517 466.632C414.517 466.632 414.41 466.525 414.197 466.312L415.477 465.048ZM416.981 463.304L418.101 464.424L416.981 465.56C416.981 465.56 416.73 465.309 416.229 464.808L415.845 464.424L416.981 463.304ZM418.501 465.048L419.765 466.312C419.765 466.312 419.594 466.483 419.253 466.824L418.501 467.608C418.501 467.608 418.213 467.32 417.637 466.744L417.205 466.312L418.501 465.048Z" fill="#7B7B7B"/>
<rect x="32.5" y="491.5" width="389" height="41" rx="7.5" fill="#FCFDFE" stroke="#F0F1F7"/>
<path d="M227.151 516C226.191 516 225.429 515.648 224.863 514.944C224.469 515.264 224.026 515.531 223.535 515.744C223.055 515.957 222.485 516.064 221.823 516.064C221.098 516.064 220.474 515.952 219.951 515.728C219.429 515.504 218.949 515.232 218.511 514.912L219.135 513.856C219.551 514.101 219.951 514.304 220.335 514.464C220.719 514.613 221.178 514.688 221.711 514.688C222.618 514.688 223.461 514.427 224.239 513.904L224.207 513.824L221.967 508.592L223.119 507.984L225.311 513.168C225.525 513.691 225.765 514.053 226.031 514.256C226.309 514.459 226.682 514.56 227.151 514.56H227.327L227.407 515.28L227.327 516H227.151ZM227.17 514.56H227.314C228.135 514.56 228.775 514.528 229.234 514.464C229.693 514.389 230.029 514.277 230.242 514.128C230.455 513.979 230.61 513.776 230.706 513.52C230.77 513.328 230.802 513.099 230.802 512.832C230.802 512.491 230.738 511.904 230.61 511.072L231.794 510.848C231.922 511.52 231.991 512.373 232.002 513.408C232.151 514.176 232.637 514.56 233.458 514.56H233.57L233.65 515.28L233.57 516H233.458C233.01 516 232.605 515.888 232.242 515.664C231.879 515.429 231.597 515.12 231.394 514.736C231.138 515.205 230.701 515.536 230.082 515.728C229.463 515.909 228.541 516 227.314 516H227.17V514.56ZM230.322 519.728L229.186 518.592L230.322 517.456L231.458 518.592L230.322 519.728ZM227.458 517.456L228.594 518.592L227.458 519.728L226.322 518.592L227.458 517.456ZM233.404 514.56H233.532C234.3 514.56 234.887 514.48 235.292 514.32C235.698 514.149 235.97 513.883 236.108 513.52C236.162 513.371 236.188 513.163 236.188 512.896C236.188 512.629 236.146 512.176 236.06 511.536L235.996 511.072L237.164 510.848C237.303 511.52 237.372 512.373 237.372 513.408C237.447 513.781 237.612 514.069 237.868 514.272C238.124 514.464 238.444 514.56 238.828 514.56H238.956L239.036 515.28L238.956 516H238.828C238.38 516 237.975 515.888 237.612 515.664C237.25 515.429 236.967 515.12 236.764 514.736C236.53 515.195 236.146 515.52 235.612 515.712C235.09 515.904 234.396 516 233.532 516H233.404V514.56ZM235.468 507.264L236.604 508.4L235.468 509.536L234.332 508.4L235.468 507.264ZM238.795 514.56H239.195C241.744 514.56 243.019 514.032 243.019 512.976C243.019 512.432 242.715 511.765 242.107 510.976C241.51 510.187 240.672 509.355 239.595 508.48L239.771 507.12L245.611 504.592L246.027 505.776L241.019 507.952C241.872 508.677 242.624 509.515 243.275 510.464C243.936 511.403 244.267 512.277 244.267 513.088C244.267 513.365 244.219 513.632 244.123 513.888C243.867 514.603 243.318 515.136 242.475 515.488C241.632 515.829 240.539 516 239.195 516H238.795V514.56ZM254.095 516.048C253.253 516.048 252.533 515.936 251.935 515.712C251.338 515.477 250.863 515.211 250.511 514.912L251.135 513.856C251.178 513.877 251.333 513.968 251.599 514.128C251.877 514.277 252.223 514.405 252.639 514.512C253.066 514.619 253.514 514.672 253.983 514.672C254.559 514.672 255.029 514.592 255.391 514.432C255.765 514.261 256.005 514.075 256.111 513.872C256.165 513.744 256.191 513.611 256.191 513.472C256.191 512.971 255.914 512.352 255.359 511.616C254.815 510.869 253.983 510.085 252.863 509.264L253.583 508.016C254.767 508.912 255.69 509.84 256.351 510.8C257.023 511.749 257.359 512.64 257.359 513.472C257.359 513.856 257.29 514.203 257.151 514.512C256.938 515.003 256.554 515.381 255.999 515.648C255.445 515.915 254.81 516.048 254.095 516.048ZM256.891 519.344C257.573 519.109 258.192 518.8 258.747 518.416C259.301 518.032 259.733 517.621 260.043 517.184C260.363 516.747 260.523 516.336 260.523 515.952C260.523 515.408 260.251 514.075 259.707 511.952L260.939 511.488C261.173 512.245 261.365 513.045 261.515 513.888C261.675 514.731 261.755 515.419 261.755 515.952C261.755 516.581 261.568 517.195 261.195 517.792C260.821 518.4 260.304 518.944 259.643 519.424C258.992 519.915 258.256 520.304 257.435 520.592L256.891 519.344ZM263.687 515.904C263.761 515.264 263.799 514.181 263.799 512.656C263.799 511.205 263.767 509.707 263.703 508.16C263.649 506.603 263.585 505.595 263.511 505.136L264.791 504.864C264.855 505.355 264.919 506.427 264.983 508.08C265.057 509.723 265.095 511.285 265.095 512.768C265.095 514.261 265.057 515.36 264.983 516.064L263.687 515.904ZM266.699 519.312C268.245 518.971 269.424 518.523 270.235 517.968C271.056 517.424 271.536 516.747 271.675 515.936C271.333 516.011 270.923 516.048 270.443 516.048C269.749 516.048 269.12 515.941 268.555 515.728C267.989 515.504 267.584 515.152 267.339 514.672C267.168 514.331 267.083 513.931 267.083 513.472C267.083 512.917 267.2 512.363 267.435 511.808C267.68 511.253 268 510.795 268.395 510.432C268.8 510.069 269.232 509.888 269.691 509.888C270.32 509.888 270.875 510.165 271.355 510.72C271.835 511.275 272.203 511.973 272.459 512.816C272.715 513.648 272.843 514.469 272.843 515.28C272.843 516.603 272.336 517.728 271.323 518.656C270.32 519.584 268.917 520.229 267.115 520.592L266.699 519.312ZM268.363 513.872C268.523 514.128 268.805 514.32 269.211 514.448C269.627 514.576 270.101 514.64 270.635 514.64C270.944 514.64 271.285 514.613 271.659 514.56C271.552 513.696 271.323 512.944 270.971 512.304C270.629 511.664 270.192 511.328 269.659 511.296C269.424 511.285 269.195 511.381 268.971 511.584C268.747 511.787 268.565 512.048 268.427 512.368C268.288 512.688 268.219 512.992 268.219 513.28C268.219 513.515 268.267 513.712 268.363 513.872ZM279.577 515.904C279.652 515.264 279.689 514.181 279.689 512.656C279.689 511.205 279.657 509.707 279.593 508.16C279.54 506.603 279.476 505.595 279.401 505.136L280.681 504.864C280.745 505.355 280.809 506.427 280.873 508.08C280.948 509.723 280.985 511.285 280.985 512.768C280.985 514.261 280.948 515.36 280.873 516.064L279.577 515.904ZM280.984 519.344C281.667 519.109 282.286 518.8 282.84 518.416C283.395 518.032 283.827 517.621 284.136 517.184C284.456 516.747 284.616 516.336 284.616 515.952C284.616 515.408 284.344 514.075 283.8 511.952L285.032 511.488C285.267 512.245 285.459 513.045 285.608 513.888C285.768 514.731 285.848 515.419 285.848 515.952C285.848 516.581 285.662 517.195 285.288 517.792C284.915 518.4 284.398 518.944 283.736 519.424C283.086 519.915 282.35 520.304 281.528 520.592L280.984 519.344ZM295.345 516.048C294.503 516.048 293.783 515.936 293.185 515.712C292.588 515.477 292.113 515.211 291.761 514.912L292.385 513.856C292.428 513.877 292.583 513.968 292.849 514.128C293.127 514.277 293.473 514.405 293.889 514.512C294.316 514.619 294.764 514.672 295.233 514.672C295.809 514.672 296.279 514.592 296.641 514.432C297.015 514.261 297.255 514.075 297.361 513.872C297.415 513.744 297.441 513.611 297.441 513.472C297.441 512.971 297.164 512.352 296.609 511.616C296.065 510.869 295.233 510.085 294.113 509.264L294.833 508.016C296.017 508.912 296.94 509.84 297.601 510.8C298.273 511.749 298.609 512.64 298.609 513.472C298.609 513.856 298.54 514.203 298.401 514.512C298.188 515.003 297.804 515.381 297.249 515.648C296.695 515.915 296.06 516.048 295.345 516.048ZM299.746 519.312C301.26 518.981 302.423 518.544 303.234 518C304.055 517.467 304.546 516.805 304.706 516.016C303.554 516.027 302.615 515.947 301.89 515.776C301.164 515.595 300.663 515.227 300.386 514.672C300.215 514.331 300.13 513.931 300.13 513.472C300.13 512.917 300.247 512.363 300.482 511.808C300.727 511.253 301.047 510.795 301.442 510.432C301.847 510.069 302.279 509.888 302.738 509.888C303.314 509.888 303.82 510.117 304.258 510.576C304.706 511.035 305.063 511.621 305.33 512.336C305.607 513.051 305.783 513.792 305.858 514.56H306.45L306.53 515.28L306.45 516H305.842C305.66 517.152 305.074 518.123 304.082 518.912C303.1 519.701 301.794 520.261 300.162 520.592L299.746 519.312ZM301.41 513.872C301.58 514.139 301.954 514.32 302.53 514.416C303.116 514.512 303.847 514.56 304.722 514.56C304.615 513.696 304.386 512.944 304.034 512.304C303.682 511.664 303.239 511.328 302.706 511.296C302.471 511.285 302.242 511.381 302.018 511.584C301.794 511.787 301.612 512.048 301.474 512.368C301.335 512.688 301.266 512.992 301.266 513.28C301.266 513.515 301.314 513.712 301.41 513.872ZM306.232 514.56H307.704C309.037 514.56 310.28 514.4 311.432 514.08C312.595 513.749 313.757 513.275 314.92 512.656C315.144 512.528 315.368 512.416 315.592 512.32C314.931 512.203 314.216 511.952 313.448 511.568C312.936 511.301 312.477 511.099 312.072 510.96C311.667 510.821 311.267 510.752 310.872 510.752C310.424 510.752 310.019 510.885 309.656 511.152C309.293 511.419 309.021 511.733 308.84 512.096L307.976 511.504C308.317 510.811 308.739 510.288 309.24 509.936C309.741 509.573 310.301 509.392 310.92 509.392C311.368 509.392 311.784 509.467 312.168 509.616C312.563 509.765 313.144 510.032 313.912 510.416C314.627 510.779 315.187 511.051 315.592 511.232C316.008 511.403 316.477 511.541 317 511.648L317.048 512.912C316.835 512.976 316.611 513.061 316.376 513.168C316.152 513.275 315.827 513.445 315.4 513.68C313.96 514.437 312.653 515.013 311.48 515.408C310.317 515.803 309.059 516 307.704 516H306.232V514.56ZM310.792 505.776L311.928 506.912L310.792 508.048L309.656 506.912L310.792 505.776ZM333.624 516C332.995 516 332.472 515.781 332.056 515.344C331.992 516.827 331.555 517.973 330.744 518.784C329.933 519.605 328.813 520.016 327.384 520.016C326.563 520.016 325.816 519.845 325.144 519.504C324.483 519.173 323.955 518.704 323.56 518.096C323.176 517.488 322.984 516.784 322.984 515.984C322.984 515.419 323.085 514.784 323.288 514.08C323.491 513.376 323.736 512.731 324.024 512.144L325.112 512.672C324.525 513.867 324.232 514.907 324.232 515.792C324.232 516.624 324.515 517.296 325.08 517.808C325.656 518.32 326.424 518.576 327.384 518.576C328.589 518.576 329.475 518.251 330.04 517.6C330.605 516.949 330.861 515.973 330.808 514.672C330.616 509.84 330.445 506.661 330.296 505.136L331.56 504.864C331.645 505.717 331.784 508.32 331.976 512.672C332.008 513.173 332.077 513.557 332.184 513.824C332.291 514.091 332.451 514.283 332.664 514.4C332.888 514.507 333.208 514.56 333.624 514.56H333.8L333.88 515.28L333.8 516H333.624ZM333.639 514.56H334.279C335.42 514.56 336.225 514.453 336.695 514.24C337.164 514.016 337.399 513.653 337.399 513.152C337.388 512.821 337.276 512.32 337.063 511.648C336.86 510.965 336.684 510.475 336.535 510.176L337.687 509.568C337.9 509.984 338.108 510.549 338.311 511.264C338.524 511.968 338.631 512.581 338.631 513.104C338.631 514.053 338.284 514.773 337.591 515.264C336.897 515.755 335.852 516 334.455 516H333.639V514.56ZM336.679 519.76L335.543 518.624L336.679 517.488L337.815 518.624L336.679 519.76ZM333.815 517.488L334.951 518.624L333.815 519.76L332.679 518.624L333.815 517.488ZM343.633 516C342.876 516 342.284 515.877 341.857 515.632C341.431 515.376 341.127 514.997 340.945 514.496C340.775 513.995 340.689 513.333 340.689 512.512C340.689 511.296 340.663 509.92 340.609 508.384C340.567 506.837 340.497 505.755 340.401 505.136L341.681 504.864C341.767 505.408 341.831 506.363 341.873 507.728C341.927 509.083 341.953 510.315 341.953 511.424V512.096L341.937 512.656C341.937 513.157 341.98 513.541 342.065 513.808C342.151 514.064 342.311 514.256 342.545 514.384C342.791 514.501 343.153 514.56 343.633 514.56H343.713L343.793 515.28L343.713 516H343.633ZM343.561 514.56H344.393C345.246 514.56 345.859 514.448 346.233 514.224C346.617 514 346.809 513.653 346.809 513.184C346.809 512.853 346.702 512.347 346.489 511.664C346.275 510.981 346.099 510.485 345.961 510.176L347.113 509.568C347.315 510.016 347.523 510.608 347.737 511.344C347.95 512.069 348.057 512.688 348.057 513.2C348.046 514.117 347.726 514.816 347.097 515.296C346.467 515.765 345.566 516 344.393 516H343.561V514.56ZM344.761 517.504L345.897 518.64L344.761 519.776L343.625 518.64L344.761 517.504ZM349.199 519.312C350.713 518.981 351.876 518.544 352.687 518C353.508 517.467 353.999 516.805 354.159 516.016C353.007 516.027 352.068 515.947 351.343 515.776C350.617 515.595 350.116 515.227 349.839 514.672C349.668 514.331 349.583 513.931 349.583 513.472C349.583 512.917 349.7 512.363 349.935 511.808C350.18 511.253 350.5 510.795 350.895 510.432C351.3 510.069 351.732 509.888 352.191 509.888C352.767 509.888 353.273 510.117 353.711 510.576C354.159 511.035 354.516 511.621 354.783 512.336C355.06 513.051 355.236 513.792 355.311 514.56H355.903L355.983 515.28L355.903 516H355.295C355.113 517.152 354.527 518.123 353.535 518.912C352.553 519.701 351.247 520.261 349.615 520.592L349.199 519.312ZM350.863 513.872C351.033 514.139 351.407 514.32 351.983 514.416C352.569 514.512 353.3 514.56 354.175 514.56C354.068 513.696 353.839 512.944 353.487 512.304C353.135 511.664 352.692 511.328 352.159 511.296C351.924 511.285 351.695 511.381 351.471 511.584C351.247 511.787 351.065 512.048 350.927 512.368C350.788 512.688 350.719 512.992 350.719 513.28C350.719 513.515 350.767 513.712 350.863 513.872ZM355.717 514.56H356.021C356.459 514.56 356.859 514.437 357.221 514.192C357.595 513.936 357.904 513.563 358.149 513.072C358.597 512.165 359.061 511.44 359.541 510.896C360.021 510.352 360.549 510.064 361.125 510.032C361.659 510 362.128 510.144 362.533 510.464C362.949 510.773 363.264 511.189 363.477 511.712C363.701 512.224 363.813 512.763 363.813 513.328C363.813 513.893 363.701 514.411 363.477 514.88C363.253 515.339 362.923 515.685 362.485 515.92C362.272 516.027 362.048 516.08 361.813 516.08C361.056 516.08 359.968 515.627 358.549 514.72C357.888 515.573 357.035 516 355.989 516H355.701L355.717 514.56ZM359.205 513.584C360.421 514.341 361.291 514.72 361.813 514.72C361.941 514.72 362.032 514.699 362.085 514.656C362.277 514.56 362.421 514.4 362.517 514.176C362.613 513.952 362.661 513.696 362.661 513.408C362.661 512.885 362.528 512.411 362.261 511.984C362.005 511.557 361.664 511.344 361.237 511.344C360.939 511.344 360.624 511.536 360.293 511.92C359.963 512.293 359.6 512.848 359.205 513.584ZM372.69 516.048C372.114 516.048 371.613 515.936 371.186 515.712C370.77 515.477 370.45 515.163 370.226 514.768C370.002 514.373 369.89 513.936 369.89 513.456C369.89 513.211 369.922 512.96 369.986 512.704C370.232 511.755 370.781 510.827 371.634 509.92L371.058 509.568L371.778 508.416C373.112 509.195 374.098 509.968 374.738 510.736C375.378 511.504 375.698 512.32 375.698 513.184C375.698 513.739 375.565 514.235 375.298 514.672C375.032 515.109 374.669 515.451 374.21 515.696C373.752 515.931 373.245 516.048 372.69 516.048ZM371.106 513.264C371.106 513.68 371.245 514.011 371.522 514.256C371.8 514.501 372.205 514.624 372.738 514.624C373.24 514.624 373.656 514.512 373.986 514.288C374.317 514.064 374.488 513.765 374.498 513.392C374.52 512.923 374.381 512.469 374.082 512.032C373.784 511.584 373.304 511.115 372.642 510.624C371.618 511.531 371.106 512.411 371.106 513.264ZM375.031 519.344C375.714 519.109 376.333 518.8 376.887 518.416C377.442 518.032 377.874 517.621 378.183 517.184C378.503 516.747 378.663 516.336 378.663 515.952C378.663 515.408 378.391 514.075 377.847 511.952L379.079 511.488C379.314 512.245 379.506 513.045 379.655 513.888C379.815 514.731 379.895 515.419 379.895 515.952C379.895 516.581 379.709 517.195 379.335 517.792C378.962 518.4 378.445 518.944 377.783 519.424C377.133 519.915 376.397 520.304 375.575 520.592L375.031 519.344ZM384.883 516C384.126 516 383.534 515.877 383.107 515.632C382.681 515.376 382.377 514.997 382.195 514.496C382.025 513.995 381.939 513.333 381.939 512.512C381.939 511.296 381.913 509.92 381.859 508.384C381.817 506.837 381.747 505.755 381.651 505.136L382.931 504.864C383.017 505.408 383.081 506.363 383.123 507.728C383.177 509.083 383.203 510.315 383.203 511.424V512.096L383.187 512.656C383.187 513.157 383.23 513.541 383.315 513.808C383.401 514.064 383.561 514.256 383.795 514.384C384.041 514.501 384.403 514.56 384.883 514.56H384.963L385.043 515.28L384.963 516H384.883ZM384.811 514.56H385.131C386.027 514.56 386.736 514.064 387.259 513.072C387.781 512.112 388.267 511.376 388.715 510.864C389.163 510.341 389.669 510.064 390.235 510.032C391.461 509.968 392.293 510.811 392.731 512.56C392.901 513.275 393.083 513.787 393.275 514.096C393.467 514.405 393.733 514.56 394.075 514.56H394.219L394.299 515.28L394.219 516H394.075C393.285 516 392.773 515.563 392.539 514.688C392.507 514.944 392.395 515.184 392.203 515.408C392.021 515.632 391.819 515.803 391.595 515.92C391.413 516.027 391.189 516.08 390.923 516.08C390.155 516.08 389.072 515.627 387.675 514.72C387.355 515.136 386.971 515.456 386.523 515.68C386.085 515.893 385.611 516 385.099 516H384.811V514.56ZM388.315 513.568C388.912 513.984 389.461 514.299 389.963 514.512C390.475 514.715 390.88 514.816 391.179 514.816C391.285 514.816 391.371 514.8 391.435 514.768C391.669 514.544 391.787 514.181 391.787 513.68C391.787 513.328 391.723 512.971 391.595 512.608C391.477 512.245 391.307 511.947 391.083 511.712C390.869 511.467 390.624 511.344 390.347 511.344C390.027 511.344 389.696 511.541 389.355 511.936C389.024 512.331 388.677 512.875 388.315 513.568ZM402.989 516C402.445 515.989 401.997 515.84 401.645 515.552C401.303 515.264 401.069 514.853 400.941 514.32C400.695 514.811 400.375 515.211 399.981 515.52C399.597 515.829 399.175 515.989 398.717 516H398.669C398.178 516 397.767 515.856 397.437 515.568C397.117 515.269 396.925 514.869 396.861 514.368C396.53 514.901 396.135 515.307 395.677 515.584C395.218 515.861 394.711 516 394.157 516H394.093L394.013 515.28L394.093 514.56H394.173C394.567 514.56 394.941 514.469 395.293 514.288C395.645 514.107 395.917 513.867 396.109 513.568C396.311 513.28 396.466 512.976 396.573 512.656C396.69 512.336 396.807 511.957 396.925 511.52L398.125 511.648C398.103 511.712 398.061 511.872 397.997 512.128C397.933 512.384 397.879 512.624 397.837 512.848C397.805 513.072 397.789 513.275 397.789 513.456C397.789 514.192 398.087 514.56 398.685 514.56H398.717C399.314 514.56 399.826 514.187 400.253 513.44C400.391 513.184 400.498 512.88 400.573 512.528C400.658 512.176 400.738 511.787 400.813 511.36L401.997 511.424C401.986 511.467 401.949 511.664 401.885 512.016C401.821 512.368 401.789 512.709 401.789 513.04C401.789 513.552 401.885 513.936 402.077 514.192C402.279 514.437 402.594 514.56 403.021 514.56C403.821 514.56 404.221 514.117 404.221 513.232C404.221 512.869 404.114 512.363 403.901 511.712C403.698 511.051 403.517 510.549 403.357 510.208L404.493 509.584C404.706 510.032 404.919 510.619 405.133 511.344C405.346 512.059 405.453 512.688 405.453 513.232C405.453 513.744 405.351 514.213 405.149 514.64C404.946 515.056 404.658 515.387 404.285 515.632C403.922 515.877 403.511 516 403.053 516H403.021H402.989ZM399.965 506.88L401.053 507.952L399.965 509.04L398.893 507.952L399.965 506.88ZM401.437 505.248L402.397 506.208L401.437 507.184L400.461 506.208L401.437 505.248ZM402.909 506.88L403.981 507.952L402.909 509.04L401.821 507.952L402.909 506.88Z" fill="#7B7B7B"/>
<path d="M117.081 375.224C176.372 405.538 272.504 405.538 331.789 375.224C391.074 344.91 391.081 295.732 331.789 265.452C272.497 235.171 176.372 235.138 117.081 265.452C57.7888 295.765 57.7955 344.917 117.081 375.224Z" fill="#F5F5F5"/>
<path d="M310.988 326.801C314.241 328.678 320.627 328.03 325.249 325.358L351.916 309.867C356.545 307.195 357.654 303.508 354.401 301.624C351.148 299.74 344.768 300.408 340.139 303.08L313.486 318.584C308.857 321.236 307.741 324.924 310.988 326.801Z" fill="#EBEBEB"/>
<path d="M150.387 341.089L123.253 325.425L150.387 309.76V341.089Z" fill="#EBEBEB"/>
<path d="M227.08 350.461L183.346 325.197L227.087 299.98L227.08 350.461Z" fill="#EBEBEB"/>
<path d="M113.68 304.463C113.761 298.117 109.325 284.91 102.839 276.594C96.3525 268.277 86.052 262.125 78.704 264.55C71.8236 266.814 72.4582 275.806 80.708 281.864C88.9578 287.923 101.349 295.552 104.883 305.912L112.398 318.604L113.68 304.463Z" fill="#4822CC"/>
<path opacity="0.1" d="M113.68 304.463C113.761 298.117 109.325 284.91 102.839 276.594C96.3525 268.277 86.052 262.125 78.704 264.55C71.8236 266.814 72.4582 275.806 80.708 281.864C88.9578 287.923 101.349 295.552 104.883 305.912L112.398 318.604L113.68 304.463Z" fill="black"/>
<path d="M114.048 313.153C113.947 313.145 113.851 313.102 113.776 313.034C113.701 312.965 113.651 312.873 113.634 312.773C109.626 291.056 92.3246 273.234 81.8837 269.219C81.8207 269.202 81.7619 269.172 81.7112 269.13C81.6605 269.089 81.6191 269.037 81.5895 268.979C81.56 268.921 81.543 268.857 81.5397 268.792C81.5363 268.726 81.5468 268.661 81.5702 268.6C81.5937 268.539 81.6297 268.484 81.6759 268.437C81.7222 268.391 81.7776 268.355 81.8386 268.332C81.8996 268.308 81.9649 268.298 82.0302 268.301C82.0955 268.304 82.1594 268.321 82.2177 268.351C92.859 272.445 110.494 290.562 114.542 312.606C114.554 312.665 114.554 312.727 114.541 312.786C114.529 312.846 114.505 312.902 114.471 312.953C114.437 313.003 114.393 313.046 114.342 313.079C114.292 313.113 114.235 313.136 114.175 313.147L114.048 313.153Z" fill="white"/>
<path d="M110.648 326.981C109.673 323.401 105.384 317.462 98.3967 312.512C90.6612 307.041 80.8283 304.449 78.6038 300.234C75.9318 295.171 80.2271 290.468 88.223 291.55C96.219 292.632 110.167 303.748 112.224 320.221L110.648 326.981Z" fill="#4822CC"/>
<path d="M112.244 323.254C112.155 323.246 112.07 323.213 111.999 323.159C111.928 323.104 111.874 323.031 111.844 322.946C105.424 304.302 91.3426 297.616 84.7962 296.687C84.6748 296.67 84.5651 296.606 84.4912 296.508C84.4173 296.411 84.3853 296.288 84.4021 296.166C84.4189 296.045 84.4833 295.935 84.581 295.861C84.6787 295.787 84.8018 295.755 84.9231 295.772C92.1642 296.801 106.172 303.614 112.725 322.639C112.764 322.756 112.756 322.884 112.702 322.994C112.648 323.105 112.554 323.191 112.438 323.234C112.375 323.253 112.31 323.26 112.244 323.254Z" fill="white"/>
<path d="M350.533 286.38C350.533 286.38 351.422 273.02 359.304 263.067C367.186 253.114 366.705 249.039 361.268 247.035C355.83 245.031 343.232 257.021 346.011 273.02C348.79 289.019 350.533 286.38 350.533 286.38Z" fill="#4822CC"/>
<path opacity="0.1" d="M350.533 286.38C350.533 286.38 351.422 273.02 359.304 263.067C367.186 253.114 366.705 249.039 361.268 247.035C355.83 245.031 343.232 257.021 346.011 273.02C348.79 289.019 350.533 286.38 350.533 286.38Z" fill="black"/>
<path d="M348.122 278.751C348.043 278.752 347.967 278.722 347.909 278.669C347.85 278.616 347.814 278.543 347.808 278.464C346.893 263.728 357.293 251.637 361.168 248.899C361.2 248.875 361.237 248.857 361.277 248.848C361.316 248.839 361.357 248.837 361.397 248.844C361.437 248.851 361.475 248.866 361.509 248.888C361.543 248.91 361.573 248.938 361.595 248.972C361.642 249.04 361.661 249.123 361.647 249.204C361.634 249.285 361.589 249.358 361.522 249.406C357.701 252.078 347.494 263.949 348.402 278.424C348.406 278.505 348.378 278.585 348.325 278.646C348.271 278.707 348.196 278.745 348.115 278.751H348.122Z" fill="white"/>
<path d="M348.389 297.442C351.939 298.602 355.575 299.478 359.264 300.061C365.369 301.023 368.068 298.103 368.068 298.103C368.068 298.103 365.663 292.379 362.196 290.755C365.948 291.598 369.529 293.068 372.791 295.104C372.791 295.104 376.518 295.164 378.001 289.473C378.001 289.473 375.797 286.046 368.382 284.196C368.382 284.196 372.891 283.06 379.391 284.717C379.878 284.91 381.956 277.556 382.584 274.162C383.212 270.769 381.849 270.822 379.204 270.094C376.558 269.366 367.788 267.422 366.131 268.872C364.474 270.321 363.633 275.305 363.633 275.305C362.976 273.265 362.891 271.084 363.385 268.999C363.385 268.999 361.007 268.07 357.307 269.146C354.287 270.021 354.14 272.078 354.274 274.403C354.453 276.422 354.902 278.408 355.61 280.308C355.61 280.308 353.252 277.289 353.178 270.735C353.178 270.735 346.993 273.808 345.937 279.954C345.323 283.287 344.508 293.06 348.389 297.442Z" fill="#4822CC"/>
<path d="M349.551 296.253C349.616 296.253 349.68 296.235 349.735 296.2C349.791 296.166 349.836 296.117 349.865 296.059C354.788 285.819 373.112 273.922 379.671 272.646C379.716 272.638 379.758 272.621 379.796 272.597C379.834 272.572 379.867 272.54 379.892 272.503C379.918 272.466 379.935 272.424 379.945 272.379C379.954 272.335 379.954 272.29 379.945 272.245C379.926 272.156 379.873 272.077 379.797 272.026C379.721 271.975 379.628 271.955 379.538 271.971C372.858 273.274 354.247 285.331 349.244 295.759C349.205 295.841 349.199 295.936 349.229 296.022C349.259 296.108 349.322 296.179 349.404 296.22C349.451 296.24 349.5 296.252 349.551 296.253Z" fill="white"/>
<path d="M111.289 331.71C110.534 331.71 110.08 331.089 110.08 330.04V217.676L247.708 138.231V250.141C247.66 251.075 247.394 251.985 246.93 252.798C246.465 253.61 245.817 254.302 245.036 254.817L112.384 331.37C112.055 331.577 111.678 331.695 111.289 331.71Z" fill="#FAFAFA"/>
<path d="M247.294 138.906V250.141C247.238 251.008 246.983 251.85 246.548 252.602C246.114 253.354 245.512 253.995 244.789 254.476L112.191 331.029C111.921 331.204 111.61 331.305 111.289 331.323C110.548 331.323 110.467 330.421 110.467 330.04V217.903L247.294 138.906ZM248.075 137.57L109.686 217.449V330.04C109.686 331.376 110.354 332.105 111.289 332.105C111.746 332.088 112.19 331.952 112.578 331.71L245.183 255.151C246.025 254.602 246.725 253.862 247.228 252.991C247.73 252.121 248.02 251.145 248.075 250.141V137.55V137.57Z" fill="#E0E0E0"/>
<path d="M109.692 217.449V236.253L248.075 156.354V137.55L109.692 217.449Z" fill="#4822CC"/>
<path d="M120.541 218.451V221.123C120.541 221.671 120.935 221.898 121.409 221.624L163.954 197.062V192.386L121.409 216.948C121.158 217.114 120.949 217.336 120.798 217.597C120.647 217.858 120.559 218.15 120.541 218.451Z" fill="#FAFAFA"/>
<path d="M168.517 189.754C168.998 189.473 169.385 189.7 169.385 190.255V192.927C169.368 193.228 169.28 193.52 169.129 193.781C168.978 194.042 168.769 194.264 168.517 194.43L163.954 197.062V192.386L168.517 189.754Z" fill="#455A64"/>
<path d="M109.686 211.39C109.741 210.387 110.031 209.41 110.534 208.54C111.036 207.669 111.737 206.93 112.578 206.38L245.183 129.821C246.779 128.899 248.075 129.647 248.075 131.491V137.55L109.686 217.449V211.39Z" fill="#455A64"/>
<path d="M232.691 140.182C232.3 140.44 231.975 140.787 231.743 141.194C231.511 141.602 231.378 142.058 231.355 142.526C231.355 143.395 231.963 143.742 232.691 143.314C233.082 143.055 233.407 142.706 233.639 142.298C233.871 141.89 234.004 141.432 234.027 140.963C234.054 140.088 233.446 139.747 232.691 140.182Z" fill="#4822CC"/>
<path d="M237.02 137.697C236.629 137.955 236.304 138.302 236.072 138.709C235.84 139.117 235.707 139.573 235.684 140.041C235.684 140.91 236.292 141.257 237.02 140.829C237.41 140.569 237.735 140.22 237.967 139.812C238.198 139.404 238.332 138.947 238.356 138.478C238.356 137.61 237.741 137.262 237.02 137.697Z" fill="#4822CC"/>
<path d="M241.288 135.212C240.897 135.47 240.572 135.817 240.34 136.224C240.108 136.632 239.975 137.088 239.952 137.556C239.952 138.425 240.56 138.772 241.288 138.345C241.679 138.084 242.003 137.735 242.235 137.327C242.467 136.919 242.6 136.462 242.624 135.993C242.644 135.125 242.037 134.777 241.288 135.212Z" fill="#4822CC"/>
<g opacity="0.1">
<path d="M204.656 168.592C203.793 169.156 203.075 169.916 202.561 170.81C202.047 171.703 201.751 172.706 201.696 173.735C201.696 175.626 203.032 176.407 204.656 175.445C205.519 174.883 206.238 174.125 206.754 173.232C207.269 172.339 207.566 171.338 207.621 170.308C207.628 168.418 206.292 167.65 204.656 168.592Z" fill="black"/>
<path d="M191.095 176.427C190.231 176.989 189.512 177.748 188.997 178.64C188.482 179.533 188.184 180.535 188.129 181.564C188.129 183.454 189.465 184.236 191.095 183.281C191.958 182.716 192.675 181.956 193.19 181.063C193.704 180.169 194 179.167 194.054 178.137C194.054 176.247 192.732 175.492 191.095 176.427Z" fill="black"/>
<path d="M218.222 160.796C217.36 161.359 216.642 162.118 216.128 163.01C215.614 163.903 215.317 164.904 215.263 165.933C215.263 167.823 216.599 168.605 218.222 167.643C219.087 167.081 219.806 166.323 220.321 165.43C220.837 164.537 221.134 163.536 221.188 162.506C221.188 160.582 219.866 159.814 218.222 160.796Z" fill="black"/>
<path d="M231.796 152.914C230.932 153.476 230.213 154.234 229.698 155.127C229.183 156.019 228.885 157.021 228.83 158.05C228.83 159.941 230.166 160.722 231.796 159.761C232.66 159.198 233.379 158.44 233.894 157.547C234.41 156.655 234.707 155.653 234.762 154.624C234.762 152.733 233.433 151.965 231.796 152.914Z" fill="black"/>
</g>
<path d="M123.46 237.716L155.664 219.119C157.261 218.197 158.557 218.945 158.557 220.789V251.711C158.502 252.714 158.212 253.691 157.709 254.561C157.206 255.432 156.506 256.171 155.664 256.721L123.46 275.311C121.864 276.233 120.568 275.485 120.568 273.641V242.726C120.622 241.723 120.913 240.746 121.415 239.876C121.918 239.005 122.618 238.265 123.46 237.716Z" fill="#E0E0E0"/>
<path d="M169.552 211.083L237.02 172.152C238.616 171.223 239.912 171.972 239.912 173.822V204.737C239.857 205.741 239.567 206.717 239.065 207.588C238.562 208.458 237.862 209.198 237.02 209.747L169.552 248.678C167.955 249.6 166.659 248.852 166.659 247.008V216.093C166.714 215.089 167.005 214.113 167.507 213.243C168.01 212.372 168.71 211.632 169.552 211.083Z" fill="#E0E0E0"/>
<path d="M123.46 284.71L174.656 255.151C176.259 254.229 177.555 254.884 177.555 256.614C177.483 257.585 177.184 258.526 176.682 259.361C176.179 260.195 175.487 260.899 174.662 261.417L123.46 290.976C121.864 291.898 120.568 291.243 120.568 289.513C120.639 288.541 120.938 287.6 121.441 286.766C121.943 285.932 122.635 285.227 123.46 284.71Z" fill="#E0E0E0"/>
<path d="M123.46 295.679L174.656 266.12C176.259 265.198 177.555 265.852 177.555 267.582C177.483 268.554 177.184 269.495 176.682 270.329C176.179 271.164 175.487 271.868 174.662 272.385L123.46 301.944C121.864 302.866 120.568 302.212 120.568 300.481C120.639 299.51 120.938 298.569 121.441 297.735C121.943 296.9 122.635 296.196 123.46 295.679Z" fill="#E0E0E0"/>
<path d="M123.46 306.64L174.656 277.081C176.259 276.16 177.555 276.814 177.555 278.544C177.483 279.516 177.184 280.457 176.682 281.291C176.179 282.126 175.487 282.83 174.662 283.347L123.46 312.906C121.864 313.828 120.568 313.174 120.568 311.443C120.639 310.472 120.938 309.531 121.441 308.697C121.943 307.862 122.635 307.158 123.46 306.64Z" fill="#E0E0E0"/>
<path d="M147.675 269.46C147.709 268.858 147.884 268.272 148.186 267.75C148.487 267.228 148.907 266.784 149.412 266.454L238.196 215.198C238.734 214.924 239.329 214.782 239.933 214.782C240.536 214.782 241.131 214.924 241.669 215.198L243.627 216.327C244.131 216.657 244.55 217.101 244.851 217.623C245.152 218.145 245.325 218.731 245.357 219.333V287.389C245.324 287.99 245.15 288.576 244.85 289.098C244.549 289.62 244.13 290.064 243.627 290.395L154.856 341.65C154.318 341.924 153.723 342.066 153.119 342.066C152.516 342.066 151.921 341.924 151.382 341.65L149.425 340.521C148.92 340.191 148.5 339.748 148.199 339.225C147.897 338.703 147.722 338.117 147.688 337.515L147.675 269.46Z" fill="#4822CC"/>
<path opacity="0.4" d="M148.176 267.749L153.106 270.595L244.842 217.623C244.549 217.094 244.129 216.646 243.62 216.32L241.696 215.198C241.16 214.925 240.567 214.782 239.966 214.782C239.364 214.782 238.772 214.925 238.236 215.198L149.412 266.454C148.897 266.774 148.472 267.22 148.176 267.749Z" fill="white"/>
<path opacity="0.1" d="M147.675 269.459V337.515C147.709 338.117 147.883 338.703 148.185 339.225C148.487 339.747 148.907 340.191 149.412 340.521L151.369 341.65C151.52 341.737 151.678 341.809 151.843 341.864C152.076 341.942 152.315 341.998 152.558 342.031C153.014 342.087 153.477 342.069 153.928 341.978C154.043 341.957 154.157 341.928 154.268 341.891L154.475 341.811C154.343 341.867 154.201 341.897 154.058 341.897C153.914 341.897 153.772 341.867 153.64 341.811C153.455 341.687 153.308 341.516 153.215 341.314C153.122 341.112 153.086 340.889 153.113 340.668V272.599C153.095 272.29 153.172 271.982 153.333 271.717C153.494 271.453 153.732 271.243 154.014 271.116L153.113 270.595L148.176 267.749C147.867 268.268 147.694 268.856 147.675 269.459Z" fill="black"/>
<path opacity="0.2" d="M153.113 270.595L194.228 285.959C195.65 286.489 197.21 286.519 198.651 286.044C200.092 285.57 201.329 284.618 202.157 283.347L208.757 273.234L245.176 217.436L210.073 273.614L245.357 287.422C245.327 288.036 245.141 288.631 244.816 289.152L209.979 273.788L202.284 286.046C201.432 287.408 200.117 288.417 198.581 288.888C197.045 289.359 195.39 289.261 193.921 288.611L188.456 286.2L153.64 341.824C153.455 341.701 153.308 341.529 153.215 341.327C153.122 341.126 153.086 340.902 153.113 340.682V339.553L188.303 286.16L153.113 270.595Z" fill="black"/>
<path d="M226.365 192.466V348.711C226.365 350.555 227.661 351.303 229.258 350.381L299.451 309.854C300.293 309.304 300.993 308.564 301.496 307.694C301.999 306.824 302.289 305.847 302.344 304.844V148.598C302.344 146.755 301.048 146.007 299.451 146.928L229.258 187.456C228.416 188.004 227.714 188.744 227.212 189.615C226.709 190.485 226.419 191.462 226.365 192.466Z" fill="#FAFAFA" stroke="#E0E0E0" stroke-width="1.16981" stroke-miterlimit="10"/>
<path d="M230.434 195.372C230.456 195.124 230.536 194.886 230.667 194.675C230.798 194.464 230.977 194.286 231.188 194.156L239.204 189.54C239.619 189.3 239.953 189.46 239.953 189.894C239.931 190.141 239.853 190.38 239.723 190.591C239.593 190.802 239.415 190.98 239.204 191.11L231.188 195.726C230.774 195.966 230.434 195.806 230.434 195.372Z" fill="#455A64"/>
<path d="M230.434 198.485C230.456 198.237 230.535 197.998 230.666 197.787C230.798 197.576 230.976 197.398 231.188 197.269L239.204 192.653C239.619 192.413 239.953 192.573 239.953 193C239.932 193.248 239.854 193.488 239.724 193.701C239.594 193.913 239.416 194.092 239.204 194.223L231.188 198.832C230.774 199.072 230.434 198.919 230.434 198.485Z" fill="#455A64"/>
<path d="M230.434 201.597C230.456 201.35 230.535 201.111 230.666 200.9C230.798 200.689 230.976 200.511 231.188 200.382L239.204 195.766C239.619 195.525 239.953 195.679 239.953 196.113C239.932 196.36 239.854 196.599 239.724 196.811C239.594 197.022 239.416 197.199 239.204 197.329L231.188 201.945C230.774 202.212 230.434 202.032 230.434 201.597Z" fill="#455A64"/>
<path d="M296.92 161.531V160.282C296.92 160.267 296.917 160.251 296.91 160.238C296.903 160.225 296.892 160.213 296.879 160.205C296.866 160.197 296.852 160.192 296.836 160.192C296.821 160.191 296.806 160.195 296.793 160.202L295.831 160.636C295.816 160.643 295.799 160.647 295.782 160.648C295.765 160.648 295.748 160.644 295.733 160.637C295.718 160.63 295.704 160.62 295.693 160.607C295.682 160.594 295.675 160.579 295.67 160.562C295.62 160.396 295.548 160.236 295.457 160.088C295.438 160.052 295.429 160.012 295.429 159.971C295.429 159.931 295.438 159.89 295.457 159.854L296.125 158.558C296.141 158.525 296.144 158.487 296.133 158.452C296.122 158.417 296.097 158.388 296.065 158.371L295.397 157.97C295.365 157.954 295.329 157.95 295.294 157.959C295.26 157.967 295.23 157.988 295.21 158.017L294.408 159.22C294.384 159.252 294.353 159.278 294.317 159.295C294.281 159.313 294.241 159.321 294.201 159.32C294.026 159.318 293.851 159.336 293.68 159.373C293.663 159.378 293.646 159.38 293.629 159.377C293.612 159.375 293.596 159.368 293.582 159.359C293.568 159.349 293.556 159.336 293.548 159.321C293.539 159.307 293.534 159.29 293.533 159.273L293.426 158.224C293.426 158.151 293.359 158.117 293.299 158.157L292.217 158.779C292.183 158.801 292.154 158.831 292.132 158.865C292.11 158.9 292.096 158.939 292.09 158.979L291.983 160.182C291.969 160.267 291.929 160.346 291.87 160.409C291.653 160.616 291.452 160.839 291.268 161.077C291.243 161.107 291.209 161.128 291.171 161.139C291.132 161.15 291.092 161.149 291.055 161.137L290.387 160.896C290.351 160.885 290.312 160.886 290.277 160.899C290.242 160.913 290.212 160.937 290.193 160.97L289.398 162.346C289.382 162.379 289.376 162.415 289.382 162.451C289.388 162.487 289.405 162.521 289.431 162.546L289.992 163.027C290.02 163.055 290.039 163.089 290.049 163.127C290.058 163.164 290.057 163.204 290.046 163.241C289.943 163.516 289.858 163.797 289.792 164.083C289.77 164.164 289.723 164.236 289.658 164.29L288.67 164.958C288.637 164.983 288.61 165.016 288.59 165.052C288.57 165.089 288.559 165.13 288.556 165.171V166.414C288.553 166.43 288.555 166.447 288.561 166.462C288.567 166.477 288.578 166.489 288.592 166.498C288.606 166.507 288.622 166.511 288.638 166.51C288.654 166.51 288.67 166.504 288.683 166.494L289.645 166.06C289.661 166.054 289.678 166.051 289.695 166.052C289.711 166.052 289.728 166.057 289.743 166.064C289.758 166.072 289.772 166.082 289.782 166.095C289.793 166.109 289.801 166.124 289.805 166.14C289.856 166.307 289.928 166.466 290.019 166.614C290.037 166.651 290.047 166.691 290.047 166.731C290.047 166.772 290.037 166.812 290.019 166.848L289.351 168.137C289.336 168.171 289.334 168.21 289.345 168.246C289.356 168.281 289.379 168.312 289.411 168.331L290.079 168.732C290.111 168.748 290.147 168.752 290.182 168.743C290.216 168.735 290.246 168.714 290.266 168.685L291.068 167.483C291.092 167.451 291.123 167.425 291.159 167.407C291.195 167.39 291.235 167.381 291.275 167.383C291.45 167.384 291.625 167.366 291.796 167.329C291.812 167.324 291.83 167.323 291.847 167.325C291.863 167.328 291.88 167.334 291.894 167.344C291.908 167.353 291.92 167.366 291.928 167.381C291.937 167.396 291.942 167.412 291.943 167.429L292.05 168.478C292.05 168.552 292.11 168.585 292.177 168.545L293.259 167.924C293.293 167.9 293.322 167.869 293.344 167.833C293.366 167.798 293.38 167.758 293.386 167.717L293.493 166.514C293.506 166.43 293.546 166.353 293.606 166.294C293.823 166.086 294.024 165.863 294.208 165.626C294.233 165.596 294.267 165.574 294.305 165.563C294.343 165.553 294.384 165.553 294.421 165.566L295.089 165.806C295.125 165.817 295.164 165.816 295.199 165.803C295.234 165.79 295.264 165.765 295.283 165.733L296.078 164.357C296.095 164.322 296.1 164.284 296.093 164.246C296.086 164.209 296.066 164.175 296.038 164.149L295.483 163.675C295.456 163.648 295.436 163.613 295.427 163.576C295.418 163.538 295.419 163.499 295.43 163.461C295.533 163.187 295.618 162.906 295.684 162.62C295.703 162.537 295.75 162.464 295.817 162.413L296.806 161.745C296.838 161.719 296.865 161.686 296.885 161.649C296.904 161.613 296.916 161.572 296.92 161.531ZM292.691 165.472C291.682 166.06 290.868 165.586 290.868 164.423C290.899 163.789 291.08 163.171 291.398 162.62C291.715 162.07 292.158 161.602 292.691 161.257C293.7 160.676 294.515 161.15 294.515 162.312C294.482 162.946 294.3 163.562 293.983 164.112C293.666 164.661 293.223 165.127 292.691 165.472Z" fill="#37474F"/>
<path d="M264.355 192.326C272.558 187.59 279.204 191.431 279.204 200.903C279.204 210.375 272.558 221.885 264.355 226.621C256.152 231.357 249.505 227.516 249.505 218.05C249.505 208.585 256.152 197.062 264.355 192.326Z" fill="#455A64"/>
<path d="M264.254 199.781C266.926 198.244 269.071 199.487 269.071 202.559C268.979 204.23 268.495 205.855 267.659 207.303C266.822 208.752 265.656 209.982 264.254 210.896C261.582 212.432 259.432 211.19 259.432 208.117C259.523 206.446 260.008 204.82 260.846 203.372C261.684 201.923 262.852 200.693 264.254 199.781Z" fill="#4822CC"/>
<path d="M273.76 216.16C273.76 211.117 270.213 209.066 265.844 211.591L263.072 213.167C258.703 215.692 255.156 221.851 255.156 226.881V228.264C255.981 228.528 256.842 228.661 257.708 228.658C260.052 228.579 262.334 227.888 264.328 226.654C268.143 224.311 271.37 221.123 273.76 217.336V216.16Z" fill="#4822CC"/>
<path d="M250.955 240.709L277.768 225.231C278.563 224.77 279.211 225.098 279.211 225.966C279.175 226.451 279.026 226.92 278.775 227.337C278.524 227.753 278.179 228.105 277.768 228.364L250.961 243.842C250.16 244.309 249.512 243.975 249.512 243.114C249.546 242.628 249.695 242.157 249.946 241.739C250.196 241.321 250.542 240.968 250.955 240.709Z" fill="#4822CC"/>
<path d="M248.076 251.784L280.634 232.94C281.435 232.479 282.083 232.806 282.083 233.675C282.047 234.16 281.897 234.63 281.645 235.047C281.393 235.464 281.047 235.815 280.634 236.073L248.076 254.917C247.274 255.378 246.626 255.051 246.626 254.182C246.662 253.697 246.812 253.227 247.064 252.81C247.316 252.394 247.663 252.042 248.076 251.784Z" fill="#455A64"/>
<path d="M281.502 248.13L290.62 242.867C291.101 242.593 291.489 242.72 291.489 243.154C291.453 243.42 291.355 243.674 291.205 243.897C291.054 244.119 290.854 244.304 290.62 244.436L281.502 249.7C281.028 249.974 280.634 249.847 280.634 249.42C280.67 249.153 280.768 248.898 280.918 248.674C281.069 248.451 281.269 248.265 281.502 248.13Z" fill="#37474F"/>
<path d="M235.951 271.303L249.345 263.575C250.14 263.114 250.787 263.488 250.787 264.41V273.601C250.76 274.103 250.615 274.59 250.364 275.026C250.114 275.461 249.764 275.831 249.345 276.106L235.951 283.835C235.156 284.296 234.508 283.922 234.508 283V273.808C234.536 273.307 234.681 272.819 234.931 272.384C235.182 271.949 235.531 271.579 235.951 271.303Z" fill="#4822CC"/>
<path d="M238.089 272.586L247.207 267.322C247.688 267.048 248.075 267.175 248.075 267.603C248.04 267.87 247.944 268.126 247.793 268.349C247.642 268.573 247.442 268.759 247.207 268.892L238.089 274.156C237.608 274.43 237.22 274.303 237.22 273.875C237.256 273.608 237.352 273.352 237.503 273.128C237.654 272.905 237.854 272.719 238.089 272.586Z" fill="#FAFAFA"/>
<path d="M237.22 277.222V279.894C237.22 280.448 237.608 280.669 238.089 280.395L247.207 275.131C247.46 274.966 247.67 274.744 247.821 274.483C247.972 274.222 248.059 273.929 248.075 273.628V270.956C248.075 270.401 247.688 270.181 247.207 270.455L238.089 275.692C237.833 275.86 237.621 276.086 237.47 276.352C237.319 276.618 237.234 276.916 237.22 277.222Z" fill="#FAFAFA"/>
<path d="M257.661 258.772L271.021 251.043C271.823 250.582 272.471 250.956 272.471 251.878V261.069C272.444 261.572 272.298 262.06 272.046 262.496C271.794 262.931 271.443 263.301 271.021 263.574L257.661 271.303C256.86 271.764 256.218 271.39 256.218 270.468V261.277C256.244 260.775 256.389 260.286 256.639 259.851C256.89 259.416 257.24 259.046 257.661 258.772Z" fill="#4822CC"/>
<path d="M259.799 260.054L268.917 254.79C269.391 254.517 269.779 254.643 269.779 255.071C269.743 255.337 269.647 255.592 269.498 255.816C269.348 256.039 269.15 256.226 268.917 256.36L259.799 261.624C259.318 261.898 258.93 261.771 258.93 261.337C258.967 261.071 259.064 260.816 259.214 260.594C259.365 260.371 259.565 260.187 259.799 260.054Z" fill="#FAFAFA"/>
<path d="M258.93 264.69V267.362C258.93 267.917 259.318 268.137 259.799 267.863L268.917 262.599C269.168 262.433 269.376 262.211 269.526 261.95C269.676 261.689 269.762 261.397 269.779 261.096V258.424C269.779 257.87 269.385 257.649 268.91 257.923L259.792 263.187C259.541 263.352 259.332 263.575 259.182 263.836C259.032 264.097 258.946 264.39 258.93 264.69Z" fill="#FAFAFA"/>
<path d="M279.371 246.24L292.731 238.504C293.526 238.044 294.174 238.418 294.174 239.339V248.538C294.147 249.039 294.002 249.527 293.751 249.962C293.5 250.397 293.151 250.767 292.731 251.043L279.371 258.772C278.57 259.233 277.922 258.858 277.922 257.937V248.745C277.949 248.243 278.095 247.754 278.346 247.319C278.598 246.883 278.949 246.514 279.371 246.24Z" fill="#4822CC"/>
<path d="M281.502 247.523L290.62 242.292C291.101 242.012 291.489 242.138 291.489 242.573C291.454 242.839 291.358 243.094 291.207 243.317C291.056 243.54 290.855 243.724 290.62 243.855L281.502 249.119C281.028 249.4 280.634 249.273 280.634 248.838C280.665 248.566 280.76 248.305 280.911 248.077C281.062 247.848 281.264 247.658 281.502 247.523Z" fill="#FAFAFA"/>
<path d="M280.634 252.158V254.83C280.634 255.378 281.028 255.605 281.502 255.331L290.62 250.061C290.874 249.897 291.084 249.675 291.235 249.414C291.386 249.152 291.473 248.859 291.489 248.558V245.886C291.489 245.331 291.101 245.104 290.62 245.385L281.502 250.649C281.249 250.814 281.038 251.037 280.887 251.3C280.736 251.562 280.65 251.856 280.634 252.158Z" fill="#FAFAFA"/>
<path d="M237.401 292.392L291.308 261.27C292.912 260.348 294.201 261.003 294.201 262.733C294.131 263.705 293.833 264.646 293.33 265.481C292.827 266.315 292.135 267.02 291.308 267.536L237.401 298.658C235.804 299.58 234.508 298.925 234.508 297.195C234.58 296.224 234.879 295.283 235.381 294.448C235.884 293.614 236.576 292.909 237.401 292.392Z" fill="#E0E0E0"/>
<path d="M237.401 304.93L291.308 273.808C292.912 272.886 294.201 273.541 294.201 275.271C294.131 276.243 293.833 277.185 293.33 278.019C292.827 278.854 292.135 279.558 291.308 280.074L237.401 311.203C235.804 312.125 234.508 311.47 234.508 309.733C234.58 308.762 234.879 307.821 235.381 306.987C235.884 306.152 236.576 305.448 237.401 304.93Z" fill="#E0E0E0"/>
<path d="M254.949 310.468L273.76 299.606C274.562 299.145 275.21 299.52 275.21 300.441V306.5C275.182 307.002 275.037 307.491 274.785 307.926C274.533 308.362 274.182 308.731 273.76 309.005L254.949 319.867C254.148 320.328 253.5 319.954 253.5 319.032V312.973C253.527 312.471 253.672 311.982 253.924 311.547C254.176 311.112 254.527 310.742 254.949 310.468Z" fill="#4822CC"/>
<path d="M238.576 293.321C238.185 293.581 237.86 293.929 237.628 294.337C237.396 294.746 237.263 295.203 237.24 295.672C237.24 296.534 237.848 296.888 238.576 296.454C238.968 296.194 239.292 295.845 239.525 295.437C239.757 295.029 239.889 294.571 239.912 294.102C239.933 293.24 239.325 292.886 238.576 293.321Z" fill="#FAFAFA"/>
<path d="M242.878 290.836C242.486 291.095 242.161 291.443 241.929 291.851C241.697 292.26 241.564 292.718 241.542 293.187C241.542 294.049 242.144 294.403 242.878 293.969C243.27 293.709 243.594 293.36 243.827 292.952C244.059 292.544 244.191 292.086 244.214 291.617C244.235 290.755 243.627 290.388 242.878 290.836Z" fill="#FAFAFA"/>
<path d="M247.174 288.384C246.782 288.644 246.458 288.992 246.226 289.401C245.994 289.809 245.861 290.266 245.838 290.735C245.838 291.597 246.446 291.951 247.174 291.517C247.565 291.257 247.89 290.909 248.122 290.5C248.354 290.092 248.487 289.635 248.51 289.166C248.53 288.271 247.922 287.916 247.174 288.384Z" fill="#FAFAFA"/>
<path d="M251.476 285.866C251.084 286.125 250.759 286.473 250.527 286.882C250.295 287.29 250.162 287.748 250.14 288.217C250.14 289.079 250.748 289.433 251.476 288.999C251.867 288.739 252.192 288.39 252.424 287.982C252.656 287.574 252.789 287.116 252.812 286.647C252.832 285.785 252.224 285.431 251.476 285.866Z" fill="#FAFAFA"/>
<path d="M255.771 283.381C255.38 283.641 255.055 283.989 254.823 284.397C254.591 284.806 254.458 285.263 254.435 285.732C254.435 286.594 255.043 286.948 255.771 286.514C256.162 286.254 256.487 285.905 256.719 285.497C256.951 285.089 257.084 284.631 257.107 284.162C257.127 283.301 256.519 282.946 255.771 283.381Z" fill="#FAFAFA"/>
<path d="M260.066 280.896C259.675 281.156 259.35 281.504 259.118 281.912C258.886 282.321 258.753 282.778 258.73 283.247C258.73 284.109 259.338 284.463 260.066 284.029C260.458 283.77 260.783 283.422 261.016 283.013C261.248 282.604 261.38 282.147 261.402 281.677C261.422 280.816 260.821 280.462 260.066 280.896Z" fill="#FAFAFA"/>
<path d="M264.368 278.411C263.977 278.671 263.652 279.019 263.42 279.427C263.188 279.836 263.055 280.293 263.032 280.762C263.032 281.624 263.64 281.978 264.368 281.544C264.759 281.284 265.084 280.936 265.316 280.527C265.548 280.119 265.681 279.662 265.704 279.192C265.744 278.364 265.116 277.977 264.368 278.411Z" fill="#FAFAFA"/>
<path d="M238.576 305.866C238.186 306.126 237.862 306.475 237.63 306.883C237.398 307.291 237.265 307.748 237.24 308.217C237.24 309.085 237.848 309.433 238.576 308.999C238.968 308.74 239.292 308.393 239.524 307.986C239.757 307.578 239.889 307.122 239.912 306.654C239.933 305.785 239.325 305.438 238.576 305.866Z" fill="#FAFAFA"/>
<path d="M242.878 303.381C242.487 303.64 242.162 303.988 241.93 304.397C241.698 304.805 241.565 305.263 241.542 305.732C241.542 306.6 242.144 306.948 242.878 306.514C243.27 306.255 243.594 305.908 243.826 305.501C244.059 305.093 244.191 304.637 244.214 304.169C244.235 303.3 243.627 302.953 242.878 303.381Z" fill="#FAFAFA"/>
<path d="M247.174 300.896C246.783 301.156 246.459 301.505 246.227 301.913C245.995 302.321 245.862 302.778 245.838 303.247C245.838 304.115 246.446 304.463 247.174 304.029C247.565 303.77 247.89 303.423 248.122 303.016C248.354 302.608 248.487 302.152 248.51 301.684C248.53 300.815 247.922 300.461 247.174 300.896Z" fill="#FAFAFA"/>
<path d="M251.476 298.404C251.084 298.664 250.76 299.012 250.528 299.421C250.296 299.829 250.163 300.286 250.14 300.755C250.14 301.624 250.748 301.971 251.476 301.537C251.867 301.279 252.192 300.932 252.424 300.524C252.656 300.117 252.789 299.661 252.812 299.192C252.832 298.331 252.224 297.977 251.476 298.404Z" fill="#FAFAFA"/>
<path d="M255.771 295.926C255.38 296.186 255.055 296.534 254.823 296.942C254.591 297.351 254.458 297.808 254.435 298.277C254.435 299.146 255.043 299.493 255.771 299.059C256.162 298.8 256.487 298.453 256.719 298.046C256.951 297.639 257.084 297.182 257.107 296.714C257.127 295.846 256.519 295.492 255.771 295.926Z" fill="#FAFAFA"/>
<path d="M260.066 293.441C259.675 293.701 259.35 294.049 259.118 294.457C258.886 294.866 258.753 295.323 258.73 295.792C258.73 296.661 259.338 297.008 260.066 296.574C260.459 296.315 260.785 295.968 261.017 295.559C261.249 295.15 261.381 294.692 261.402 294.222C261.422 293.361 260.821 293.007 260.066 293.441Z" fill="#FAFAFA"/>
<path d="M264.368 290.956C263.977 291.216 263.652 291.564 263.42 291.972C263.188 292.381 263.055 292.838 263.032 293.307C263.032 294.176 263.64 294.523 264.368 294.089C264.76 293.829 265.085 293.481 265.317 293.073C265.549 292.664 265.682 292.207 265.704 291.737C265.744 290.876 265.116 290.522 264.368 290.956Z" fill="#FAFAFA"/>
<path d="M324.655 319.199C322.346 319.215 320.075 318.615 318.075 317.462C313.259 314.677 310.5 308.865 310.5 301.497C310.5 288.551 318.73 273.661 329.204 267.596C334.862 264.329 340.48 263.975 345.029 266.601C349.839 269.379 352.604 275.198 352.604 282.559C352.604 295.505 344.374 310.401 333.867 316.467C331.088 318.167 327.912 319.109 324.655 319.199ZM338.456 274.189C336.83 274.304 335.258 274.82 333.88 275.692C326.265 280.067 319.852 291.898 319.852 301.497C319.852 305.385 320.941 308.337 322.764 309.386C324.842 310.588 327.734 309.279 329.264 308.391C336.899 303.989 343.339 292.158 343.339 282.559C343.339 278.671 342.25 275.725 340.426 274.67C339.825 274.334 339.144 274.168 338.456 274.189Z" fill="#455A64"/>
<path d="M344.975 284.63C344.975 277.355 340.393 274.67 340.393 274.67C342.217 275.725 343.305 278.678 343.305 282.559C343.305 292.158 336.866 303.988 329.231 308.391C327.701 309.279 324.815 310.588 322.731 309.386C322.731 309.386 326.599 311.791 331.943 308.872C339.678 304.656 344.975 294.229 344.975 284.63Z" fill="#37474F"/>
<path d="M337.628 193.722C337.581 192.475 337.053 191.294 336.154 190.428C335.255 189.562 334.056 189.078 332.808 189.078C331.56 189.078 330.36 189.562 329.462 190.428C328.563 191.294 328.035 192.475 327.988 193.722V270.348C328.023 270.778 328.172 271.19 328.42 271.542C328.667 271.895 329.005 272.174 329.398 272.352C330.454 272.886 331.621 273.164 332.805 273.164C333.988 273.164 335.155 272.886 336.211 272.352C336.606 272.176 336.945 271.897 337.194 271.544C337.443 271.192 337.593 270.778 337.628 270.348V193.735V193.722Z" fill="#37474F"/>
<path d="M333.78 210.849C333.727 209.883 333.447 208.943 332.963 208.105C332.479 207.267 331.805 206.555 330.994 206.026C330.708 205.817 330.37 205.69 330.016 205.659C329.663 205.628 329.308 205.695 328.99 205.853L317.113 212.7L316.826 212.867C316.782 212.885 316.742 212.909 316.706 212.94C316.503 213.077 316.313 213.231 316.138 213.401C315.468 214.069 315.061 214.955 314.99 215.898C314.92 216.842 315.191 217.779 315.754 218.539C316.317 219.299 317.134 219.831 318.057 220.038C318.98 220.245 319.947 220.113 320.78 219.667L321.008 219.533L332.971 212.646C333.253 212.445 333.476 212.173 333.618 211.857C333.76 211.541 333.816 211.193 333.78 210.849Z" fill="#455A64"/>
<path d="M333.78 230.034C333.726 229.069 333.446 228.13 332.962 227.294C332.478 226.457 331.804 225.746 330.994 225.218C330.709 225.006 330.371 224.877 330.018 224.845C329.664 224.813 329.308 224.88 328.99 225.038L315.056 233.054L314.769 233.221C314.725 233.24 314.685 233.264 314.648 233.294C314.445 233.429 314.255 233.583 314.081 233.755C313.645 234.188 313.317 234.717 313.122 235.299C312.926 235.881 312.869 236.5 312.955 237.108C313.04 237.716 313.266 238.296 313.615 238.802C313.963 239.307 314.425 239.725 314.962 240.021C315.542 240.329 316.189 240.489 316.846 240.488C317.501 240.491 318.146 240.331 318.723 240.021C318.803 239.981 318.877 239.927 318.95 239.887L332.978 231.871C333.265 231.666 333.491 231.386 333.632 231.063C333.773 230.74 333.824 230.384 333.78 230.034Z" fill="#455A64"/>
<path d="M105.782 71.648C103.755 71.648 101.963 71.2533 100.406 70.464C98.8485 69.6747 97.6432 68.5013 96.7899 66.944C95.9579 65.408 95.6165 63.5627 95.7659 61.408C95.8939 59.36 96.6192 56.8747 97.9419 53.952L101.046 55.36C100.47 56.6613 100.033 57.792 99.7339 58.752C99.4565 59.6907 99.3179 60.6507 99.3179 61.632C99.3179 63.4027 99.8619 64.7253 100.95 65.6C102.059 66.4747 103.67 66.912 105.782 66.912C107.51 66.912 109.057 66.6027 110.422 65.984C111.787 65.3867 112.769 64.6293 113.366 63.712C113.387 63.648 112.715 63.4453 111.35 63.104L109.654 62.624C107.969 62.1333 106.774 61.5467 106.07 60.864C105.366 60.1813 105.014 59.2213 105.014 57.984C105.014 56.256 105.451 54.6027 106.326 53.024C107.201 51.4453 108.353 50.1653 109.782 49.184C111.211 48.2027 112.726 47.712 114.326 47.712C114.966 47.712 115.617 47.808 116.278 48C116.939 48.1707 117.398 48.384 117.654 48.64L116.31 52.768C116.097 52.6827 115.787 52.608 115.382 52.544C114.977 52.48 114.614 52.448 114.294 52.448C113.419 52.448 112.577 52.64 111.766 53.024C110.977 53.3867 110.305 53.8773 109.75 54.496C109.195 55.0933 108.822 55.744 108.63 56.448C108.609 56.5333 108.598 56.64 108.598 56.768C108.598 57.1307 108.843 57.4507 109.334 57.728C109.846 57.984 110.795 58.272 112.182 58.592C114.123 59.04 115.435 59.6053 116.118 60.288C116.822 60.9493 117.174 61.728 117.174 62.624C117.174 64.1813 116.673 65.6533 115.67 67.04C114.667 68.4267 113.291 69.536 111.542 70.368C109.814 71.2213 107.894 71.648 105.782 71.648ZM130.912 64C130.229 64 129.6 63.872 129.024 63.616C128.896 65.6213 128.021 67.4667 126.4 69.152C124.778 70.8587 122.634 72.256 119.968 73.344L118.016 69.312C119.424 68.736 120.714 68.064 121.888 67.296C123.061 66.5493 123.978 65.8027 124.64 65.056C125.322 64.3093 125.664 63.6693 125.664 63.136C125.664 62.2613 125.098 59.8827 123.968 56L123.808 55.36L127.392 53.952C127.626 54.6133 127.904 55.5627 128.224 56.8C128.501 57.6747 128.842 58.304 129.248 58.688C129.674 59.0507 130.229 59.232 130.912 59.232H131.2L131.456 61.632L131.2 64H130.912ZM130.918 59.232H132.614C134.15 59.232 135.249 59.0613 135.91 58.72C136.593 58.3787 136.934 57.8667 136.934 57.184C136.934 56.736 136.71 55.8613 136.262 54.56C135.814 53.2373 135.462 52.2667 135.206 51.648L138.566 49.792C138.971 50.688 139.387 51.8933 139.814 53.408C140.262 54.9013 140.486 56.2133 140.486 57.344C140.486 59.52 139.803 61.1733 138.438 62.304C137.094 63.4347 135.153 64 132.614 64H130.918V59.232ZM135.014 66.496C135.675 67.136 136.326 67.7867 136.966 68.448L137.958 69.44L135.014 72.384L132.038 69.44L135.014 66.496ZM139.578 69.312C140.986 68.736 142.277 68.064 143.45 67.296C144.623 66.5493 145.541 65.8027 146.202 65.056C146.885 64.3093 147.226 63.6693 147.226 63.136C147.226 62.2613 146.661 59.8827 145.53 56L145.37 55.36L148.954 53.952C149.466 55.424 149.871 57.0027 150.17 58.688C150.469 60.352 150.618 61.8347 150.618 63.136C150.618 65.2267 149.797 67.1573 148.154 68.928C146.511 70.72 144.303 72.192 141.53 73.344L139.578 69.312ZM160.85 64C158.503 64 156.807 63.328 155.762 61.984C154.738 60.64 154.226 58.592 154.226 55.84C154.205 53.216 154.119 50.56 153.97 47.872C153.842 45.1627 153.65 42.9333 153.394 41.184L157.362 40.32C157.575 41.8773 157.746 43.9893 157.874 46.656C158.002 49.3013 158.066 51.7547 158.066 54.016V55.232C158.045 56.32 158.098 57.1413 158.226 57.696C158.354 58.2507 158.61 58.6453 158.994 58.88C159.399 59.1147 160.018 59.232 160.85 59.232H161.01L161.266 61.632L161.01 64H160.85ZM160.543 59.232H161.631C163.444 59.232 164.948 59.0933 166.143 58.816C167.338 58.5173 168.127 58.1227 168.511 57.632C168.34 56.608 167.711 55.392 166.623 53.984C165.535 52.576 163.935 51.0187 161.823 49.312L162.271 45.152L174.143 40.16L175.423 43.968L166.175 47.904C166.879 48.5013 167.679 49.3227 168.575 50.368C169.492 51.392 170.303 52.5547 171.007 53.856C171.732 55.1573 172.095 56.416 172.095 57.632C172.095 57.9947 172.042 58.4107 171.935 58.88C171.508 60.608 170.378 61.8987 168.543 62.752C166.708 63.584 164.404 64 161.631 64H160.543V59.232ZM193.959 64.384C190.247 64.3627 187.324 63.7653 185.191 62.592C183.057 61.4187 181.895 59.7973 181.703 57.728C181.681 57.5573 181.671 57.3013 181.671 56.96C181.671 56.0427 181.799 55.0507 182.055 53.984C182.311 52.9173 182.62 51.968 182.983 51.136L186.055 52.608C185.436 54.5493 185.159 55.9467 185.223 56.8C185.372 57.6107 186.215 58.2827 187.751 58.816C189.308 59.328 191.431 59.5947 194.119 59.616C196.06 59.616 197.703 59.5093 199.047 59.296C200.412 59.0827 201.436 58.8373 202.119 58.56C202.801 58.2827 203.164 58.0587 203.207 57.888C203.036 56.8853 202.737 55.776 202.311 54.56C201.905 53.3227 201.553 52.352 201.255 51.648L204.615 49.792C205.127 50.944 205.575 52.256 205.959 53.728C206.343 55.1787 206.535 56.4587 206.535 57.568C206.535 59.7867 205.415 61.472 203.175 62.624C200.935 63.7547 197.969 64.3413 194.279 64.384H193.991H193.959ZM194.023 66.784C194.684 67.424 195.335 68.0747 195.975 68.736L196.967 69.728L194.023 72.672L191.047 69.728L194.023 66.784ZM216.756 64C214.409 64 212.713 63.328 211.668 61.984C210.644 60.64 210.132 58.592 210.132 55.84C210.111 53.216 210.025 50.56 209.876 47.872C209.748 45.1627 209.556 42.9333 209.3 41.184L213.268 40.32C213.481 41.8773 213.652 43.9893 213.78 46.656C213.908 49.3013 213.972 51.7547 213.972 54.016V55.232C213.951 56.32 214.004 57.1413 214.132 57.696C214.26 58.2507 214.516 58.6453 214.9 58.88C215.305 59.1147 215.924 59.232 216.756 59.232H216.916L217.172 61.632L216.916 64H216.756ZM242.846 64C241.118 64 239.71 63.296 238.622 61.888C238.088 62.5493 237.48 63.0613 236.798 63.424C236.115 63.7867 235.379 63.9787 234.59 64H234.494H234.398C233.416 63.9787 232.574 63.7333 231.87 63.264C231.166 62.7947 230.622 62.1227 230.238 61.248C229.086 63.0613 227.667 63.9787 225.982 64H225.822C224.904 64 224.104 63.7547 223.422 63.264C222.739 62.7733 222.259 62.1227 221.982 61.312C221.299 62.1867 220.51 62.8587 219.614 63.328C218.739 63.776 217.8 64 216.798 64H216.702L216.446 61.632L216.702 59.232H216.862C217.523 59.232 218.174 59.0933 218.814 58.816C219.454 58.5173 219.934 58.1547 220.254 57.728C220.702 57.216 221.043 56.64 221.278 56C221.512 55.36 221.726 54.6773 221.918 53.952L225.246 54.304C225.224 54.4107 225.107 54.8373 224.894 55.584C224.68 56.3093 224.574 56.9707 224.574 57.568C224.574 58.6773 225.022 59.232 225.918 59.232H226.014C227.102 59.232 227.944 58.6453 228.542 57.472C228.947 56.6613 229.31 55.4133 229.63 53.728L232.926 53.888C232.691 55.296 232.574 56.2987 232.574 56.896C232.574 58.4533 233.224 59.232 234.526 59.232C235.016 59.232 235.486 59.136 235.934 58.944C236.403 58.752 236.766 58.5067 237.022 58.208C236.83 57.4187 236.542 55.9787 236.158 53.888L239.454 52.992C239.688 54.3573 239.88 55.392 240.03 56.096C240.2 56.8 240.35 57.3547 240.478 57.76C240.648 58.2507 240.915 58.624 241.278 58.88C241.662 59.1147 242.184 59.232 242.846 59.232H243.038L243.262 61.632L243.006 64H242.846ZM242.667 59.232H245.067C247.478 59.232 249.739 58.9867 251.851 58.496C253.963 57.984 256.193 57.1307 258.539 55.936C257.963 55.7013 257.206 55.3493 256.267 54.88C254.39 53.92 252.758 53.44 251.371 53.44C250.561 53.44 249.835 53.664 249.195 54.112C248.577 54.5387 248.097 55.0293 247.755 55.584L245.067 53.632C246.689 50.4533 248.833 48.864 251.499 48.864C252.395 48.864 253.259 49.0133 254.091 49.312C254.923 49.6107 256.139 50.1653 257.739 50.976C258.977 51.616 260.022 52.1067 260.875 52.448C261.75 52.7893 262.71 53.0667 263.755 53.28L263.915 57.568C263.339 57.7387 262.209 58.2827 260.523 59.2C260.395 59.2853 260.278 59.36 260.171 59.424C260.065 59.4667 259.969 59.5093 259.883 59.552C257.771 60.6613 255.937 61.5253 254.379 62.144C252.822 62.7627 251.233 63.232 249.611 63.552C247.99 63.8507 246.155 64 244.107 64H242.667V59.232ZM287.646 64C286.601 64 285.694 63.8293 284.926 63.488C284.179 63.1467 283.55 62.6133 283.038 61.888C281.758 62.272 280.521 62.464 279.326 62.464C277.406 62.464 275.827 62.0053 274.59 61.088C273.374 60.1493 272.766 58.88 272.766 57.28C272.766 55.424 273.449 53.856 274.814 52.576C276.179 51.296 278.014 50.1867 280.318 49.248L280.094 47.328L283.806 46.528C284.297 51.0933 284.638 54.1013 284.83 55.552C284.958 56.6187 285.107 57.408 285.278 57.92C285.47 58.432 285.737 58.784 286.078 58.976C286.441 59.1467 286.963 59.232 287.646 59.232H288.19L288.446 61.632L288.19 64H287.646ZM276.286 56.384C276.222 56.832 276.446 57.216 276.958 57.536C277.491 57.856 278.195 58.016 279.07 58.016C279.774 58.016 280.574 57.888 281.47 57.632C281.406 57.312 281.331 56.832 281.246 56.192L280.862 53.408C279.646 53.792 278.59 54.272 277.694 54.848C276.798 55.4027 276.329 55.9147 276.286 56.384ZM287.824 59.232H289.52C291.056 59.232 292.155 59.0613 292.816 58.72C293.499 58.3787 293.84 57.8667 293.84 57.184C293.84 56.736 293.616 55.8613 293.168 54.56C292.72 53.2373 292.368 52.2667 292.112 51.648L295.472 49.792C295.878 50.688 296.294 51.8933 296.72 53.408C297.168 54.9013 297.392 56.2133 297.392 57.344C297.392 59.52 296.71 61.1733 295.344 62.304C294 63.4347 292.059 64 289.52 64H287.824V59.232ZM290.32 66.528C290.982 67.168 291.632 67.8187 292.272 68.48L293.264 69.472L290.32 72.416L287.344 69.472L290.32 66.528ZM313.554 64.16C311.698 64.16 310.151 63.8827 308.914 63.328C307.676 62.752 306.716 62.176 306.034 61.6L307.762 58.24C308.53 58.624 309.319 58.9547 310.13 59.232C310.94 59.5093 311.932 59.648 313.106 59.648C314.258 59.6267 315.196 59.4987 315.922 59.264C316.668 59.008 317.159 58.7307 317.394 58.432C317.415 58.3893 317.426 58.304 317.426 58.176C317.426 57.728 317.223 57.1413 316.818 56.416C316.434 55.6693 315.74 54.7947 314.738 53.792C313.756 52.768 312.434 51.6907 310.77 50.56L313.074 46.368C315.548 48.1173 317.5 50.0267 318.93 52.096C320.38 54.1653 321.106 56.1387 321.106 58.016C321.106 58.912 320.935 59.7333 320.594 60.48C320.082 61.6747 319.175 62.592 317.874 63.232C316.572 63.8507 315.132 64.16 313.554 64.16ZM323.259 69.216C326.246 68.576 328.539 67.8293 330.139 66.976C331.76 66.144 332.816 65.1307 333.307 63.936C332.731 64.0213 332.091 64.064 331.387 64.064C329.83 64.064 328.422 63.7973 327.163 63.264C325.926 62.7093 325.051 61.888 324.539 60.8C324.155 59.968 323.963 59.0507 323.963 58.048C323.963 56.7893 324.23 55.5413 324.763 54.304C325.296 53.0453 326.032 52.0213 326.971 51.232C327.91 50.4213 328.934 50.016 330.043 50.016C331.323 50.016 332.486 50.5707 333.531 51.68C334.576 52.7893 335.398 54.24 335.995 56.032C336.592 57.824 336.891 59.6907 336.891 61.632C336.891 64.6187 335.814 67.136 333.659 69.184C331.504 71.232 328.528 72.6187 324.731 73.344L323.259 69.216ZM327.483 58.112C327.803 58.5387 328.4 58.8693 329.275 59.104C330.15 59.3173 331.131 59.424 332.219 59.424C332.731 59.424 333.115 59.4133 333.371 59.392C333.072 57.9413 332.582 56.7253 331.899 55.744C331.238 54.7627 330.491 54.272 329.659 54.272C329.232 54.272 328.827 54.432 328.443 54.752C328.08 55.072 327.782 55.4667 327.547 55.936C327.334 56.4053 327.227 56.8427 327.227 57.248C327.227 57.5893 327.312 57.8773 327.483 58.112ZM337.234 69.312C338.642 68.736 339.933 68.064 341.106 67.296C342.28 66.5493 343.197 65.8027 343.858 65.056C344.541 64.3093 344.882 63.6693 344.882 63.136C344.882 62.2613 344.317 59.8827 343.186 56L343.026 55.36L346.61 53.952C347.122 55.424 347.528 57.0027 347.826 58.688C348.125 60.352 348.274 61.8347 348.274 63.136C348.274 65.2267 347.453 67.1573 345.81 68.928C344.168 70.72 341.96 72.192 339.186 73.344L337.234 69.312ZM350.634 69.216C353.621 68.576 355.914 67.8293 357.514 66.976C359.135 66.144 360.191 65.1307 360.682 63.936C360.106 64.0213 359.466 64.064 358.762 64.064C357.205 64.064 355.797 63.7973 354.538 63.264C353.301 62.7093 352.426 61.888 351.914 60.8C351.53 59.968 351.338 59.0507 351.338 58.048C351.338 56.7893 351.605 55.5413 352.138 54.304C352.671 53.0453 353.407 52.0213 354.346 51.232C355.285 50.4213 356.309 50.016 357.418 50.016C358.698 50.016 359.861 50.5707 360.906 51.68C361.951 52.7893 362.773 54.24 363.37 56.032C363.967 57.824 364.266 59.6907 364.266 61.632C364.266 64.6187 363.189 67.136 361.034 69.184C358.879 71.232 355.903 72.6187 352.106 73.344L350.634 69.216ZM354.858 58.112C355.178 58.5387 355.775 58.8693 356.65 59.104C357.525 59.3173 358.506 59.424 359.594 59.424C360.106 59.424 360.49 59.4133 360.746 59.392C360.447 57.9413 359.957 56.7253 359.274 55.744C358.613 54.7627 357.866 54.272 357.034 54.272C356.607 54.272 356.202 54.432 355.818 54.752C355.455 55.072 355.157 55.4667 354.922 55.936C354.709 56.4053 354.602 56.8427 354.602 57.248C354.602 57.5893 354.687 57.8773 354.858 58.112Z" fill="#7B7B7B"/>
</g>
<path d="M728.712 308.232H702.024L697.608 321H683.496L707.592 253.896H723.24L747.336 321H733.128L728.712 308.232ZM725.064 297.48L715.368 269.448L705.672 297.48H725.064ZM769.783 276.072C771.511 273.256 773.751 271.048 776.503 269.448C779.319 267.848 782.519 267.048 786.103 267.048V281.16H782.551C778.327 281.16 775.127 282.152 772.951 284.136C770.839 286.12 769.783 289.576 769.783 294.504V321H756.343V267.816H769.783V276.072ZM810.803 278.856V304.584C810.803 306.376 811.219 307.688 812.051 308.52C812.947 309.288 814.419 309.672 816.467 309.672H822.707V321H814.259C802.931 321 797.267 315.496 797.267 304.488V278.856H790.931V267.816H797.267V254.664H810.803V267.816H822.707V278.856H810.803ZM839.19 261.48C836.822 261.48 834.838 260.744 833.238 259.272C831.702 257.736 830.934 255.848 830.934 253.608C830.934 251.368 831.702 249.512 833.238 248.04C834.838 246.504 836.822 245.736 839.19 245.736C841.558 245.736 843.51 246.504 845.046 248.04C846.646 249.512 847.446 251.368 847.446 253.608C847.446 255.848 846.646 257.736 845.046 259.272C843.51 260.744 841.558 261.48 839.19 261.48ZM845.814 267.816V321H832.374V267.816H845.814ZM855.637 294.408C855.637 288.904 856.757 284.104 858.997 280.008C861.237 275.848 864.341 272.648 868.309 270.408C872.277 268.104 876.821 266.952 881.941 266.952C888.533 266.952 893.973 268.616 898.261 271.944C902.613 275.208 905.525 279.816 906.997 285.768H892.501C891.733 283.464 890.421 281.672 888.565 280.392C886.773 279.048 884.533 278.376 881.845 278.376C878.005 278.376 874.965 279.784 872.725 282.6C870.485 285.352 869.365 289.288 869.365 294.408C869.365 299.464 870.485 303.4 872.725 306.216C874.965 308.968 878.005 310.344 881.845 310.344C887.285 310.344 890.837 307.912 892.501 303.048H906.997C905.525 308.808 902.613 313.384 898.261 316.776C893.909 320.168 888.469 321.864 881.941 321.864C876.821 321.864 872.277 320.744 868.309 318.504C864.341 316.2 861.237 313 858.997 308.904C856.757 304.744 855.637 299.912 855.637 294.408ZM930.283 249.96V321H916.843V249.96H930.283ZM993.002 293.256C993.002 295.176 992.874 296.904 992.618 298.44H953.738C954.058 302.28 955.402 305.288 957.77 307.464C960.138 309.64 963.05 310.728 966.506 310.728C971.498 310.728 975.05 308.584 977.162 304.296H991.658C990.122 309.416 987.178 313.64 982.826 316.968C978.474 320.232 973.13 321.864 966.794 321.864C961.674 321.864 957.066 320.744 952.97 318.504C948.938 316.2 945.77 312.968 943.466 308.808C941.226 304.648 940.105 299.848 940.105 294.408C940.105 288.904 941.226 284.072 943.466 279.912C945.706 275.752 948.842 272.552 952.874 270.312C956.906 268.072 961.546 266.952 966.794 266.952C971.85 266.952 976.362 268.04 980.33 270.216C984.362 272.392 987.466 275.496 989.642 279.528C991.882 283.496 993.002 288.072 993.002 293.256ZM979.082 289.416C979.018 285.96 977.77 283.208 975.338 281.16C972.906 279.048 969.93 277.992 966.41 277.992C963.082 277.992 960.266 279.016 957.962 281.064C955.722 283.048 954.346 285.832 953.834 289.416H979.082ZM1016.25 310.344H1038.33V321H1002.81V253.992H1016.25V310.344ZM1043.42 294.216C1043.42 288.84 1044.47 284.072 1046.59 279.912C1048.76 275.752 1051.67 272.552 1055.32 270.312C1059.03 268.072 1063.16 266.952 1067.71 266.952C1071.67 266.952 1075.13 267.752 1078.07 269.352C1081.08 270.952 1083.48 272.968 1085.27 275.4V267.816H1098.81V321H1085.27V313.224C1083.55 315.72 1081.15 317.8 1078.07 319.464C1075.07 321.064 1071.58 321.864 1067.61 321.864C1063.13 321.864 1059.03 320.712 1055.32 318.408C1051.67 316.104 1048.76 312.872 1046.59 308.712C1044.47 304.488 1043.42 299.656 1043.42 294.216ZM1085.27 294.408C1085.27 291.144 1084.63 288.36 1083.35 286.056C1082.07 283.688 1080.35 281.896 1078.17 280.68C1075.99 279.4 1073.66 278.76 1071.16 278.76C1068.67 278.76 1066.36 279.368 1064.25 280.584C1062.14 281.8 1060.41 283.592 1059.07 285.96C1057.79 288.264 1057.15 291.016 1057.15 294.216C1057.15 297.416 1057.79 300.232 1059.07 302.664C1060.41 305.032 1062.14 306.856 1064.25 308.136C1066.43 309.416 1068.73 310.056 1071.16 310.056C1073.66 310.056 1075.99 309.448 1078.17 308.232C1080.35 306.952 1082.07 305.16 1083.35 302.856C1084.63 300.488 1085.27 297.672 1085.27 294.408ZM1141.41 267.048C1147.74 267.048 1152.86 269.064 1156.77 273.096C1160.67 277.064 1162.62 282.632 1162.62 289.8V321H1149.18V291.624C1149.18 287.4 1148.13 284.168 1146.02 281.928C1143.9 279.624 1141.02 278.472 1137.38 278.472C1133.66 278.472 1130.72 279.624 1128.54 281.928C1126.43 284.168 1125.38 287.4 1125.38 291.624V321H1111.94V267.816H1125.38V274.44C1127.17 272.136 1129.44 270.344 1132.19 269.064C1135.01 267.72 1138.08 267.048 1141.41 267.048ZM1171.95 294.216C1171.95 288.84 1173.01 284.072 1175.12 279.912C1177.29 275.752 1180.24 272.552 1183.95 270.312C1187.66 268.072 1191.79 266.952 1196.33 266.952C1199.79 266.952 1203.09 267.72 1206.22 269.256C1209.36 270.728 1211.85 272.712 1213.71 275.208V249.96H1227.34V321H1213.71V313.128C1212.05 315.752 1209.71 317.864 1206.7 319.464C1203.69 321.064 1200.21 321.864 1196.24 321.864C1191.76 321.864 1187.66 320.712 1183.95 318.408C1180.24 316.104 1177.29 312.872 1175.12 308.712C1173.01 304.488 1171.95 299.656 1171.95 294.216ZM1213.81 294.408C1213.81 291.144 1213.17 288.36 1211.89 286.056C1210.61 283.688 1208.88 281.896 1206.7 280.68C1204.53 279.4 1202.19 278.76 1199.69 278.76C1197.2 278.76 1194.89 279.368 1192.78 280.584C1190.67 281.8 1188.94 283.592 1187.6 285.96C1186.32 288.264 1185.68 291.016 1185.68 294.216C1185.68 297.416 1186.32 300.232 1187.6 302.664C1188.94 305.032 1190.67 306.856 1192.78 308.136C1194.96 309.416 1197.26 310.056 1199.69 310.056C1202.19 310.056 1204.53 309.448 1206.7 308.232C1208.88 306.952 1210.61 305.16 1211.89 302.856C1213.17 300.488 1213.81 297.672 1213.81 294.408Z" fill="#361E98"/>
</g>
<defs>
<filter id="filter0_d_22_418" x="-4" y="0" width="462" height="908" filterUnits="userSpaceOnUse" color-interpolation-filters="sRGB">
<feFlood flood-opacity="0" result="BackgroundImageFix"/>
<feColorMatrix in="SourceAlpha" type="matrix" values="0 0 0 0 0 0 0 0 0 0 0 0 0 0 0 0 0 0 127 0" result="hardAlpha"/>
<feOffset dy="4"/>
<feGaussianBlur stdDeviation="2"/>
<feComposite in2="hardAlpha" operator="out"/>
<feColorMatrix type="matrix" values="0 0 0 0 0 0 0 0 0 0 0 0 0 0 0 0 0 0 0.25 0"/>
<feBlend mode="normal" in2="BackgroundImageFix" result="effect1_dropShadow_22_418"/>
<feBlend mode="normal" in="SourceGraphic" in2="effect1_dropShadow_22_418" result="shape"/>
</filter>
<filter id="filter1_d_22_418" x="20" y="557" width="414" height="72" filterUnits="userSpaceOnUse" color-interpolation-filters="sRGB">
<feFlood flood-opacity="0" result="BackgroundImageFix"/>
<feColorMatrix in="SourceAlpha" type="matrix" values="0 0 0 0 0 0 0 0 0 0 0 0 0 0 0 0 0 0 127 0" result="hardAlpha"/>
<feOffset dy="4"/>
<feGaussianBlur stdDeviation="6"/>
<feColorMatrix type="matrix" values="0 0 0 0 0.101961 0 0 0 0 0.101961 0 0 0 0 0.101961 0 0 0 0.24 0"/>
<feBlend mode="normal" in2="BackgroundImageFix" result="effect1_dropShadow_22_418"/>
<feBlend mode="normal" in="SourceGraphic" in2="effect1_dropShadow_22_418" result="shape"/>
</filter>
<clipPath id="clip0_22_418">
<rect width="1440" height="900" fill="white"/>
</clipPath>
<clipPath id="clip1_22_418">
<rect width="1480" height="1024" fill="white" transform="translate(39 -91)"/>
</clipPath>
<clipPath id="clip2_22_418">
<rect width="454" height="900" fill="white"/>
</clipPath>
</defs>
</svg>
